<svg preserveAspectRatio="none" width="100%" height="100%" overflow="visible" style="display: block;" viewBox="0 0 1408 547" fill="none" xmlns="http://www.w3.org/2000/svg">
<g id="Vector">
<path d="M284.628 540.947V437.297H0V376.772L257.376 6.05258H364.112V364.667H426.185V437.297H364.112V540.947H284.628ZM94.6237 364.667H284.628V85.4924L94.6237 364.667Z" fill="var(--fill-0, white)"/>
<path d="M704 547C665.646 547 633.095 540.191 606.348 526.573C579.601 512.45 557.901 493.031 541.247 468.317C524.594 443.098 512.229 414.096 504.155 381.311C496.585 348.022 492.8 312.211 492.8 273.878C492.8 235.545 496.585 199.987 504.155 167.202C511.725 133.913 523.837 104.911 540.49 80.1964C557.649 54.9774 579.601 35.3066 606.348 21.184C633.6 7.06132 666.151 0 704 0C744.373 0 777.933 7.56569 804.68 22.6971C831.931 37.8285 853.632 58.5081 869.781 84.7358C886.434 110.459 898.042 139.713 904.602 172.498C911.667 205.283 915.2 239.076 915.2 273.878C915.2 308.681 911.667 342.474 904.602 375.259C897.537 408.043 885.93 437.297 869.781 463.021C853.632 488.744 831.931 509.172 804.68 524.303C777.428 539.434 743.868 547 704 547ZM704 473.613C731.756 473.613 754.214 467.56 771.372 455.455C788.53 442.846 801.652 426.453 810.735 406.278C819.819 386.103 825.875 364.414 828.903 341.213C832.436 318.012 834.202 295.567 834.202 273.878C834.202 252.694 832.436 230.502 828.903 207.3C825.875 183.594 819.819 161.654 810.735 141.479C801.652 121.303 788.53 104.911 771.372 92.3015C754.718 79.692 732.513 73.3873 704.757 73.3873C676.496 73.3873 653.534 79.692 635.871 92.3015C618.713 104.911 605.591 121.303 596.508 141.479C587.424 161.654 581.368 183.342 578.34 206.544C575.312 229.745 573.798 252.19 573.798 273.878C573.798 295.567 575.312 318.012 578.34 341.213C581.368 364.414 587.171 386.103 595.751 406.278C604.834 426.453 617.956 442.846 635.114 455.455C652.777 467.56 675.739 473.613 704 473.613Z" fill="var(--fill-0, white)"/>
<path d="M1266.44 540.947V437.297H981.815V376.772L1239.19 6.05258H1345.93V364.667H1408V437.297H1345.93V540.947H1266.44ZM1076.44 364.667H1266.44V85.4924L1076.44 364.667Z" fill="var(--fill-0, white)"/>
</g>
</svg>
