<svg preserveAspectRatio="none" width="100%" height="100%" overflow="visible" style="display: block;" viewBox="0 0 381 148" fill="none" xmlns="http://www.w3.org/2000/svg">
<g id="Vector">
<path d="M77.0194 146.362V118.318H0V101.942L69.6452 1.63763H98.5274V98.6667H115.324V118.318H98.5274V146.362H77.0194ZM25.6048 98.6667H77.0194V23.1314L25.6048 98.6667Z" fill="var(--fill-0, white)"/>
<path d="M190.5 148C180.122 148 171.313 146.158 164.076 142.473C156.838 138.652 150.966 133.398 146.46 126.711C141.953 119.888 138.608 112.041 136.423 103.17C134.374 94.1632 133.35 84.474 133.35 74.1024C133.35 63.7308 134.374 54.1097 136.423 45.2393C138.471 36.2324 141.748 28.3854 146.255 21.6985C150.898 14.8751 156.838 9.55279 164.076 5.73167C171.45 1.91056 180.258 0 190.5 0C201.425 0 210.506 2.04702 217.744 6.14107C225.118 10.2351 230.99 15.8303 235.36 22.9267C239.866 29.8866 243.007 37.8017 244.782 46.6722C246.694 55.5426 247.65 64.686 247.65 74.1024C247.65 83.5187 246.694 92.6621 244.782 101.533C242.87 110.403 239.73 118.318 235.36 125.278C230.99 132.238 225.118 137.765 217.744 141.859C210.369 145.953 201.288 148 190.5 148ZM190.5 128.144C198.011 128.144 204.088 126.506 208.731 123.231C213.374 119.819 216.924 115.384 219.382 109.925C221.84 104.467 223.479 98.5984 224.298 92.3209C225.254 86.0433 225.732 79.9705 225.732 74.1024C225.732 68.3707 225.254 62.3661 224.298 56.0885C223.479 49.6745 221.84 43.7381 219.382 38.2794C216.924 32.8207 213.374 28.3854 208.731 24.9737C204.224 21.562 198.216 19.8562 190.705 19.8562C183.058 19.8562 176.844 21.562 172.065 24.9737C167.422 28.3854 163.871 32.8207 161.413 38.2794C158.955 43.7381 157.316 49.6063 156.497 55.8838C155.677 62.1614 155.268 68.2342 155.268 74.1024C155.268 79.9705 155.677 86.0433 156.497 92.3209C157.316 98.5984 158.887 104.467 161.208 109.925C163.666 115.384 167.217 119.819 171.86 123.231C176.639 126.506 182.853 128.144 190.5 128.144Z" fill="var(--fill-0, white)"/>
<path d="M342.695 146.362V118.318H265.676V101.942L335.321 1.63763H364.203V98.6667H381V118.318H364.203V146.362H342.695ZM291.281 98.6667H342.695V23.1314L291.281 98.6667Z" fill="var(--fill-0, white)"/>
</g>
</svg>
