<svg preserveAspectRatio="none" width="100%" height="100%" overflow="visible" style="display: block;" viewBox="0 0 39.0833 39.0833" fill="none" xmlns="http://www.w3.org/2000/svg">
<path id="Vector" d="M19.5417 0C20.2821 0 20.9921 0.294122 21.5157 0.817661C22.0392 1.3412 22.3333 2.05127 22.3333 2.79167V16.75H36.2917C37.0321 16.75 37.7421 17.0441 38.2657 17.5677C38.7892 18.0912 39.0833 18.8013 39.0833 19.5417C39.0833 20.2821 38.7892 20.9921 38.2657 21.5157C37.7421 22.0392 37.0321 22.3333 36.2917 22.3333H22.3333V36.2917C22.3333 37.0321 22.0392 37.7421 21.5157 38.2657C20.9921 38.7892 20.2821 39.0833 19.5417 39.0833C18.8013 39.0833 18.0912 38.7892 17.5677 38.2657C17.0441 37.7421 16.75 37.0321 16.75 36.2917V22.3333H2.79167C2.05127 22.3333 1.3412 22.0392 0.817661 21.5157C0.294122 20.9921 0 20.2821 0 19.5417C0 18.8013 0.294122 18.0912 0.817661 17.5677C1.3412 17.0441 2.05127 16.75 2.79167 16.75H16.75V2.79167C16.75 2.05127 17.0441 1.3412 17.5677 0.817661C18.0912 0.294122 18.8013 0 19.5417 0Z" fill="var(--fill-0, white)"/>
</svg>
