<svg preserveAspectRatio="none" width="100%" height="100%" overflow="visible" style="display: block;" viewBox="0 0 25.2559 30.1948" fill="none" xmlns="http://www.w3.org/2000/svg">
<g id="Group">
<g id="Vector">
<path d="M12.8662 29.41L12.8818 29.4072C12.894 29.4091 12.9021 29.4176 12.9058 29.4327L12.9299 30.0376L12.9243 30.0617L12.9073 30.0843L12.7599 30.1892L12.7429 30.1948L12.7217 30.1892L12.5743 30.0843L12.5602 30.0659L12.5531 30.0376L12.5772 29.4312L12.5828 29.4171C12.5904 29.4076 12.6017 29.4053 12.6168 29.41L12.7174 29.4596L12.7373 29.4652L12.7656 29.4596L12.8662 29.41Z" fill="var(--fill-0, white)" fill-opacity="0.4"/>
<path d="M13.2388 29.2499L13.2572 29.2471C13.2713 29.2509 13.2808 29.2612 13.2855 29.2782L13.3337 30.1481L13.328 30.1679C13.3186 30.1802 13.3049 30.184 13.2869 30.1792L13.0022 30.0475L12.9908 30.0376L12.9838 30.0206L12.9583 29.4114L12.9625 29.3958L12.9767 29.3817L13.2388 29.2499Z" fill="var(--fill-0, white)" fill-opacity="0.4"/>
<path d="M12.2234 29.2465C12.2305 29.2449 12.238 29.2461 12.2442 29.2499L12.5049 29.3802L12.5191 29.3944L12.5233 29.4114L12.4993 30.0206L12.4936 30.0362L12.4794 30.0475L12.1947 30.1792L12.1734 30.1821C12.1583 30.1764 12.1503 30.1651 12.1493 30.1481L12.1975 29.2782L12.206 29.2584C12.2101 29.2523 12.2163 29.2481 12.2234 29.2465Z" fill="var(--fill-0, white)" fill-opacity="0.4"/>
</g>
<path id="Vector_2" d="M12.0417 0C12.6053 0 13.1458 0.223883 13.5443 0.622398C13.9428 1.02091 14.1667 1.56141 14.1667 2.125C14.1667 2.68858 13.9428 3.22909 13.5443 3.6276C13.1458 4.02612 12.6053 4.25 12.0417 4.25H4.95833C4.77047 4.25 4.5903 4.32463 4.45747 4.45747C4.32463 4.5903 4.25 4.77047 4.25 4.95833V21.9583C4.25 22.1462 4.32463 22.3264 4.45747 22.4592C4.5903 22.592 4.77047 22.6667 4.95833 22.6667H11.3333C11.8969 22.6667 12.4374 22.8906 12.8359 23.2891C13.2344 23.6876 13.4583 24.2281 13.4583 24.7917C13.4583 25.3553 13.2344 25.8958 12.8359 26.2943C12.4374 26.6928 11.8969 26.9167 11.3333 26.9167H4.95833C3.6433 26.9167 2.38213 26.3943 1.45226 25.4644C0.522395 24.5345 0 23.2734 0 21.9583V4.95833C0 3.6433 0.522395 2.38213 1.45226 1.45226C2.38213 0.522394 3.6433 0 4.95833 0H12.0417ZM20.6267 7.9475L24.6344 11.9567C25.0324 12.3551 25.2559 12.8952 25.2559 13.4583C25.2559 14.0215 25.0324 14.5616 24.6344 14.96L20.6281 18.9692C20.2294 19.3678 19.6888 19.5918 19.125 19.5918C18.5612 19.5918 18.0206 19.3678 17.6219 18.9692C17.2233 18.5705 16.9993 18.0298 16.9993 17.4661C16.9993 16.9023 17.2233 16.3616 17.6219 15.963L18.0016 15.5833H12.0417C11.4781 15.5833 10.9376 15.3594 10.5391 14.9609C10.1405 14.5624 9.91667 14.0219 9.91667 13.4583C9.91667 12.8947 10.1405 12.3542 10.5391 11.9557C10.9376 11.5572 11.4781 11.3333 12.0417 11.3333H18.0016L17.6219 10.9537C17.4246 10.7563 17.2681 10.522 17.1614 10.2641C17.0547 10.0062 16.9998 9.72987 16.9998 9.45079C16.9999 9.17171 17.0549 8.89537 17.1618 8.63756C17.2686 8.37974 17.4252 8.1455 17.6226 7.94821C17.82 7.75091 18.0543 7.59443 18.3122 7.48769C18.5701 7.38095 18.8464 7.32605 19.1255 7.32611C19.4046 7.32618 19.6809 7.38121 19.9387 7.48807C20.1965 7.59493 20.4308 7.75153 20.6281 7.94892L20.6267 7.9475Z" fill="var(--fill-0, white)" fill-opacity="0.4"/>
</g>
</svg>
