<svg preserveAspectRatio="none" width="100%" height="100%" overflow="visible" style="display: block;" viewBox="0 0 19 17" fill="none" xmlns="http://www.w3.org/2000/svg">
<path id="Vector" d="M16.9468 2.80787H12.741V1.79246C12.7402 1.31742 12.5355 0.862044 12.1717 0.526073C11.8079 0.190103 11.3147 0.000932331 10.8001 0H8.21291C7.69832 0.000745418 7.20502 0.189737 6.84108 0.525575C6.47714 0.861414 6.27222 1.31672 6.27121 1.79176V2.80716H2.06545C1.51759 2.80735 0.992235 3.00839 0.60491 3.36608C0.217585 3.72376 1.04082e-07 4.20881 1.41519e-07 4.71456V14.0647C-0.000100235 14.3149 0.0531964 14.5626 0.156844 14.7937C0.260492 15.0248 0.412459 15.2348 0.604061 15.4117C0.795663 15.5885 1.02314 15.7288 1.2735 15.8245C1.52386 15.9202 1.79219 15.9694 2.06316 15.9693H2.67118C2.66048 16.1011 2.67939 16.2334 2.72672 16.3581C2.77405 16.4828 2.84878 16.5971 2.94622 16.6939C3.04367 16.7907 3.16173 16.8678 3.29299 16.9205C3.42426 16.9732 3.5659 17.0002 3.70903 17C3.85215 16.9998 3.99368 16.9722 4.12474 16.9191C4.25579 16.866 4.37354 16.7884 4.4706 16.6913C4.56766 16.5942 4.64193 16.4796 4.68876 16.3548C4.7356 16.2299 4.75397 16.0975 4.74274 15.9658V15.9693H14.2573C14.2573 16.2229 14.3664 16.4661 14.5606 16.6454C14.7549 16.8247 15.0183 16.9255 15.293 16.9255C15.5677 16.9255 15.8312 16.8247 16.0254 16.6454C16.2197 16.4661 16.3288 16.2229 16.3288 15.9693H16.9368C17.2078 15.9694 17.4761 15.9202 17.7265 15.8245C17.9769 15.7288 18.2043 15.5885 18.3959 15.4117C18.5875 15.2348 18.7395 15.0248 18.8432 14.7937C18.9468 14.5626 19.0001 14.3149 19 14.0647V4.69905C19 4.19729 18.7841 3.71608 18.3997 3.36128C18.0154 3.00648 17.4941 2.80716 16.9506 2.80716H16.9452L16.9468 2.80787ZM7.71565 1.79246C7.71565 1.53861 7.93869 1.33271 8.21368 1.33271H10.8001C11.0751 1.33271 11.2981 1.53861 11.2981 1.79246V2.80787H7.72099V1.79246H7.71565ZM4.2577 13.935C3.92518 13.935 3.59937 13.8439 3.32289 13.6734C3.04641 13.5029 2.83093 13.2605 2.70368 12.9769C2.57643 12.6933 2.54314 12.3812 2.60801 12.0802C2.67288 11.7791 2.833 11.5026 3.06812 11.2855C3.30325 11.0685 3.60282 10.9207 3.92894 10.8608C4.25507 10.8009 4.59311 10.8316 4.90032 10.9491C5.20752 11.0666 5.47009 11.2655 5.65483 11.5207C5.83957 11.7759 5.93817 12.076 5.93817 12.383C5.93817 13.2397 5.18578 13.9343 4.2577 13.935ZM6.99152 7.67333L8.09146 4.94655L11.0453 5.96196L9.94532 8.68944L6.99152 7.67333ZM11.7579 13.5514L11.0277 11.2209L16.5801 9.74221L17.3104 12.0727L11.7579 13.5514Z" fill="var(--fill-0, white)"/>
</svg>
