<svg preserveAspectRatio="none" width="100%" height="100%" overflow="visible" style="display: block;" viewBox="0 0 18 19.847" fill="none" xmlns="http://www.w3.org/2000/svg">
<path id="Vector" d="M12 7L8 11L6 9M17 8.165C17 14.733 12.032 17.678 9.926 18.631L9.923 18.633C9.702 18.733 9.591 18.783 9.339 18.826C9.179 18.854 8.821 18.854 8.662 18.826C8.45706 18.7919 8.25868 18.7261 8.074 18.631C5.968 17.678 1 14.733 1 8.165V4.2C1 3.08 1 2.52 1.218 2.092C1.41 1.715 1.715 1.41 2.092 1.218C2.52 1 3.08 1 4.2 1H13.8C14.92 1 15.48 1 15.907 1.218C16.284 1.41 16.59 1.715 16.782 2.092C17 2.519 17 3.079 17 4.197V8.165Z" stroke="var(--stroke-0, black)" stroke-width="2" stroke-linecap="round" stroke-linejoin="round"/>
</svg>
