<svg preserveAspectRatio="none" width="100%" height="100%" overflow="visible" style="display: block;" viewBox="0 0 16 18" fill="none" xmlns="http://www.w3.org/2000/svg">
<path id="Vector" d="M12.1904 11.9578C11.9735 11.7381 11.8147 11.4712 11.7276 11.1798C11.6404 10.8883 11.6275 10.5808 11.6898 10.2835H1.99869C1.46859 10.284 0.960358 10.4873 0.585608 10.8488C0.210858 11.2103 0.000235388 11.7005 0 12.2116V13.0003C0 13.4907 0.158259 13.9691 0.453438 14.3686C1.82442 16.2239 4.0685 17.142 7.10921 17.142C7.45595 17.142 7.79174 17.13 8.11655 17.106C8.00109 16.7971 7.96931 16.4649 8.02423 16.1409C8.07916 15.8168 8.21896 15.5116 8.4304 15.2542L9.14168 14.3883C9.37362 14.1069 9.68414 13.8952 10.0367 13.7783C10.3892 13.6613 10.769 13.644 11.1315 13.7282L11.8765 13.9022C12.3389 13.5276 12.6145 13.0664 12.7194 12.4928L12.1904 11.9578ZM7.10921 0C7.693 -8.38819e-09 8.27107 0.110876 8.81042 0.326296C9.34977 0.541717 9.83983 0.857465 10.2526 1.25551C10.6654 1.65356 10.9929 2.12611 11.2163 2.64618C11.4397 3.16625 11.5547 3.72366 11.5547 4.28658C11.5547 4.8495 11.4397 5.40691 11.2163 5.92699C10.9929 6.44706 10.6654 6.91961 10.2526 7.31765C9.83983 7.7157 9.34977 8.03145 8.81042 8.24687C8.27107 8.46229 7.693 8.57316 7.10921 8.57316C5.93019 8.57316 4.79947 8.12154 3.96578 7.31765C3.13209 6.51376 2.66373 5.42345 2.66373 4.28658C2.66373 3.14971 3.13209 2.0594 3.96578 1.25551C4.79947 0.451621 5.93019 0 7.10921 0ZM12.6145 10.2792L13.0377 9.24616C13.2529 8.71976 13.8557 8.44628 14.414 8.62203L14.7972 8.74291C15.4409 8.9461 15.9762 9.43391 15.9975 10.088C16.0864 12.7543 13.7961 16.5891 11.3626 17.851C10.7643 18.1614 10.0574 17.9565 9.55333 17.5158L9.2537 17.2543C9.0442 17.0715 8.91461 16.8186 8.89117 16.5471C8.86772 16.2755 8.95219 16.0055 9.12745 15.7918L9.83873 14.9259C10.0966 14.6112 10.5207 14.4715 10.9234 14.5658L12.0721 14.8341C13.0525 14.2083 13.5783 13.3284 13.6494 12.1945L12.8341 11.368C12.6934 11.2257 12.598 11.0476 12.5591 10.8546C12.5202 10.6616 12.5394 10.462 12.6145 10.2792Z" fill="var(--fill-0, white)"/>
</svg>
