<svg width="24" height="24" viewBox="0 0 24 24" fill="none" xmlns="http://www.w3.org/2000/svg">
<path d="M7.76786 11.5C8.75768 11.5 9.70697 11.1049 10.4069 10.4017C11.1068 9.69839 11.5 8.74456 11.5 7.75C11.5 6.75544 11.1068 5.80161 10.4069 5.09835C9.70697 4.39509 8.75768 4 7.76786 4C6.77803 4 5.82875 4.39509 5.12883 5.09835C4.42892 5.80161 4.03571 6.75544 4.03571 7.75C4.03571 8.74456 4.42892 9.69839 5.12883 10.4017C5.82875 11.1049 6.77803 11.5 7.76786 11.5ZM16.25 11.5C16.9699 11.5 17.6603 11.2127 18.1693 10.7012C18.6783 10.1897 18.9643 9.49604 18.9643 8.77273C18.9643 8.04941 18.6783 7.35572 18.1693 6.84425C17.6603 6.33279 16.9699 6.04545 16.25 6.04545C15.5301 6.04545 14.8397 6.33279 14.3307 6.84425C13.8217 7.35572 13.5357 8.04941 13.5357 8.77273C13.5357 9.49604 13.8217 10.1897 14.3307 10.7012C14.8397 11.2127 15.5301 11.5 16.25 11.5ZM4.03571 12.8636C3.49581 12.8636 2.97802 13.0791 2.59625 13.4627C2.21448 13.8463 2 14.3666 2 14.9091V15.0114C2 15.0114 2 19 7.76786 19C13.5357 19 13.5357 15.0114 13.5357 15.0114V14.9091C13.5357 14.3666 13.3212 13.8463 12.9395 13.4627C12.5577 13.0791 12.0399 12.8636 11.5 12.8636H4.03571ZM16.25 17.6364C15.262 17.6364 14.4803 17.5014 13.8608 17.2866C14.1539 16.8093 14.3222 16.3491 14.4172 15.9775C14.4864 15.7105 14.5302 15.4374 14.5481 15.162L14.5509 15.0891L14.5515 15.0605V14.9091C14.553 14.1542 14.2762 13.4256 13.7746 12.8636H19.3667C19.5811 12.8635 19.7935 12.9059 19.9917 12.9883C20.1898 13.0707 20.3699 13.1915 20.5216 13.3439C20.6732 13.4962 20.7936 13.6771 20.8757 13.8762C20.9577 14.0752 21 14.2886 21 14.5041C21 14.5041 21 17.6364 16.25 17.6364Z" fill="white"/>
</svg>
