<svg width="245" height="245" viewBox="0 0 245 245" fill="none" xmlns="http://www.w3.org/2000/svg">
<path d="M40.8335 102.083L33.6162 109.3L26.3989 102.083L33.6162 94.8659L40.8335 102.083ZM214.375 183.75C214.375 186.457 213.3 189.054 211.385 190.968C209.471 192.883 206.874 193.958 204.167 193.958C201.459 193.958 198.863 192.883 196.948 190.968C195.034 189.054 193.958 186.457 193.958 183.75H214.375ZM84.6579 160.342L33.6162 109.3L48.0508 94.8659L99.0925 145.908L84.6579 160.342ZM33.6162 94.8659L84.6579 43.8242L99.0925 58.2588L48.0508 109.3L33.6162 94.8659ZM40.8335 91.8748H142.917V112.292H40.8335V91.8748ZM214.375 163.333V183.75H193.958V163.333H214.375ZM142.917 91.8748C161.869 91.8748 180.044 99.4035 193.446 112.805C206.847 126.206 214.375 144.381 214.375 163.333H193.958C193.958 149.796 188.581 136.813 179.009 127.241C169.437 117.669 156.454 112.292 142.917 112.292V91.8748Z" fill="white"/>
</svg>
