<svg width="172" height="172" viewBox="0 0 172 172" fill="none" xmlns="http://www.w3.org/2000/svg">
<path d="M143.835 45.5083H107.5V55.6133H143.978L143.835 45.5083ZM136.167 115.025C133.41 116.851 130.155 117.778 126.85 117.677C124.662 117.905 122.451 117.679 120.355 117.013C118.258 116.347 116.322 115.255 114.667 113.807C111.613 110.333 110.021 105.814 110.223 101.193H157.667C158.005 96.3813 157.594 91.5459 156.448 86.86C155.333 82.4036 153.388 78.1974 150.715 74.4617C148.016 70.8447 144.538 67.8811 140.538 65.79C136.081 63.6015 131.17 62.4965 126.205 62.565C121.535 62.5346 116.906 63.4361 112.588 65.2167C108.635 66.8812 105.054 69.3176 102.053 72.3833C99.0606 75.5088 96.7431 79.2169 95.2452 83.2767C93.6377 87.6594 92.8364 92.2969 92.8802 96.965C92.8033 101.7 93.5801 106.409 95.1735 110.868C96.5313 114.904 98.6747 118.63 101.48 121.833C104.389 124.973 107.964 127.422 111.943 129C116.38 130.69 121.099 131.518 125.847 131.437C132.508 131.644 139.084 129.901 144.767 126.42C150.511 122.346 154.645 116.386 156.448 109.578H140.61C139.762 111.83 138.202 113.742 136.167 115.025ZM111.585 85.4983C112.143 83.7115 113.069 82.0614 114.303 80.6543C115.538 79.2471 117.053 78.1141 118.752 77.3283C121.003 76.3203 123.452 75.8305 125.918 75.895C127.7 75.7428 129.494 75.9779 131.176 76.584C132.859 77.1902 134.39 78.1531 135.665 79.4067C138.104 82.3856 139.667 85.9831 140.18 89.7983H110.438C110.554 88.3419 110.819 86.9012 111.227 85.4983H111.585ZM73.6735 82.0583C77.3211 80.5394 80.4905 78.0633 82.8468 74.8917C85.0214 71.5272 86.0982 67.5708 85.9285 63.5683C86.0637 59.9197 85.3524 56.2894 83.8502 52.9617C82.5839 50.0801 80.5512 47.6012 77.9735 45.795C75.2448 43.9092 72.1395 42.6377 68.8718 42.0683C65.0081 41.2556 61.0665 40.871 57.1185 40.9217H14.3335V131.078H58.0502C62.0395 131.077 66.0127 130.572 69.8752 129.573C73.5331 128.62 76.9997 127.044 80.1235 124.915C83.1519 122.827 85.6145 120.02 87.2902 116.745C89.1558 113.09 90.0679 109.022 89.9418 104.92C90.0776 99.8369 88.6518 94.8344 85.8568 90.5867C82.851 86.3148 78.3929 83.2832 73.3152 82.0583H73.6735ZM34.1852 56.33H52.7468C54.4524 56.3217 56.1552 56.4656 57.8352 56.76C59.3847 56.9816 60.8725 57.5182 62.2068 58.3367C63.4993 59.0678 64.5466 60.1649 65.2168 61.49C66.0534 63.0766 66.4494 64.8584 66.3635 66.65C66.497 68.1925 66.2611 69.7447 65.6754 71.1779C65.0896 72.6111 64.1709 73.8842 62.9952 74.8917C60.4304 76.6549 57.3613 77.5353 54.2518 77.4H34.1852V56.33ZM68.8718 109.65C68.1298 111.107 67.0176 112.343 65.6468 113.233C64.2157 114.123 62.6387 114.754 60.9885 115.097C59.1546 115.509 57.278 115.702 55.3985 115.67H33.8985V90.945H55.3985C59.088 90.7834 62.7315 91.8137 65.7902 93.8833C67.172 95.1234 68.2424 96.6714 68.9147 98.402C69.5871 100.133 69.8424 101.997 69.6602 103.845C69.846 105.815 69.5763 107.801 68.8718 109.65Z" fill="white"/>
</svg>
