<svg width="24" height="24" viewBox="0 0 24 24" fill="none" xmlns="http://www.w3.org/2000/svg">
<path d="M18.9468 6.80787H14.741V5.79246C14.7402 5.31742 14.5355 4.86204 14.1717 4.52607C13.8079 4.1901 13.3147 4.00093 12.8001 4H10.2129C9.69832 4.00075 9.20503 4.18974 8.84108 4.52558C8.47714 4.86141 8.27222 5.31672 8.27121 5.79176V6.80716H4.06545C3.51759 6.80735 2.99224 7.00839 2.60491 7.36608C2.21759 7.72376 2 8.20881 2 8.71456V18.0647C1.9999 18.3149 2.0532 18.5626 2.15684 18.7937C2.26049 19.0248 2.41246 19.2348 2.60406 19.4117C2.79566 19.5885 3.02314 19.7288 3.2735 19.8245C3.52386 19.9202 3.79219 19.9694 4.06316 19.9693H4.67118C4.66048 20.1011 4.67939 20.2334 4.72672 20.3581C4.77405 20.4828 4.84878 20.5971 4.94622 20.6939C5.04367 20.7907 5.16173 20.8678 5.29299 20.9205C5.42426 20.9732 5.5659 21.0002 5.70903 21C5.85215 20.9998 5.99368 20.9722 6.12474 20.9191C6.25579 20.866 6.37354 20.7884 6.4706 20.6913C6.56766 20.5942 6.64193 20.4796 6.68876 20.3548C6.7356 20.2299 6.75397 20.0975 6.74274 19.9658V19.9693H16.2573C16.2573 20.2229 16.3664 20.4661 16.5606 20.6454C16.7549 20.8247 17.0183 20.9255 17.293 20.9255C17.5677 20.9255 17.8312 20.8247 18.0254 20.6454C18.2197 20.4661 18.3288 20.2229 18.3288 19.9693H18.9368C19.2078 19.9694 19.4761 19.9202 19.7265 19.8245C19.9769 19.7288 20.2043 19.5885 20.3959 19.4117C20.5875 19.2348 20.7395 19.0248 20.8432 18.7937C20.9468 18.5626 21.0001 18.3149 21 18.0647V8.69905C21 8.19729 20.7841 7.71608 20.3997 7.36128C20.0154 7.00648 19.4941 6.80716 18.9506 6.80716H18.9452L18.9468 6.80787ZM9.71565 5.79246C9.71565 5.53861 9.93869 5.33271 10.2137 5.33271H12.8001C13.0751 5.33271 13.2981 5.53861 13.2981 5.79246V6.80787H9.72099V5.79246H9.71565ZM6.2577 17.935C5.92518 17.935 5.59937 17.8439 5.32289 17.6734C5.04641 17.5029 4.83093 17.2605 4.70368 16.9769C4.57643 16.6933 4.54314 16.3812 4.60801 16.0802C4.67288 15.7791 4.833 15.5026 5.06812 15.2855C5.30325 15.0685 5.60282 14.9207 5.92894 14.8608C6.25507 14.8009 6.59311 14.8316 6.90032 14.9491C7.20752 15.0666 7.47009 15.2655 7.65483 15.5207C7.83957 15.7759 7.93817 16.076 7.93817 16.383C7.93817 17.2397 7.18578 17.9343 6.2577 17.935ZM8.99152 11.6733L10.0915 8.94655L13.0453 9.96196L11.9453 12.6894L8.99152 11.6733ZM13.7579 17.5514L13.0277 15.2209L18.5801 13.7422L19.3104 16.0727L13.7579 17.5514Z" fill="white"/>
</svg>
