<svg width="24" height="24" viewBox="0 0 24 24" fill="none" xmlns="http://www.w3.org/2000/svg">
<path d="M16.1904 15.9578C15.9735 15.7381 15.8147 15.4712 15.7276 15.1798C15.6404 14.8883 15.6275 14.5808 15.6898 14.2835H5.99869C5.46859 14.284 4.96036 14.4873 4.58561 14.8488C4.21086 15.2103 4.00024 15.7005 4 16.2116V17.0003C4 17.4907 4.15826 17.9691 4.45344 18.3686C5.82442 20.2239 8.0685 21.142 11.1092 21.142C11.456 21.142 11.7917 21.13 12.1166 21.106C12.0011 20.7971 11.9693 20.4649 12.0242 20.1409C12.0792 19.8168 12.219 19.5116 12.4304 19.2542L13.1417 18.3883C13.3736 18.1069 13.6841 17.8952 14.0367 17.7783C14.3892 17.6613 14.769 17.644 15.1315 17.7282L15.8765 17.9022C16.3389 17.5276 16.6145 17.0664 16.7194 16.4928L16.1904 15.9578ZM11.1092 4C11.693 4 12.2711 4.11088 12.8104 4.3263C13.3498 4.54172 13.8398 4.85746 14.2526 5.25551C14.6654 5.65356 14.9929 6.12611 15.2163 6.64618C15.4397 7.16625 15.5547 7.72366 15.5547 8.28658C15.5547 8.8495 15.4397 9.40691 15.2163 9.92699C14.9929 10.4471 14.6654 10.9196 14.2526 11.3177C13.8398 11.7157 13.3498 12.0314 12.8104 12.2469C12.2711 12.4623 11.693 12.5732 11.1092 12.5732C9.93019 12.5732 8.79947 12.1215 7.96578 11.3177C7.13209 10.5138 6.66373 9.42345 6.66373 8.28658C6.66373 7.14971 7.13209 6.0594 7.96578 5.25551C8.79947 4.45162 9.93019 4 11.1092 4ZM16.6145 14.2792L17.0377 13.2462C17.2529 12.7198 17.8557 12.4463 18.414 12.622L18.7972 12.7429C19.4409 12.9461 19.9762 13.4339 19.9975 14.088C20.0864 16.7543 17.7961 20.5891 15.3626 21.851C14.7643 22.1614 14.0574 21.9565 13.5533 21.5158L13.2537 21.2543C13.0442 21.0715 12.9146 20.8186 12.8912 20.5471C12.8677 20.2755 12.9522 20.0055 13.1275 19.7918L13.8387 18.9259C14.0966 18.6112 14.5207 18.4715 14.9234 18.5658L16.0721 18.8341C17.0525 18.2083 17.5783 17.3284 17.6494 16.1945L16.8341 15.368C16.6934 15.2257 16.598 15.0476 16.5591 14.8546C16.5202 14.6616 16.5394 14.462 16.6145 14.2792Z" fill="white"/>
</svg>
