<svg width="172" height="172" viewBox="0 0 172 172" fill="none" xmlns="http://www.w3.org/2000/svg">
<path d="M55.9002 14.3333H116.1C139.033 14.3333 157.667 32.9666 157.667 55.8999V116.1C157.667 127.124 153.287 137.697 145.492 145.492C137.697 153.287 127.124 157.667 116.1 157.667H55.9002C32.9668 157.667 14.3335 139.033 14.3335 116.1V55.8999C14.3335 44.8758 18.7128 34.3031 26.5081 26.5078C34.3034 18.7126 44.876 14.3333 55.9002 14.3333ZM54.4668 28.6666C47.6242 28.6666 41.0619 31.3848 36.2235 36.2232C31.385 41.0617 28.6668 47.624 28.6668 54.4666V117.533C28.6668 131.795 40.2052 143.333 54.4668 143.333H117.533C124.376 143.333 130.938 140.615 135.777 135.777C140.615 130.938 143.333 124.376 143.333 117.533V54.4666C143.333 40.2049 131.795 28.6666 117.533 28.6666H54.4668ZM123.625 39.4166C126.001 39.4166 128.28 40.3604 129.96 42.0404C131.64 43.7204 132.583 45.999 132.583 48.3749C132.583 50.7508 131.64 53.0294 129.96 54.7094C128.28 56.3894 126.001 57.3333 123.625 57.3333C121.249 57.3333 118.971 56.3894 117.291 54.7094C115.611 53.0294 114.667 50.7508 114.667 48.3749C114.667 45.999 115.611 43.7204 117.291 42.0404C118.971 40.3604 121.249 39.4166 123.625 39.4166ZM86.0002 50.1666C95.5038 50.1666 104.618 53.9419 111.338 60.6619C118.058 67.382 121.833 76.4963 121.833 85.9999C121.833 95.5035 118.058 104.618 111.338 111.338C104.618 118.058 95.5038 121.833 86.0002 121.833C76.4966 121.833 67.3822 118.058 60.6622 111.338C53.9421 104.618 50.1668 95.5035 50.1668 85.9999C50.1668 76.4963 53.9421 67.382 60.6622 60.6619C67.3822 53.9419 76.4966 50.1666 86.0002 50.1666ZM86.0002 64.4999C80.298 64.4999 74.8294 66.7651 70.7974 70.7971C66.7653 74.8292 64.5002 80.2978 64.5002 85.9999C64.5002 91.7021 66.7653 97.1707 70.7974 101.203C74.8294 105.235 80.298 107.5 86.0002 107.5C91.7023 107.5 97.1709 105.235 101.203 101.203C105.235 97.1707 107.5 91.7021 107.5 85.9999C107.5 80.2978 105.235 74.8292 101.203 70.7971C97.1709 66.7651 91.7023 64.4999 86.0002 64.4999Z" fill="white"/>
</svg>
