<svg width="900" height="395" viewBox="0 0 900 395" fill="none" xmlns="http://www.w3.org/2000/svg">
<g clip-path="url(#clip0_27_2866)">
<path d="M761.988 215.633C771.452 214.829 780.946 216.758 789.471 221.2C804.821 229.101 818.14 245.539 823.779 262.512C850.778 265.372 856.11 300.313 833.881 314.201C834.024 317.024 834.138 319.852 834.227 322.675C834.691 338.235 833.643 352.412 826.65 366.332C817.987 383.563 803.309 392.862 785.162 393.257C746.198 392.72 727.137 351.387 718.755 316.451C703.064 311.037 695.419 298.915 700.069 280.858C702.229 272.479 707.868 268.163 714.599 264.037C718.093 235.272 735.158 218.33 761.988 215.633Z" fill="#FEFEFE"/>
<path d="M758.864 226.641C789.505 223.645 807.964 244.403 817.616 273.436C822.449 273.315 826.304 273.1 830.678 275.717C834.335 277.883 836.954 281.605 837.873 285.952C840.359 297.37 833.045 303.757 823.452 305.78C825.671 326.334 826.818 350.693 813.959 367.888C807.677 376.288 798.638 381.303 788.611 382.391C749.662 383.537 732.77 340.259 726.672 305.791C722.263 305.87 718.349 305.586 714.707 303.005C704.996 296.119 706.488 279.76 717.173 274.834C719.481 273.772 721.245 273.615 723.632 273.284C724.433 248.43 734.619 230.51 758.864 226.641Z" fill="black"/>
<path d="M747.893 305.765C769.717 305.754 792.53 305.392 814.275 305.938C817.472 324.805 816.973 340.853 807.356 357.296C802.33 362.595 796.597 366.758 789.352 367.11C761.879 368.435 749.381 327.99 747.893 305.765Z" fill="#FEDCAA"/>
<path d="M487.584 206.671L487.57 390.046H453.944L453.929 373.098C437.876 395.633 415.93 396.879 392.395 388.589C331.401 358.479 352.677 252.094 422.985 261.314C436.624 263.107 445.271 268.406 453.924 279.755L453.994 206.635L487.584 206.671ZM455.244 320.641C451.932 301.675 434.773 289.17 416.95 292.744C399.189 296.298 387.486 314.475 390.787 333.373C394.087 352.276 411.145 364.77 428.922 361.307C446.763 357.827 458.56 339.607 455.244 320.641Z" fill="#FEFEFE"/>
<path d="M490.545 70.7374C502.168 55.5839 513.204 49.8268 531.564 49.1639C556.595 48.2603 574.071 62.6615 579.052 88.8819C581.415 101.29 580.663 115.177 580.658 128.064L580.624 178.366L547.314 178.356L547.349 130.513C547.354 116.525 549.415 95.8475 539.901 85.1785C532.038 76.3615 514.316 77.4911 506.735 86.4201C496.866 98.0558 498.353 112.192 498.363 126.599L498.408 151.034L498.403 178.363C487.322 178.497 476.025 178.376 464.93 178.358V131.472C464.984 112.426 468.355 79.8425 442.987 79.2537C412.53 78.5462 415.426 111.477 415.43 132.913L415.426 178.37L381.832 178.354L381.834 51.9516L415.431 51.9542L415.438 66.8553C424.921 55.7816 431.327 51.5095 445.34 49.4962C464.554 47.1738 479.949 53.2552 490.545 70.7374Z" fill="#FEFEFE"/>
<path d="M614.705 259.337C649.778 258.092 679.188 287.266 680.463 324.573C681.734 361.874 654.389 393.241 619.32 394.703C584.108 396.169 554.475 366.942 553.195 329.483C551.92 292.029 579.483 260.588 614.705 259.337ZM633.742 297.044C627.925 292.797 620.857 290.935 613.849 291.808C606.149 292.97 597.931 296.497 593.646 303.615C578.741 328.363 589.401 365.607 621.05 362.295C627.519 361.139 633.479 358.568 637.976 353.286C650.554 338.488 649.655 308.851 633.742 297.044Z" fill="#FEFEFE"/>
<path d="M59.6002 208.784C75.267 207.396 95.8695 211.57 108.245 222.341C122.009 234.316 126.892 248.929 128.887 267.086L97.3704 267.133C95.016 249.36 84.907 239.583 67.8262 238.979C54.8419 238.521 37.2091 244.514 37.7127 261.477C38.2445 279.402 55.5951 281.61 68.6783 283.881C99.5845 288.88 131.216 297.223 130.861 337.342C130.522 375.552 98.2521 393.199 66.0407 393.225C30.05 392.773 2.81628 368.808 0.0986328 329.972L30.4622 329.987C35.1132 354.194 50.4015 363.399 73.1518 362.668C80.8071 362.421 90.2568 357.832 95.5226 351.44C101.864 343.739 101.194 328.458 92.2099 322.639C70.0714 311.289 45.0547 317.03 24.1596 299.919C14.7257 292.26 8.53919 280.927 6.96317 268.421C5.41679 255.527 8.42602 241.37 16.1307 231.199C27.407 216.306 42.4457 211.071 59.6002 208.784Z" fill="#FEFEFE"/>
<path d="M780.669 -4.97324C791.581 -5.21294 803.304 -4.98269 814.275 -4.97638L814.3 70.3172C825.296 55.1453 834.864 49.9927 852.798 49.1743C880.163 47.9253 896.813 67.128 899.432 95.1482C900.544 107.039 900.178 118.697 900.178 130.632L900.148 178.378L866.676 178.356V135.79C866.691 132.175 866.646 128.312 866.71 124.731C867.037 106.018 868.302 79.7366 843.908 79.1268C835.452 78.9155 828.587 81.3862 822.429 88.1952C811.942 99.7819 814.25 117.984 814.26 132.896L814.27 178.374C803.19 178.523 791.784 178.375 780.679 178.365L780.669 -4.97324Z" fill="#FEFEFE"/>
<path d="M175.53 49.5186C178.711 48.9509 186.719 49.1572 190.054 49.3848C205.381 50.4303 220.491 58.1393 230.379 70.8184C242.789 86.7319 245.127 103.987 243.377 124.083L153.774 124.084C156.315 154.345 192.141 163.302 206.272 138.125L231.807 138.127L240.47 138.145C238.152 145.86 235.854 151.091 231.115 157.615C221.55 170.627 207.517 179.064 192.103 181.067C174.579 183.32 156.913 179.435 142.54 167.712C115.755 145.862 113.682 99.6223 134.099 72.3487C144.616 58.3002 158.812 51.4935 175.53 49.5186ZM209.802 102.432C207.762 86.5044 195.774 75.8035 180.706 77.8594C165.151 80.555 158.962 86.6527 154.413 102.424L184.364 102.43L209.802 102.432Z" fill="#FEFEFE"/>
<path d="M229.062 263.738C240.044 263.585 251.372 263.732 262.381 263.732L262.392 310.107C262.366 321.077 262.107 330.261 263.18 341.694C265.194 363.162 287.429 370.007 301.369 356.402C311.737 346.278 309.762 325.031 309.756 310.638L309.757 263.727L343.381 263.732L343.371 310.312L343.362 390.045H309.76L309.75 372.651C298.038 390.35 281.571 396.952 261.869 392.006C226.832 383.206 229.028 342.225 229.036 313.513L229.062 263.738Z" fill="#FEFEFE"/>
<path d="M700.148 49.5203C713.14 47.4692 731.144 50.8902 742.2 58.5855C756.537 68.5647 763.396 79.8945 767.187 97.2715L731.965 97.3041C722.14 72.8537 692.73 74.3455 682.465 97.2116C678.165 106.78 678.531 122.133 681.966 132.023C687.481 147.901 704.329 155.612 719.026 148.989C726.355 145.705 729.251 140.302 732.049 132.923L746.277 132.947L767.221 132.985C753.023 202.429 653.331 195.763 645.691 125.846C641.327 85.8761 661.945 54.1446 700.148 49.5203Z" fill="#FEFEFE"/>
<path d="M5.48457 0.0212402L39.103 0.029133L39.0976 150.777L112.795 150.782L112.757 178.389L5.46826 178.364L5.48457 0.0212402Z" fill="#FEFEFE"/>
<path d="M335.643 51.9407L370.998 51.9686L362.476 76.3138C359.927 85.4541 355.293 97.1413 352.197 106.479C344.264 130.407 335.179 154.418 327.525 178.424L286.45 178.394C272.679 136.27 256.794 94.0703 243.018 51.9575L278.081 51.9407C280.515 57.3614 285.73 75.6935 287.838 82.4962L307.184 144.964C308.488 141.264 309.696 137.008 310.805 133.196C318.681 106.112 328.215 79.1309 335.643 51.9407Z" fill="#FEFEFE"/>
<path d="M158.416 229.028C169.44 228.844 180.97 229.022 192.035 229.017L192.034 263.701L221.269 263.727L221.263 293.538L192.036 293.59L191.975 330.282C191.937 362.495 191.292 360.019 220.648 359.851L220.653 380.226L220.65 390.045L205.924 390.087C179.679 390.119 160.359 390.481 158.562 355.908C158.105 347.13 158.373 338.193 158.377 329.409L158.414 293.564L138.128 293.569L138.131 263.722H158.412L158.416 229.028Z" fill="#FEFEFE"/>
<path d="M505.307 263.732H538.947V390.035L505.321 390.05L505.307 263.732Z" fill="#FEFEFE"/>
<path d="M599.364 50.8779L632.961 50.8942L632.951 177.181L599.354 177.207L599.364 50.8779Z" fill="#FEFEFE"/>
<path d="M600.694 -2.18634L632.096 -2.1958L632.081 30.7578L600.709 30.752L600.694 -2.18634Z" fill="#FEFEFE"/>
<path d="M506.651 210.655L538.028 210.65L538.023 243.509L506.685 243.499L506.651 210.655Z" fill="#FEFEFE"/>
</g>
<defs>
<clipPath id="clip0_27_2866">
<rect width="900" height="395" fill="white"/>
</clipPath>
</defs>
</svg>
