<svg width="20" height="20" viewBox="0 0 20 20" fill="none" xmlns="http://www.w3.org/2000/svg">
<path d="M12.6983 9.00833L12.2241 10.42C12.0478 10.9564 11.7481 11.4439 11.349 11.8434C10.95 12.2429 10.4628 12.5431 9.9266 12.72L8.4991 13.1942C8.45084 13.2098 8.40877 13.2403 8.37893 13.2813C8.3491 13.3223 8.33302 13.3718 8.33302 13.4225C8.33302 13.4732 8.3491 13.5226 8.37893 13.5637C8.40877 13.6047 8.45084 13.6352 8.4991 13.6508L9.9266 14.125C10.4579 14.3018 10.9406 14.6001 11.3364 14.9962C11.7322 15.3923 12.0302 15.8752 12.2066 16.4067L12.6799 17.8358C12.6951 17.8845 12.7255 17.9271 12.7665 17.9573C12.8076 17.9875 12.8573 18.0038 12.9083 18.0038C12.9593 18.0038 13.0089 17.9875 13.05 17.9573C13.0911 17.9271 13.1214 17.8845 13.1366 17.8358L13.6283 16.4242C13.8046 15.8928 14.1024 15.4099 14.4981 15.0138C14.8937 14.6178 15.3763 14.3194 15.9074 14.1425L17.3358 13.6683C17.384 13.6527 17.4261 13.6222 17.4559 13.5812C17.4858 13.5401 17.5019 13.4907 17.5019 13.44C17.5019 13.3893 17.4858 13.3398 17.4559 13.2988C17.4261 13.2578 17.384 13.2273 17.3358 13.2117L15.9258 12.72C15.3893 12.5437 14.9017 12.2437 14.5026 11.8441C14.1035 11.4446 13.804 10.9567 13.6283 10.42L13.1541 8.99083C13.1406 8.95564 13.1191 8.92408 13.0913 8.89868C13.0635 8.87328 13.0301 8.85473 12.9938 8.84453C12.9575 8.83433 12.9194 8.83275 12.8824 8.83992C12.8454 8.84709 12.8106 8.86281 12.7808 8.88583C12.7414 8.91764 12.7127 8.95982 12.6983 9.00833ZM5.67327 4.91416L5.3291 5.94C5.20072 6.33011 4.9826 6.68466 4.69227 6.97514C4.40193 7.26562 4.04749 7.48392 3.65744 7.6125L2.6191 7.9575C2.58439 7.9692 2.55423 7.99149 2.53286 8.02124C2.51149 8.05099 2.5 8.0867 2.5 8.12333C2.5 8.15996 2.51149 8.19566 2.53286 8.22542C2.55423 8.25517 2.58439 8.27746 2.6191 8.28916L3.65744 8.635C4.04381 8.76335 4.39491 8.98008 4.6828 9.26797C4.97068 9.55586 5.18742 9.90696 5.31577 10.2933L5.65994 11.3333C5.67164 11.368 5.69393 11.3982 5.72368 11.4196C5.75344 11.4409 5.78914 11.4524 5.82577 11.4524C5.8624 11.4524 5.89811 11.4409 5.92786 11.4196C5.95761 11.3982 5.9799 11.368 5.9916 11.3333L6.34994 10.3067C6.47887 9.9206 6.6958 9.56981 6.98361 9.282C7.27142 8.99419 7.62221 8.77726 8.00827 8.64833L9.04577 8.3025C9.08048 8.2908 9.11065 8.2685 9.13201 8.23875C9.15338 8.209 9.16488 8.17329 9.16488 8.13666C9.16488 8.10003 9.15338 8.06433 9.13201 8.03458C9.11065 8.00483 9.08048 7.98253 9.04577 7.97083L8.02077 7.6125C7.63056 7.4844 7.27597 7.26625 6.98571 6.9757C6.69544 6.68514 6.47764 6.33034 6.34994 5.94L6.00494 4.90083C5.99191 4.86652 5.96842 4.83717 5.9378 4.81694C5.90718 4.79671 5.87098 4.78662 5.8343 4.78809C5.79763 4.78956 5.76235 4.80253 5.73345 4.82516C5.70456 4.84778 5.6835 4.87892 5.67327 4.91416ZM12.2141 2.0625L12.0416 2.57583C11.9778 2.77103 11.869 2.94849 11.724 3.09384C11.5789 3.23919 11.4017 3.34835 11.2066 3.4125L10.6874 3.585C10.6744 3.58923 10.6626 3.59647 10.653 3.60614C10.6433 3.61581 10.636 3.62763 10.6318 3.64063C10.6276 3.65363 10.6265 3.66745 10.6286 3.68095C10.6308 3.69446 10.6361 3.70727 10.6441 3.71833C10.6545 3.73369 10.6698 3.74512 10.6874 3.75083L11.2066 3.92333C11.3998 3.98751 11.5753 4.09587 11.7193 4.23982C11.8632 4.38376 11.9716 4.55931 12.0358 4.7525L12.2074 5.2725C12.2131 5.29016 12.2242 5.30556 12.2392 5.3165C12.2542 5.32743 12.2722 5.33332 12.2908 5.33332C12.3093 5.33332 12.3274 5.32743 12.3424 5.3165C12.3573 5.30556 12.3685 5.29016 12.3741 5.2725L12.5524 4.75916C12.6166 4.56598 12.725 4.39043 12.8689 4.24649C13.0129 4.10254 13.1884 3.99417 13.3816 3.93L13.9008 3.7575C13.9184 3.75184 13.9338 3.74073 13.9448 3.72575C13.9557 3.71077 13.9616 3.69271 13.9616 3.67416C13.9616 3.65562 13.9557 3.63756 13.9448 3.62258C13.9338 3.6076 13.9184 3.59648 13.9008 3.59083L13.3883 3.4125C13.193 3.34846 13.0156 3.23935 12.8704 3.09399C12.7252 2.94864 12.6163 2.77112 12.5524 2.57583L12.3799 2.05583C12.3734 2.03867 12.3617 2.024 12.3464 2.01389C12.3311 2.00377 12.313 1.99872 12.2946 1.99946C12.2763 2.0002 12.2586 2.00668 12.2442 2.01799C12.2297 2.02931 12.2192 2.04487 12.2141 2.0625Z" fill="#C800B4" stroke="#C800B4" stroke-linecap="round" stroke-linejoin="round"/>
</svg>
