<svg preserveAspectRatio="xMidYMid meet" width="100%" height="100%" overflow="visible" style="display: block;" viewBox="0 0 19.4228 21.9998" fill="none" xmlns="http://www.w3.org/2000/svg">
<g id="Group 1">
<path id="Subtract" d="M8.24615 0.0220666C9.47962 -0.0774463 10.7171 0.160934 11.8282 0.710543C13.8287 1.68811 15.5649 3.72177 16.2999 5.82187C19.8183 6.17596 20.5134 10.5 17.6163 12.2184C17.6349 12.5674 17.6496 12.9171 17.6612 13.2662C17.7217 15.1915 17.5853 16.9462 16.6739 18.6686C15.5448 20.8005 13.6317 21.9507 11.2667 21.9996C6.18857 21.9333 3.70383 16.8194 2.61138 12.4967C0.566352 11.8267 -0.430223 10.3265 0.175835 8.09238C0.457269 7.05576 1.19228 6.52184 2.06939 6.01132C2.52478 2.45218 4.74926 0.355736 8.24615 0.0220666ZM15.4961 7.17343C14.2382 3.58132 11.8323 1.01266 7.83892 1.38339C4.67894 1.8621 3.3515 4.07971 3.24712 7.15488C2.93602 7.19586 2.70613 7.21588 2.40533 7.34726C1.01281 7.95674 0.818373 9.98056 2.08404 10.8326C2.55869 11.1518 3.06915 11.1871 3.64361 11.1773C4.43847 15.4422 6.63969 20.7967 11.7159 20.6549C13.0227 20.5202 14.2009 19.9002 15.0196 18.8609C16.6955 16.7335 16.5461 13.7194 16.2569 11.1764C17.5071 10.9259 18.4608 10.135 18.1368 8.72226C18.0169 8.18443 17.6749 7.72361 17.1983 7.45566C16.6284 7.13199 16.1259 7.15848 15.4961 7.17343Z" fill="var(--fill-0, #FEFEFE)"/>
<path id="Vector" d="M6.40903 11.174C9.25343 11.1727 12.2267 11.1278 15.0607 11.1955C15.4775 13.5299 15.4124 15.5156 14.159 17.5502C13.5039 18.2058 12.7568 18.7209 11.8125 18.7645C8.23187 18.9284 6.60291 13.924 6.40903 11.174Z" fill="var(--fill-0, white)"/>
</g>
</svg>
