<svg width="221" height="222" viewBox="0 0 221 222" fill="none" xmlns="http://www.w3.org/2000/svg">
<path d="M110.5 0C81.1936 0 53.0875 11.6946 32.3647 32.5111C11.6419 53.3277 0 81.561 0 111C0 140.439 11.6419 168.672 32.3647 189.489C53.0875 210.305 81.1936 222 110.5 222C139.806 222 167.913 210.305 188.635 189.489C209.358 168.672 221 140.439 221 111C221 81.561 209.358 53.3277 188.635 32.5111C167.913 11.6946 139.806 0 110.5 0ZM13.6283 119.387H44.4456C44.9367 130.61 46.4959 141.759 49.1111 152.687H22.5911C17.6556 142.211 14.6205 130.934 13.6283 119.387ZM118.849 52.7867V14.6767C130.681 19.1934 140.403 27.992 146.106 39.3433C148.627 43.6271 150.837 48.0671 152.736 52.6633L118.849 52.7867ZM158.383 69.4367C161.232 80.327 162.926 91.4887 163.417 102.737H118.849V69.4367H158.383ZM102.151 14.6767V52.7867H68.2644C70.1573 48.1944 72.3729 43.7432 74.8944 39.4667C80.5725 28.0689 90.298 19.2235 102.151 14.6767ZM102.151 69.4367V102.737H57.7056C58.1967 91.4887 59.891 80.327 62.7394 69.4367H102.151ZM44.4456 102.613H13.6283C14.6205 91.0662 17.6556 79.7895 22.5911 69.3133H49.1111C46.481 80.2344 44.9184 91.3873 44.4456 102.613ZM57.7056 119.387H102.151V152.687H62.7394C59.9023 141.795 58.215 130.633 57.7056 119.387ZM102.274 168.72V206.83C90.442 202.313 80.7196 193.515 75.0172 182.163C72.4957 177.887 70.2801 173.436 68.3872 168.843L102.274 168.72ZM118.849 206.83V169.337H152.736C150.843 173.929 148.627 178.38 146.106 182.657C140.403 194.008 130.681 202.807 118.849 207.323V206.83ZM118.849 152.07V118.77H163.294C162.785 130.017 161.098 141.178 158.261 152.07H118.849ZM176.677 118.77H207.494C206.502 130.317 203.467 141.594 198.532 152.07H171.889C174.467 141.34 176.026 130.4 176.554 119.387L176.677 118.77ZM176.677 102.12C176.125 91.0969 174.521 80.1523 171.889 69.4367H198.409C203.357 79.92 206.389 91.1927 207.372 102.737L176.677 102.12ZM188.955 52.7867H166.978C163.005 41.5652 157.241 31.068 149.912 21.7067C165.19 28.5958 178.461 39.2946 188.464 52.7867H188.955ZM71.0883 21.7067C63.7588 31.068 57.9947 41.5652 54.0222 52.7867H32.5361C42.5391 39.2946 55.8101 28.5958 71.0883 21.7067ZM32.4133 169.707H54.0222C57.9947 180.928 63.7588 191.425 71.0883 200.787C55.7678 193.794 42.4927 182.964 32.5361 169.337L32.4133 169.707ZM149.789 200.787C157.118 191.425 162.882 180.928 166.855 169.707H188.464C178.4 183.018 165.134 193.543 149.912 200.293L149.789 200.787Z" fill="#C5FF58"/>
</svg>
