<svg width="207" height="222" viewBox="0 0 207 222" fill="none" xmlns="http://www.w3.org/2000/svg">
<path d="M142.876 89.3712L143.963 89.6134L145.024 89.9704C145.713 90.2567 146.364 90.6279 146.969 91.0668L147.841 91.7807L148.611 92.5839C149.343 93.4348 149.928 94.4076 150.33 95.4652C150.364 95.5567 150.4 95.6528 150.431 95.7457L156.557 114.398L156.57 114.423C158.527 120.457 161.864 125.944 166.31 130.436C170.201 134.367 174.847 137.44 179.953 139.475L182.164 140.278L182.278 140.317L200.368 146.691C201.811 147.163 203.119 147.978 204.183 149.05L205.168 150.197L205.951 151.498C206.635 152.85 207 154.351 207 155.883C207 157.925 206.358 159.918 205.168 161.569C203.986 163.21 202.315 164.417 200.406 165.05L200.418 165.063L181.949 171.246C176.033 173.235 170.654 176.597 166.247 181.05C161.842 185.501 158.521 190.926 156.557 196.897L156.532 196.986L150.228 215.205C149.622 217.167 148.42 218.894 146.78 220.113C145.137 221.333 143.147 222 141.108 222C139.069 222 137.078 221.332 135.436 220.113C133.796 218.894 132.58 217.18 131.974 215.217L125.898 196.668C123.933 190.694 120.604 185.273 116.196 180.82C111.787 176.368 106.412 173.004 100.493 171.016L82.037 164.833C80.1317 164.2 78.4675 162.978 77.2871 161.34C76.097 159.689 75.4553 157.696 75.4553 155.654C75.456 153.614 76.0993 151.63 77.2871 149.98L78.2724 148.82C79.3356 147.75 80.6332 146.933 82.0749 146.462L100.493 140.291C106.469 138.302 111.914 134.916 116.36 130.423C120.805 125.932 124.148 120.454 126.113 114.423L126.125 114.385L132.265 95.9497C132.855 94.1063 133.962 92.5316 135.398 91.36L135.511 91.258C136.694 90.3379 138.075 89.7093 139.541 89.4222C140.644 89.2065 141.773 89.1939 142.876 89.3712ZM138.392 118.541C135.794 126.496 131.384 133.727 125.519 139.654C119.642 145.591 112.458 150.041 104.561 152.67L104.574 152.683L95.6803 155.654L104.574 158.637C112.399 161.266 119.525 165.703 125.355 171.59C131.184 177.479 135.566 184.662 138.164 192.562L141.183 201.742L144.278 192.792L145.34 189.86C147.999 183.112 152 176.972 157.101 171.82C162.928 165.932 170.034 161.497 177.856 158.866L186.977 155.807L178.008 152.645C170.151 150.018 163.001 145.577 157.151 139.666C151.275 133.729 146.867 126.477 144.278 118.503L141.348 109.617L138.392 118.541ZM86.1047 158.866L86.0668 158.892C86.0897 158.885 86.1073 158.862 86.13 158.854L86.1047 158.866ZM50.7078 36.4624C51.6083 36.5689 52.4851 36.8224 53.3101 37.2019L54.5103 37.8648L55.584 38.7063C56.2559 39.3256 56.8258 40.0505 57.2768 40.8481L57.8579 42.0848L57.9464 42.3525L62.4057 55.9175L62.4183 55.943C63.7547 60.0651 66.0385 63.8135 69.0758 66.8818C71.3518 69.1802 74.0028 71.0533 76.9081 72.4149L79.902 73.6005L80.0157 73.6388L93.2801 78.3177L93.2675 78.3304C94.9724 78.9246 96.4587 80.0262 97.5121 81.505C98.5782 83.003 99.1543 84.811 99.1543 86.6556C99.1532 88.4982 98.5771 90.2969 97.5121 91.7935C96.446 93.2906 94.9354 94.4174 93.2043 95.0063L79.7757 99.5194C75.7334 100.882 72.0516 103.172 69.0379 106.213C66.024 109.254 63.7558 112.969 62.4057 117.049L62.3804 117.126L57.7442 130.538L57.7316 130.525C57.1427 132.246 56.0518 133.746 54.586 134.809C53.1031 135.884 51.321 136.465 49.4951 136.466C47.6673 136.466 45.8758 135.885 44.3914 134.809C42.909 133.733 41.8039 132.208 41.2206 130.461L41.208 130.436L36.7486 116.858C35.4053 112.78 33.14 109.073 30.1291 106.034C27.1176 102.995 23.4451 100.709 19.4039 99.3537L5.96265 94.8278H5.93739C4.20745 94.2383 2.70749 93.1117 1.64226 91.615C0.841434 90.4897 0.311711 89.1975 0.101062 87.8413L0 86.4771L0.101062 85.1002C0.312674 83.7482 0.843959 82.4614 1.64226 81.3392L2.51391 80.2811C3.46699 79.3068 4.64036 78.5686 5.93739 78.1265L5.97528 78.1137L19.4039 73.6133C23.4885 72.2545 27.215 69.9389 30.2554 66.869C33.2943 63.7997 35.5815 60.0518 36.9255 55.9303L36.9381 55.892L41.3848 42.5055C41.9202 40.8376 42.9321 39.3562 44.303 38.2728C45.7449 37.1335 47.5137 36.4857 49.3435 36.4114L50.7078 36.4624ZM49.1919 60.0482C47.2134 66.0964 43.8632 71.5941 39.4015 76.0994C34.9328 80.6115 29.4746 83.994 23.4716 85.9926L22.0568 86.4771L23.4843 86.9616L25.6824 87.7775C30.7666 89.8206 35.3938 92.8872 39.2752 96.8039C43.7109 101.28 47.0501 106.745 49.0276 112.753L49.5835 114.474L50.1646 112.829C52.1533 106.862 55.48 101.435 59.8918 96.9824C64.3238 92.5099 69.7379 89.1437 75.6827 87.1401L77.4134 86.5536L75.7459 85.9672C69.7836 83.9701 64.358 80.5979 59.9171 76.1121C55.4495 71.5989 52.0952 66.0847 50.1267 60.0227L49.6593 58.6203L49.1919 60.0482ZM133.2 21.8774C132.362 23.1374 131.439 24.3404 130.37 25.4217C129.289 26.5142 128.082 27.4614 126.82 28.3157C128.058 29.1584 129.244 30.0864 130.307 31.1588C131.396 32.2579 132.337 33.4826 133.187 34.7668C134.024 33.5127 134.963 32.3242 136.029 31.248C137.118 30.1496 138.32 29.1855 139.592 28.3285C138.328 27.4742 137.124 26.5274 136.042 25.4344C134.969 24.3503 134.04 23.1416 133.2 21.8774ZM114.415 23.2034L114.453 23.2161C114.424 23.2062 114.393 23.1872 114.364 23.1779L114.415 23.2034ZM161.206 28.3922C161.206 30.0176 160.69 31.6055 159.741 32.9182C158.793 34.2279 157.456 35.2017 155.926 35.6975L155.913 35.6847L149.268 37.9286C147.726 38.4461 146.325 39.3188 145.175 40.4784C144.027 41.6378 143.162 43.0534 142.649 44.6091L142.611 44.6983L140.312 51.4044L140.299 51.3916C139.795 52.878 138.855 54.1738 137.596 55.1016C136.296 56.0584 134.732 56.5798 133.124 56.5805C131.513 56.5805 129.94 56.0598 128.639 55.1016C127.351 54.1521 126.393 52.8191 125.898 51.2896L123.674 44.5198C123.161 42.9706 122.305 41.5446 121.161 40.3891C120.299 39.52 119.289 38.8167 118.192 38.2983L117.055 37.8393L110.397 35.5955C108.86 35.094 107.522 34.1137 106.582 32.7907C106.558 32.7562 106.531 32.7235 106.507 32.6887C106.495 32.6712 106.481 32.6553 106.469 32.6377C105.834 31.7011 105.407 30.624 105.231 29.5014C105.044 28.308 105.139 27.0808 105.509 25.9317C105.879 24.7841 106.52 23.7379 107.366 22.8846L108.023 22.2854C108.712 21.7365 109.497 21.3168 110.334 21.036L117.055 18.7794H117.08C118.638 18.2619 120.052 17.3758 121.211 16.2041C122.37 15.0318 123.241 13.5966 123.75 12.0224L123.763 11.9714L125.999 5.27813L126.012 5.29087C126.479 3.84939 127.34 2.56997 128.525 1.63188C129.78 0.640551 131.317 0.0648754 132.909 0L134.096 0.0509964C134.882 0.143517 135.65 0.357151 136.37 0.688451L137.406 1.27491L138.341 2.00161C138.926 2.54051 139.426 3.1688 139.819 3.86298L140.324 4.94665L142.649 11.9969V12.0224C143.159 13.5976 144.04 15.0317 145.201 16.2041C146.071 17.0829 147.083 17.8005 148.195 18.3205L149.332 18.7794L149.445 18.8049L156.077 21.138C157.549 21.6469 158.822 22.5966 159.741 23.8663C160.69 25.1791 161.206 26.7667 161.206 28.3922Z" fill="#FFA6F6"/>
</svg>
