<svg width="172" height="172" viewBox="0 0 172 172" fill="none" xmlns="http://www.w3.org/2000/svg">
<path d="M86.0002 14.3333C46.4402 14.3333 14.3335 46.4399 14.3335 85.9999C14.3335 125.56 46.4402 157.667 86.0002 157.667C125.56 157.667 157.667 125.56 157.667 85.9999C157.667 46.4399 125.56 14.3333 86.0002 14.3333ZM119.253 63.0666C118.178 74.3899 113.52 101.91 111.155 114.595C110.152 119.97 108.145 121.762 106.282 121.977C102.125 122.335 98.9718 119.253 94.9585 116.602C88.6518 112.445 85.0685 109.865 78.9768 105.852C71.8818 101.193 76.4685 98.6133 80.5535 94.4566C81.6285 93.3816 99.9752 76.6832 100.333 75.1782C100.383 74.9503 100.377 74.7137 100.314 74.4888C100.252 74.264 100.135 74.0579 99.9752 73.8883C99.5452 73.5299 98.9718 73.6733 98.4702 73.7449C97.8252 73.8883 87.7918 80.5532 68.2268 93.7399C65.3602 95.6749 62.7802 96.6782 60.4868 96.6066C57.9068 96.5349 53.0335 95.1732 49.3785 93.9549C44.8635 92.5216 41.3518 91.7332 41.6385 89.2249C41.7818 87.9349 43.5735 86.6449 46.9418 85.2832C67.8685 76.1816 81.7718 70.1616 88.7235 67.2949C108.647 58.9816 112.732 57.5482 115.455 57.5482C116.028 57.5482 117.39 57.6916 118.25 58.4082C118.967 58.9816 119.182 59.7699 119.253 60.3433C119.182 60.7733 119.325 62.0633 119.253 63.0666Z" fill="white"/>
</svg>
