<svg width="172" height="172" viewBox="0 0 172 172" fill="none" xmlns="http://www.w3.org/2000/svg">
<path fill-rule="evenodd" clip-rule="evenodd" d="M39.0586 33.1314C50.1454 21.3136 66.2202 14.3333 86.1221 14.3333C118.838 14.3333 140.531 33.1888 147.397 59.3184C147.88 61.1574 147.612 63.1128 146.653 64.7545C145.694 66.3962 144.123 67.5897 142.284 68.0725C140.445 68.5553 138.489 68.2878 136.848 67.3288C135.206 66.3699 134.012 64.798 133.53 62.9591C128.319 43.1576 112.345 28.6666 86.1149 28.6666C69.7319 28.6666 57.5916 34.3211 49.5219 42.9282C41.3806 51.6142 36.8441 63.8764 36.8441 77.9374V94.0624C36.8441 108.123 41.3806 120.386 49.5219 129.064C57.5916 137.686 69.7319 143.333 86.1149 143.333C97.9757 143.333 107.386 140.581 114.61 136.131C121.884 131.652 126.22 125.71 127.438 118.895C128.835 111.04 127.115 105.651 124.156 101.759C122.532 99.6656 120.559 97.8688 118.322 96.4489C117.354 101.817 115.627 106.884 113.019 110.854C103.401 125.467 85.0112 126.721 72.8852 121.883C66.3206 119.268 60.6947 112.108 58.9461 104.433C57.8844 100.033 58.238 95.4111 59.9566 91.2244C61.8557 86.6664 65.3746 82.7821 70.3841 79.8294C75.3434 76.8983 82.7107 75.5509 90.0136 75.3503C94.4139 75.2284 99.1869 75.5223 103.989 76.3034C102.985 71.6451 101.287 68.1692 99.3732 66.3847C95.9046 63.1597 90.1569 60.8879 84.3949 60.9238C78.8264 60.9668 74.1036 63.1096 71.2799 67.6246C70.2725 69.2364 68.6661 70.382 66.8141 70.8094C64.962 71.2368 63.0161 70.911 61.4042 69.9036C59.7924 68.8962 58.6468 67.2898 58.2194 65.4377C57.792 63.5857 58.1179 61.6397 59.1252 60.0279C65.1237 50.4389 75.0066 46.6621 84.3017 46.5904C93.4034 46.5259 102.777 49.9731 109.141 55.8927C115.577 61.8841 118.343 71.7096 119.06 80.6464C125.324 83.3769 131.243 87.3831 135.579 93.0949C141.176 100.477 143.584 109.994 141.549 121.41C139.471 133.049 132.125 142.179 122.127 148.336C112.323 154.37 100.226 157.667 86.1149 157.667C66.2202 157.667 50.1382 150.686 39.0657 138.868C28.0577 127.129 22.5107 111.176 22.5107 94.0624V77.9374C22.5107 60.8234 28.0577 44.8704 39.0657 33.1314H39.0586ZM104.634 91.0166C99.959 90.0085 95.181 89.561 90.4006 89.6836C84.0151 89.8556 79.5359 91.0668 77.6654 92.1704C74.9134 93.7973 73.7237 95.4528 73.1934 96.7356C72.6276 98.1739 72.5322 99.7546 72.9211 101.251C73.7954 105.092 76.6836 107.973 78.1957 108.568C86.2654 111.793 96.3632 110.087 101.043 102.978C102.727 100.412 104.067 96.0977 104.626 91.0166H104.634Z" fill="white"/>
</svg>
