<svg preserveAspectRatio="none" width="100%" height="100%" overflow="visible" style="display: block;" viewBox="0 0 44.3725 63.1873" fill="none" xmlns="http://www.w3.org/2000/svg">
<path id="Vector" d="M0 0.0374572C4.0496 -0.045074 8.39998 0.0342028 12.4716 0.0363746L12.4808 25.9602C16.5615 20.7365 20.1123 18.9625 26.7681 18.6807C36.9233 18.2506 43.1022 24.8622 44.0742 34.5096C44.4869 38.6036 44.3512 42.6174 44.3512 46.7268L44.3402 63.1661L31.9181 63.1585V48.5029C31.9236 47.2582 31.9071 45.9281 31.9309 44.695C32.052 38.2521 32.5215 29.2034 23.4686 28.9934C20.3305 28.9207 17.783 29.7713 15.4978 32.1157C11.6059 36.1051 12.4624 42.372 12.4661 47.5063L12.4698 63.1646C8.3578 63.2159 4.1248 63.1648 0.0036717 63.1616L0 0.0374572Z" fill="var(--fill-0, #FEFEFE)"/>
</svg>
