<svg preserveAspectRatio="none" width="100%" height="100%" overflow="visible" style="display: block;" viewBox="0 0 47.262 46.6379" fill="none" xmlns="http://www.w3.org/2000/svg">
<path id="Subtract" d="M22.8419 0.0132417C35.8583 -0.415704 46.7731 9.62935 47.2462 22.4742C47.7173 35.3169 37.5699 46.1163 24.5558 46.6197C11.4883 47.1246 0.491029 37.0617 0.0157779 24.1646C-0.457404 11.2692 9.77082 0.444204 22.8419 0.0132417ZM29.9074 12.9957C27.7488 11.5333 25.1261 10.8926 22.5255 11.1929C19.6682 11.5929 16.6177 12.8069 15.0275 15.2574C9.49598 23.7784 13.4521 36.6017 25.1974 35.4615C27.5982 35.0633 29.8097 34.1779 31.4787 32.3589C36.1462 27.2641 35.8127 17.0608 29.9074 12.9957Z" fill="var(--fill-0, #FEFEFE)"/>
</svg>
