<svg preserveAspectRatio="none" width="100%" height="100%" overflow="visible" style="display: block;" viewBox="0 0 122.461 75.021" fill="none" xmlns="http://www.w3.org/2000/svg">
<path id="Vector" d="M66.919 12.5891C74.0741 3.80399 80.8671 0.466322 92.1686 0.082027C107.577 -0.441846 118.334 7.90721 121.4 23.1084C122.854 30.3018 122.392 38.3531 122.389 45.8241L122.368 74.9864L101.864 74.9806L101.885 47.244C101.888 39.1345 103.157 27.1467 97.3007 20.9614C92.4606 15.8497 81.5516 16.5046 76.885 21.6812C70.8099 28.4269 71.7255 36.6221 71.7316 44.9748L71.759 59.141L71.756 74.9849C64.9355 75.0626 57.9812 74.9922 51.1517 74.9821V47.7999C51.1852 36.7577 53.2599 17.8678 37.6447 17.5265C18.8967 17.1163 20.6794 36.2079 20.6815 48.6355L20.6794 74.9885L0 74.9794L0.00181963 1.69813L20.6822 1.69966L20.6864 10.3385C26.5242 3.91857 30.4671 1.44185 39.0927 0.274638C50.9205 -1.07177 60.3967 2.45392 66.919 12.5891Z" fill="var(--fill-0, #FEFEFE)"/>
</svg>
