<svg preserveAspectRatio="none" width="100%" height="100%" overflow="visible" style="display: block;" viewBox="0 0 19 15" fill="none" xmlns="http://www.w3.org/2000/svg">
<path id="Vector" d="M5.76786 7.5C6.75768 7.5 7.70697 7.10491 8.40688 6.40165C9.10679 5.69839 9.5 4.74456 9.5 3.75C9.5 2.75544 9.10679 1.80161 8.40688 1.09835C7.70697 0.395088 6.75768 0 5.76786 0C4.77803 0 3.82875 0.395088 3.12883 1.09835C2.42892 1.80161 2.03571 2.75544 2.03571 3.75C2.03571 4.74456 2.42892 5.69839 3.12883 6.40165C3.82875 7.10491 4.77803 7.5 5.76786 7.5ZM14.25 7.5C14.9699 7.5 15.6603 7.21266 16.1693 6.7012C16.6783 6.18974 16.9643 5.49604 16.9643 4.77273C16.9643 4.04941 16.6783 3.35572 16.1693 2.84425C15.6603 2.33279 14.9699 2.04545 14.25 2.04545C13.5301 2.04545 12.8397 2.33279 12.3307 2.84425C11.8217 3.35572 11.5357 4.04941 11.5357 4.77273C11.5357 5.49604 11.8217 6.18974 12.3307 6.7012C12.8397 7.21266 13.5301 7.5 14.25 7.5ZM2.03571 8.86364C1.49581 8.86364 0.978017 9.07914 0.596247 9.46274C0.214476 9.84633 0 10.3666 0 10.9091V11.0114C0 11.0114 0 15 5.76786 15C11.5357 15 11.5357 11.0114 11.5357 11.0114V10.9091C11.5357 10.3666 11.3212 9.84633 10.9395 9.46274C10.5577 9.07914 10.0399 8.86364 9.5 8.86364H2.03571ZM14.25 13.6364C13.262 13.6364 12.4803 13.5014 11.8607 13.2866C12.1539 12.8093 12.3222 12.3491 12.4172 11.9775C12.4864 11.7105 12.5302 11.4374 12.5481 11.162L12.5509 11.0891L12.5515 11.0605V10.9091C12.553 10.1542 12.2762 9.42557 11.7746 8.86364H17.3667C17.5811 8.86355 17.7935 8.90591 17.9917 8.98831C18.1898 9.07071 18.3699 9.19153 18.5216 9.34387C18.6732 9.49621 18.7936 9.67709 18.8757 9.87616C18.9577 10.0752 19 10.2886 19 10.5041C19 10.5041 19 13.6364 14.25 13.6364Z" fill="var(--fill-0, #0A0A0A)"/>
</svg>
