<svg preserveAspectRatio="none" width="100%" height="100%" overflow="visible" style="display: block;" viewBox="0 0 19 19" fill="none" xmlns="http://www.w3.org/2000/svg">
<g id="tabler:click">
<path id="Vector (Stroke)" d="M8.94027 8.94027C9.1523 8.72823 9.46602 8.65448 9.75049 8.74931L16.8755 11.1243C17.179 11.2256 17.3915 11.4994 17.4143 11.8186C17.437 12.138 17.2655 12.44 16.9791 12.5832L14.0482 14.0482L12.5832 16.9791C12.44 17.2655 12.138 17.437 11.8186 17.4143C11.4994 17.3915 11.2256 17.179 11.1243 16.8755L8.74931 9.75049C8.65448 9.46602 8.72823 9.1523 8.94027 8.94027ZM5.61511 12.2654C5.92428 11.9563 6.42541 11.9563 6.73458 12.2654C7.04374 12.5746 7.04374 13.0757 6.73458 13.3849L4.99276 15.1267C4.68357 15.4356 4.18235 15.4358 3.87329 15.1267C3.56423 14.8176 3.56444 14.3164 3.87329 14.0072L5.61511 12.2654ZM12.0211 14.5616L12.7502 13.1042C12.8268 12.951 12.951 12.8268 13.1042 12.7502L14.5616 12.0211L10.7509 10.7509L12.0211 14.5616ZM4.75 8.70833C5.18723 8.70833 5.54167 9.06277 5.54167 9.5C5.54167 9.93723 5.18723 10.2917 4.75 10.2917H2.375C1.93777 10.2917 1.58333 9.93723 1.58333 9.5C1.58333 9.06277 1.93777 8.70833 2.375 8.70833H4.75ZM3.87329 3.87329C4.18235 3.56423 4.68357 3.56444 4.99276 3.87329L6.73458 5.61511C7.04374 5.92428 7.04374 6.42541 6.73458 6.73458C6.42541 7.04374 5.92428 7.04374 5.61511 6.73458L3.87329 4.99276C3.56444 4.68357 3.56423 4.18235 3.87329 3.87329ZM14.0072 3.87329C14.3164 3.56444 14.8176 3.56423 15.1267 3.87329C15.4358 4.18235 15.4356 4.68357 15.1267 4.99276L13.3849 6.73458C13.0757 7.04374 12.5746 7.04374 12.2654 6.73458C11.9563 6.42541 11.9563 5.92428 12.2654 5.61511L14.0072 3.87329ZM8.70833 4.75V2.375C8.70833 1.93777 9.06277 1.58333 9.5 1.58333C9.93723 1.58333 10.2917 1.93777 10.2917 2.375V4.75C10.2917 5.18723 9.93723 5.54167 9.5 5.54167C9.06277 5.54167 8.70833 5.18723 8.70833 4.75Z" fill="var(--fill-0, #0A0A0A)"/>
</g>
</svg>
