<svg preserveAspectRatio="none" width="100%" height="100%" overflow="visible" style="display: block;" viewBox="0 0 40.187 40.4648" fill="none" xmlns="http://www.w3.org/2000/svg">
<path id="Subtract" d="M19.4226 0.011489C30.4903 -0.360684 39.7712 8.35499 40.1736 19.4998C40.5741 30.6426 31.9454 40.0122 20.8796 40.449C9.76819 40.8871 0.417311 32.1559 0.0134008 20.9656C-0.38871 9.77704 8.30819 0.385234 19.4226 0.011489ZM25.4294 11.2752C23.594 10.0065 21.3642 9.45107 19.153 9.71168C16.7235 10.0587 14.1302 11.1121 12.778 13.2381C8.0746 20.6313 11.4385 31.7576 21.4255 30.7683C23.4667 30.4228 25.3473 29.6549 26.7663 28.0769C30.7353 23.6564 30.451 14.8022 25.4294 11.2752Z" fill="var(--fill-0, #FEFEFE)"/>
</svg>
