<svg preserveAspectRatio="none" width="100%" height="100%" overflow="visible" style="display: block;" viewBox="0 0 73.8304 44.554" fill="none" xmlns="http://www.w3.org/2000/svg">
<path id="Vector" d="M40.3447 7.47652C44.6584 2.25914 48.7538 0.276943 55.5674 0.0487147C64.8569 -0.262406 71.3421 4.69599 73.1908 13.7237C74.0675 17.9958 73.7887 22.7774 73.7869 27.2143L73.774 44.5334L61.4125 44.53L61.4253 28.0576C61.4272 23.2414 62.192 16.122 58.6614 12.4487C55.7434 9.41293 49.1665 9.80187 46.3531 12.8762C42.6904 16.8824 43.2425 21.7494 43.2461 26.7099L43.2626 35.123L43.2608 44.5325C39.1489 44.5787 34.9562 44.5369 30.8387 44.5309V28.3877C30.8589 21.8299 32.1098 10.6114 22.6955 10.4087C11.3926 10.1651 12.4674 21.5034 12.4687 28.884L12.4674 44.5347L0 44.5293L0.00109703 1.0085L12.469 1.0094L12.4716 6.13991C15.9911 2.32719 18.3683 0.856294 23.5686 0.163104C30.6994 -0.636508 36.4125 1.45735 40.3447 7.47652Z" fill="var(--fill-0, #FEFEFE)"/>
</svg>
