<svg preserveAspectRatio="none" width="100%" height="100%" overflow="visible" style="display: block;" viewBox="0 0 48.5284 63.5926" fill="none" xmlns="http://www.w3.org/2000/svg">
<path id="Vector" d="M22.0817 0.0887395C27.8958 -0.389073 35.5416 1.04799 40.1343 4.75647C45.2422 8.87941 47.0546 13.9109 47.7946 20.1623L36.0986 20.1786C35.2249 14.0593 31.4733 10.6929 25.1345 10.4848C20.3159 10.3273 13.7721 12.3906 13.959 18.2311C14.1564 24.4029 20.5954 25.163 25.4507 25.9449C36.9203 27.6661 48.6592 30.5384 48.5273 44.3516C48.4017 57.5077 36.4258 63.5835 24.4718 63.5926C11.1153 63.4369 1.00855 55.1856 0 41.8141L11.2683 41.8195C12.9943 50.1541 18.668 53.3232 27.1108 53.0716C29.9518 52.9866 33.4587 51.4065 35.4129 49.2057C37.7662 46.5542 37.5177 41.2928 34.1835 39.2893C25.9677 35.3817 16.6837 37.3581 8.92929 31.4669C5.42826 28.8299 3.13239 24.9278 2.54751 20.622C1.97363 16.1823 3.09039 11.3083 5.94968 7.80614C10.1344 2.6787 15.7155 0.876044 22.0817 0.0887395Z" fill="var(--fill-0, #FEFEFE)"/>
</svg>
