<svg preserveAspectRatio="none" width="100%" height="100%" overflow="visible" style="display: block;" viewBox="0 0 69.9021 70.3003" fill="none" xmlns="http://www.w3.org/2000/svg">
<path id="Subtract" d="M33.7841 0.0199598C53.0357 -0.62661 69.1788 14.5148 69.8788 33.8764C70.5759 53.2353 55.5671 69.5144 36.3182 70.2729C16.9906 71.034 0.725898 55.8651 0.0233225 36.4243C-0.676317 16.9865 14.4514 0.669485 33.7841 0.0199598ZM44.2333 19.5893C41.0406 17.3851 37.1617 16.4196 33.3153 16.8725C29.0891 17.4754 24.5783 19.3057 22.2264 22.9995C14.0451 35.8436 19.8958 55.1722 37.2675 53.4536C40.8183 52.8534 44.09 51.5196 46.5585 48.7778C53.4621 41.098 52.968 25.7167 44.2333 19.5893Z" fill="var(--fill-0, #FEFEFE)"/>
</svg>
