<svg preserveAspectRatio="none" width="100%" height="100%" overflow="visible" style="display: block;" viewBox="0 0 65.6289 95.2456" fill="none" xmlns="http://www.w3.org/2000/svg">
<path id="Vector" d="M0 0.0564612C5.98953 -0.0679425 12.4239 0.0515556 18.446 0.0548294L18.4596 39.1312C24.4952 31.2572 29.7469 28.5831 39.5911 28.1583C54.611 27.5101 63.7499 37.4761 65.1876 52.0182C65.798 58.1893 65.5973 64.2395 65.5973 70.4338L65.581 95.2136L47.2082 95.2021V73.1109C47.2163 71.2348 47.1919 69.2298 47.2272 67.3712C47.4062 57.6595 48.1007 44.0198 34.7111 43.7033C30.0697 43.5937 26.3018 44.8759 22.9219 48.4097C17.1656 54.4231 18.4325 63.8696 18.4379 71.6088L18.4433 95.2114C12.3615 95.2886 6.10075 95.2117 0.00543059 95.2068L0 0.0564612Z" fill="var(--fill-0, #FEFEFE)"/>
</svg>
