<svg preserveAspectRatio="none" width="100%" height="100%" overflow="visible" style="display: block;" viewBox="0 0 81.7962 92.2767" fill="none" xmlns="http://www.w3.org/2000/svg">
<path id="Vector" d="M34.7274 0.0924792C39.9222 -0.324928 45.1332 0.676295 49.8125 2.98158C58.238 7.08199 65.5485 15.6129 68.6437 24.4221C83.4628 25.9062 86.3898 44.0403 74.1883 51.2481C74.267 52.7131 74.3294 54.1808 74.3782 55.6458C74.6332 63.7212 74.0581 71.079 70.2197 78.3031C65.4644 87.246 57.4079 92.0721 47.4471 92.2767C26.0605 91.9985 15.5979 70.547 10.9972 52.4157C2.38456 49.6057 -1.81192 43.3146 0.740678 33.9434C1.92611 29.5947 5.02124 27.3549 8.71587 25.2133C10.6337 10.2848 20.0005 1.49202 34.7274 0.0924792Z" fill="var(--fill-0, #FEFEFE)"/>
</svg>
