<svg preserveAspectRatio="none" width="100%" height="100%" overflow="visible" style="display: block;" viewBox="0 0 48.2975 53.732" fill="none" xmlns="http://www.w3.org/2000/svg">
<path id="Vector" d="M18.7948 0.0989738C30.1659 -0.932667 37.0161 6.21461 40.598 16.2107C42.3918 16.169 43.8223 16.0948 45.4455 16.9962C46.8027 17.7418 47.7747 19.0233 48.1158 20.52C49.0384 24.4511 46.324 26.6502 42.7641 27.347C43.5876 34.4237 44.0131 42.8107 39.2408 48.7309C36.9098 51.6231 33.5553 53.3497 29.834 53.7244C15.3798 54.1189 9.11095 39.2181 6.84773 27.3506C5.21175 27.3777 3.75918 27.28 2.40748 26.3913C-1.19644 24.0204 -0.642556 18.388 3.32268 16.6921C4.17918 16.3265 4.83395 16.2722 5.7198 16.1582C6.01692 7.60101 9.79689 1.43106 18.7948 0.0989738Z" fill="var(--fill-0, black)"/>
</svg>
