<svg preserveAspectRatio="none" width="100%" height="100%" overflow="visible" style="display: block;" viewBox="0 0 71.434 80.9932" fill="none" xmlns="http://www.w3.org/2000/svg">
<path id="Vector" d="M27.7983 0.149188C44.6167 -1.40586 54.7484 9.36762 60.0462 24.4352C62.6992 24.3725 64.8151 24.2606 67.2158 25.6192C69.2231 26.7432 70.6608 28.6748 71.1653 30.9309C72.5298 36.8565 68.5151 40.1712 63.2499 41.2215C64.4678 51.8886 65.0972 64.5309 58.0388 73.4546C54.5911 77.8142 49.6297 80.4169 44.1257 80.9816C22.7473 81.5763 13.4755 59.1155 10.1281 41.227C7.70839 41.2679 5.55999 41.1206 3.56077 39.7811C-1.76958 36.2072 -0.950368 27.7172 4.91438 25.1609C6.18118 24.6098 7.14962 24.528 8.45982 24.3561C8.89927 11.4574 14.49 2.15711 27.7983 0.149188Z" fill="var(--fill-0, black)"/>
</svg>
