<svg preserveAspectRatio="none" width="100%" height="100%" overflow="visible" style="display: block;" viewBox="0 0 14.4 16.386" fill="none" xmlns="http://www.w3.org/2000/svg">
<path id="Vector" d="M0 5.783C0 3.057 -1.19209e-07 1.694 0.844 0.847C1.687 1.19209e-07 3.044 0 5.76 0H8.64C11.355 0 12.713 1.19209e-07 13.557 0.847C14.401 1.694 14.4 3.057 14.4 5.783V10.603C14.4 13.329 14.4 14.692 13.557 15.539C12.713 16.386 11.355 16.386 8.64 16.386H5.76C3.045 16.386 1.687 16.386 0.844 15.539C-1.19209e-07 14.692 0 13.329 0 10.603V5.783Z" fill="var(--fill-0, #FF6B00)"/>
</svg>
