<svg preserveAspectRatio="none" width="100%" height="100%" overflow="visible" style="display: block;" viewBox="0 0 109.198 67.1585" fill="none" xmlns="http://www.w3.org/2000/svg">
<path id="Vector" d="M59.6715 11.2698C66.0516 3.40532 72.109 0.41745 82.1864 0.0734303C95.926 -0.395539 105.518 7.07851 108.252 20.6865C109.549 27.1261 109.137 34.3336 109.134 41.0216L109.115 67.1276L90.8316 67.1224L90.8506 42.2927C90.8533 35.0331 91.9845 24.3016 86.7627 18.7645C82.4469 14.1886 72.7193 14.7749 68.5581 19.4089C63.1409 25.4477 63.9574 32.784 63.9629 40.2613L63.9873 52.9428L63.9846 67.1262C57.9028 67.1958 51.7017 67.1328 45.6118 67.1238V42.7903C45.6416 32.9054 47.4917 15.9952 33.5677 15.6896C16.8502 15.3224 18.4398 32.4132 18.4417 43.5383L18.4398 67.1295L0 67.1213L0.00162256 1.52016L18.4422 1.52153L18.446 9.25502C23.6516 3.50789 27.1674 1.29074 34.8589 0.245855C45.4056 -0.959443 53.8556 2.19674 59.6715 11.2698Z" fill="var(--fill-0, #FEFEFE)"/>
</svg>
