<svg preserveAspectRatio="none" width="100%" height="100%" overflow="visible" style="display: block;" viewBox="0 0 45.8295 45.6288" fill="none" xmlns="http://www.w3.org/2000/svg">
<path id="Subtract" d="M20.4602 0.125811C21.641 -0.0695595 24.6123 0.00155752 25.8498 0.0799128C31.5378 0.439892 37.1451 3.09354 40.8147 7.45882C45.42 12.9379 46.2883 18.8794 45.6389 25.7987H12.3859C13.3288 36.2176 26.6243 39.3019 31.8684 30.6336H41.3449L44.5598 30.6395C43.6996 33.2958 42.8468 35.0974 41.0881 37.3436C37.5385 41.8235 32.3307 44.7288 26.6106 45.4188C20.1072 46.1943 13.5508 44.8566 8.217 40.8201C-1.72351 33.2973 -2.49256 17.3766 5.08419 7.98616C8.98706 3.14922 14.2561 0.805789 20.4602 0.125811ZM33.1789 18.3436C32.4216 12.8598 27.9728 9.17588 22.3811 9.88362C16.6083 10.8117 14.3111 12.9108 12.6233 18.3407L23.7385 18.3426L33.1789 18.3436Z" fill="var(--fill-0, #FEFEFE)"/>
</svg>
