<svg preserveAspectRatio="none" width="100%" height="100%" overflow="visible" style="display: block;" viewBox="0 0 71.7756 95.8564" fill="none" xmlns="http://www.w3.org/2000/svg">
<path id="Vector" d="M32.6597 0.133762C41.2591 -0.58647 52.5676 1.57969 59.3603 7.16968C66.915 13.3844 69.5957 20.9687 70.6902 30.3917L53.3914 30.4162C52.0991 21.1924 46.5504 16.118 37.1749 15.8043C30.048 15.5669 20.3695 18.677 20.646 27.4808C20.9378 36.7838 30.4614 37.9296 37.6426 39.1081C54.6067 41.7026 71.969 46.0322 71.7739 66.8535C71.5881 86.6844 53.8753 95.8428 36.1948 95.8564C16.44 95.6218 1.49168 83.1842 0 63.0286L16.6662 63.0368C19.2191 75.5999 27.6107 80.3769 40.0981 79.9977C44.3 79.8695 49.4868 77.4878 52.3771 74.1703C55.8577 70.1736 55.4902 62.2429 50.5589 59.2228C38.4073 53.3327 24.6759 56.3119 13.2068 47.4317C8.02862 43.4568 4.63293 37.5749 3.76787 31.0847C2.91908 24.3925 4.57081 17.0456 8.79983 11.7666C14.9893 4.03775 23.2439 1.32051 32.6597 0.133762Z" fill="var(--fill-0, #FEFEFE)"/>
</svg>
