<svg preserveAspectRatio="none" width="100%" height="100%" overflow="visible" style="display: block;" viewBox="0 0 41.2637 55.1759" fill="none" xmlns="http://www.w3.org/2000/svg">
<path id="Vector" d="M18.776 0.0769946C23.7198 -0.337578 30.221 0.909287 34.1262 4.12694C38.4694 7.70419 40.0105 12.0698 40.6397 17.4938L30.6947 17.5079C29.9517 12.1985 26.7618 9.27769 21.3718 9.0971C17.2746 8.96048 11.7104 10.7507 11.8693 15.8182C12.0371 21.1731 17.5122 21.8326 21.6407 22.511C31.3933 24.0044 41.3749 26.4966 41.2627 38.4815C41.1559 49.8964 30.9729 55.168 20.8084 55.1759C9.45133 55.0408 0.857568 47.8816 0 36.2799L9.5814 36.2846C11.049 43.516 15.8733 46.2657 23.0523 46.0474C25.468 45.9736 28.4499 44.6027 30.1116 42.6932C32.1125 40.3926 31.9012 35.8276 29.0662 34.0892C22.0803 30.6988 14.1861 32.4137 7.59257 27.3022C4.61564 25.0142 2.66347 21.6285 2.16614 17.8926C1.67818 14.0406 2.62775 9.8116 5.05901 6.77297C8.61731 2.32417 13.3629 0.760097 18.776 0.0769946Z" fill="var(--fill-0, #FEFEFE)"/>
</svg>
