<svg preserveAspectRatio="none" width="100%" height="100%" overflow="visible" style="display: block;" viewBox="0 0 78.3932 78.5305" fill="none" xmlns="http://www.w3.org/2000/svg">
<path id="Subtract" d="M37.8885 0.0222966C59.4784 -0.699972 77.5821 16.2142 78.367 37.8426C79.1488 59.4679 62.3171 77.6526 40.7303 78.4998C19.0553 79.3501 0.814242 62.4059 0.0261697 40.6893C-0.758693 18.9756 16.2075 0.747794 37.8885 0.0222966ZM49.6072 21.8826C46.0268 19.4203 41.6767 18.3417 37.3631 18.8475C32.6235 19.521 27.5641 21.5658 24.9266 25.6922C15.7516 40.04 22.3132 61.6315 41.7947 59.7117C45.7769 59.0413 49.4463 57.5509 52.2146 54.4881C59.9566 45.9092 59.4027 28.7274 49.6072 21.8826Z" fill="var(--fill-0, #FEFEFE)"/>
</svg>
