<svg preserveAspectRatio="none" width="100%" height="100%" overflow="visible" style="display: block;" viewBox="0 0 71.434 80.203" fill="none" xmlns="http://www.w3.org/2000/svg">
<path id="Vector" d="M27.7983 0.147733C44.6167 -1.39214 54.7484 9.27623 60.0462 24.1968C62.6992 24.1347 64.8151 24.0239 67.2158 25.3693C69.2231 26.4823 70.6608 28.395 71.1653 30.6292C72.5298 36.4969 68.5151 39.7793 63.2499 40.8194C64.4678 51.3824 65.0972 63.9013 58.0388 72.738C54.5911 77.0551 49.6297 79.6323 44.1257 80.1915C22.7473 80.7805 13.4755 58.5387 10.1281 40.8248C7.70839 40.8653 5.55999 40.7194 3.56077 39.3929C-1.76958 35.8539 -0.950368 27.4468 4.91438 24.9154C6.18118 24.3697 7.14962 24.2887 8.45982 24.1185C8.89927 11.3456 14.49 2.13606 27.7983 0.147733Z" fill="var(--fill-0, black)"/>
</svg>
