<svg preserveAspectRatio="none" width="100%" height="100%" overflow="visible" style="display: block;" viewBox="0 0 20 20" fill="none" xmlns="http://www.w3.org/2000/svg">
<g id="majesticons:iphone-x-apps">
<path id="Vector" d="M8.33333 2.5H6.66667C6.22464 2.5 5.80072 2.67559 5.48816 2.98816C5.17559 3.30072 5 3.72464 5 4.16667V15.8333C5 16.2754 5.17559 16.6993 5.48816 17.0118C5.80072 17.3244 6.22464 17.5 6.66667 17.5H13.3333C13.7754 17.5 14.1993 17.3244 14.5118 17.0118C14.8244 16.6993 15 16.2754 15 15.8333V4.16667C15 3.72464 14.8244 3.30072 14.5118 2.98816C14.1993 2.67559 13.7754 2.5 13.3333 2.5H11.6667M8.33333 2.5H11.6667M8.33333 2.5V3.33333M11.6667 2.5V3.33333M8.33333 3.33333C8.33333 3.55435 8.42113 3.76631 8.57741 3.92259C8.73369 4.07887 8.94565 4.16667 9.16667 4.16667H10.8333C11.0543 4.16667 11.2663 4.07887 11.4226 3.92259C11.5789 3.76631 11.6667 3.55435 11.6667 3.33333M8.33333 3.33333H11.6667" stroke="var(--stroke-0, #FFD900)" stroke-linecap="round" stroke-linejoin="round"/>
</g>
</svg>
