<svg preserveAspectRatio="none" width="100%" height="100%" overflow="visible" style="display: block;" viewBox="0 0 76.0158 76.831" fill="none" xmlns="http://www.w3.org/2000/svg">
<path id="Subtract" d="M33.9359 0.211837C35.8941 -0.117267 40.8234 0.00274019 42.8764 0.134689C52.3112 0.740843 61.612 5.20985 67.6986 12.5605C75.3374 21.7862 76.7768 31.7897 75.6996 43.4404L20.5443 43.4413C22.1084 60.9849 44.1617 66.1782 52.8598 51.582H68.5785L73.9106 51.5927C72.4838 56.0655 71.0691 59.0986 68.1518 62.8808C62.2641 70.4243 53.626 75.3157 44.1381 76.4775C33.351 77.7833 22.4764 75.5309 13.6293 68.7343C-2.85877 56.0672 -4.13432 29.26 8.43301 13.4482C14.9066 5.3036 23.6454 1.3568 33.9359 0.211837ZM55.0326 30.8876C53.7764 21.654 46.3975 15.4506 37.1225 16.6425C27.5471 18.2053 23.7376 21.7405 20.9379 30.8837L39.3734 30.8866L55.0326 30.8876Z" fill="var(--fill-0, #FEFEFE)"/>
</svg>
