<svg preserveAspectRatio="none" width="100%" height="100%" overflow="visible" style="display: block;" viewBox="0 0 69.9021 69.6143" fill="none" xmlns="http://www.w3.org/2000/svg">
<path id="Subtract" d="M33.7841 0.0197649C53.0357 -0.620498 69.1789 14.3734 69.8788 33.5461C70.576 52.7162 55.5671 68.836 36.3183 69.5871C16.9907 70.3409 0.725965 55.3207 0.0233366 36.0696C-0.676521 16.8213 14.4512 0.662954 33.7841 0.0197649ZM44.2333 19.3987C41.0406 17.2159 37.1618 16.2588 33.3153 16.7073C29.089 17.3043 24.5783 19.1177 22.2265 22.7756C14.0452 35.4944 19.8959 54.6346 37.2675 52.9329C40.8183 52.3385 44.09 51.017 46.5585 48.302C53.4621 40.6971 52.968 25.4663 44.2333 19.3987Z" fill="var(--fill-0, #FEFEFE)"/>
</svg>
