<svg preserveAspectRatio="none" width="100%" height="100%" overflow="visible" style="display: block;" viewBox="0 0 81.7962 91.3765" fill="none" xmlns="http://www.w3.org/2000/svg">
<path id="Vector" d="M34.7274 0.091577C39.9222 -0.321758 45.1332 0.669697 49.8125 2.95249C58.238 7.0129 65.5485 15.4606 68.6437 24.1839C83.4628 25.6535 86.3898 43.6106 74.1883 50.7481C74.267 52.1988 74.3294 53.6522 74.3782 55.1029C74.6332 63.0995 74.0581 70.3855 70.2197 77.5392C65.4644 86.3948 57.4079 91.1739 47.4471 91.3765C26.0605 91.1009 15.5979 69.8587 10.9972 51.9043C2.38456 49.1218 -1.81192 42.892 0.740678 33.6122C1.92611 29.306 5.02124 27.088 8.71587 24.9673C10.6337 10.1845 20.0005 1.47746 34.7274 0.091577Z" fill="var(--fill-0, #FEFEFE)"/>
</svg>
