<svg preserveAspectRatio="none" width="100%" height="100%" overflow="visible" style="display: block;" viewBox="0 0 22.518 14.2121" fill="none" xmlns="http://www.w3.org/2000/svg">
<path id="Vector" d="M20.3287 0.720693H14.625V2.30694H20.3513L20.3287 0.720693ZM19.125 11.6332C18.6923 11.9199 18.1813 12.0653 17.6625 12.0494C17.3191 12.0852 16.972 12.0498 16.6429 11.9452C16.3138 11.8407 16.0098 11.6694 15.75 11.4419C15.2707 10.8967 15.0207 10.1872 15.0525 9.46194H22.5C22.5531 8.70656 22.4886 7.94752 22.3087 7.21194C22.1337 6.5124 21.8284 5.85212 21.4088 5.26569C20.985 4.69792 20.4391 4.23269 19.8113 3.90444C19.1116 3.56089 18.3406 3.38744 17.5613 3.39819C16.8282 3.39343 16.1015 3.53494 15.4238 3.81444C14.8032 4.07573 14.2409 4.4582 13.77 4.93944C13.3002 5.43007 12.9364 6.01215 12.7012 6.64944C12.4489 7.33744 12.3231 8.06541 12.33 8.79819C12.3179 9.54141 12.4399 10.2807 12.69 10.9807C12.9031 11.6142 13.2396 12.1992 13.68 12.7019C14.1366 13.1949 14.6979 13.5793 15.3225 13.8269C16.019 14.0923 16.7598 14.2221 17.505 14.2094C18.5506 14.242 19.5829 13.9683 20.475 13.4219C21.3767 12.7824 22.0256 11.8468 22.3087 10.7782H19.8225C19.6894 11.1316 19.4445 11.4318 19.125 11.6332ZM15.2662 6.99819C15.3538 6.71771 15.4992 6.45868 15.6929 6.23779C15.8867 6.0169 16.1246 5.83905 16.3912 5.71569C16.7447 5.55745 17.1291 5.48057 17.5162 5.49069C17.7959 5.4668 18.0775 5.5037 18.3416 5.59885C18.6057 5.694 18.8461 5.84516 19.0463 6.04194C19.429 6.50956 19.6744 7.0743 19.755 7.67319H15.0862C15.1045 7.44457 15.1459 7.2184 15.21 6.99819H15.2662ZM9.315 6.45819C9.88758 6.21976 10.3851 5.83107 10.755 5.33319C11.0964 4.80505 11.2654 4.18398 11.2387 3.55569C11.26 2.98295 11.1483 2.41307 10.9125 1.89069C10.7137 1.43835 10.3946 1.04922 9.99 0.765693C9.56166 0.469665 9.0742 0.270076 8.56125 0.180693C7.95473 0.0531111 7.33599 -0.00725291 6.71625 0.000693507H0V14.1532H6.8625C7.48874 14.153 8.11244 14.0737 8.71875 13.9169C9.29296 13.7672 9.83714 13.5199 10.3275 13.1857C10.8029 12.8579 11.1895 12.4172 11.4525 11.9032C11.7454 11.3294 11.8885 10.6909 11.8688 10.0469C11.8901 9.24902 11.6663 8.46375 11.2275 7.79694C10.7557 7.12636 10.0558 6.65048 9.25875 6.45819H9.315ZM3.11625 2.41944H6.03C6.29773 2.41814 6.56504 2.44073 6.82875 2.48694C7.072 2.52174 7.30554 2.60597 7.515 2.73444C7.71789 2.84921 7.88229 3.02144 7.9875 3.22944C8.11882 3.4785 8.18098 3.75821 8.1675 4.03944C8.18846 4.28159 8.15143 4.52524 8.05948 4.75022C7.96753 4.97521 7.82331 5.17505 7.63875 5.33319C7.23613 5.60998 6.75437 5.74819 6.26625 5.72694H3.11625V2.41944ZM8.56125 10.7894C8.44477 11.0181 8.27018 11.2121 8.055 11.3519C7.83034 11.4917 7.5828 11.5907 7.32375 11.6444C7.03587 11.7092 6.74129 11.7394 6.44625 11.7344H3.07125V7.85319H6.44625C7.02542 7.82783 7.59737 7.98956 8.0775 8.31444C8.29441 8.5091 8.46244 8.7521 8.56798 9.02377C8.67353 9.29544 8.71361 9.58815 8.685 9.87819C8.71418 10.1874 8.67184 10.4992 8.56125 10.7894Z" fill="var(--fill-0, white)"/>
</svg>
