<svg preserveAspectRatio="none" width="100%" height="100%" overflow="visible" style="display: block;" viewBox="0 0 47.0245 53.1154" fill="none" xmlns="http://www.w3.org/2000/svg">
<path id="Vector" d="M19.9648 0.0532319C22.9512 -0.187032 25.947 0.389282 28.6371 1.71623C33.4809 4.07647 37.6838 8.98695 39.4632 14.0576C47.9827 14.9119 49.6654 25.35 42.6508 29.4989C42.696 30.3422 42.7319 31.187 42.7599 32.0303C42.9065 36.6785 42.5759 40.9137 40.3692 45.072C37.6354 50.2196 33.0037 52.9976 27.2773 53.1154C14.9822 52.9552 8.96719 40.6075 6.32228 30.171C1.37088 28.5535 -1.04167 24.9323 0.425815 19.5381C1.10732 17.035 2.88671 15.7457 5.01074 14.513C6.11331 5.92006 11.4983 0.858822 19.9648 0.0532319Z" fill="var(--fill-0, #FEFEFE)"/>
</svg>
