<svg preserveAspectRatio="none" width="100%" height="100%" overflow="visible" style="display: block;" viewBox="0 0 17.5 21.5" fill="none" xmlns="http://www.w3.org/2000/svg">
<g id="Group">
<path id="Vector" d="M7.75 8.75C9.95914 8.75 11.75 6.95914 11.75 4.75C11.75 2.54086 9.95914 0.75 7.75 0.75C5.54086 0.75 3.75 2.54086 3.75 4.75C3.75 6.95914 5.54086 8.75 7.75 8.75Z" stroke="var(--stroke-0, white)" stroke-width="1.5"/>
<path id="Vector_2" d="M12.75 20.75C14.9591 20.75 16.75 18.9591 16.75 16.75C16.75 14.5409 14.9591 12.75 12.75 12.75C10.5409 12.75 8.75 14.5409 8.75 16.75C8.75 18.9591 10.5409 20.75 12.75 20.75Z" stroke="var(--stroke-0, white)" stroke-width="1.5"/>
<path id="Vector_3" d="M11.417 16.75L12.25 17.75L14.083 15.861" stroke="var(--stroke-0, white)" stroke-width="1.5" stroke-linecap="round" stroke-linejoin="round"/>
<path id="Vector_4" d="M9.75 19.584C9.116 19.692 8.445 19.75 7.75 19.75C3.884 19.75 0.75 17.96 0.75 15.75C0.75 13.54 3.884 11.75 7.75 11.75C9.463 11.75 11.033 12.102 12.25 12.686" stroke="var(--stroke-0, white)" stroke-width="1.5"/>
</g>
</svg>
