<svg preserveAspectRatio="none" width="100%" height="100%" overflow="visible" style="display: block;" viewBox="0 0 80.4932 107.079" fill="none" xmlns="http://www.w3.org/2000/svg">
<path id="Vector" d="M36.6265 0.149422C46.2703 -0.65513 58.9523 1.76463 66.5701 8.00905C75.0424 14.9514 78.0486 23.4235 79.2761 33.9498L59.8762 33.9772C58.4269 23.6734 52.2043 18.005 41.6901 17.6545C33.6975 17.3894 22.8436 20.8636 23.1536 30.698C23.4809 41.0901 34.1612 42.3701 42.2146 43.6866C61.2391 46.5849 80.7101 51.4213 80.4914 74.6802C80.283 96.8328 60.4189 107.063 40.591 107.079C18.4368 106.817 1.67286 92.9228 0 70.4075L18.6905 70.4167C21.5534 84.4506 30.9642 89.7869 44.9683 89.3633C49.6805 89.22 55.4974 86.5595 58.7387 82.8537C62.6421 78.3891 62.2299 69.5298 56.6996 66.1562C43.0721 59.5765 27.6729 62.9045 14.8109 52.9847C9.00376 48.5444 5.19563 41.974 4.2255 34.7238C3.27362 27.2482 5.12597 19.0412 9.86863 13.1442C16.8098 4.51046 26.067 1.4751 36.6265 0.149422Z" fill="var(--fill-0, #FEFEFE)"/>
</svg>
