<svg preserveAspectRatio="none" width="100%" height="100%" overflow="visible" style="display: block;" viewBox="0 0 80.1102 90.4753" fill="none" xmlns="http://www.w3.org/2000/svg">
<path id="Vector" d="M31.1746 0.166654C50.0357 -1.57045 61.398 10.4643 67.3393 27.2959C70.3145 27.2258 72.6873 27.1009 75.3796 28.6185C77.6308 29.8741 79.2431 32.0318 79.8089 34.5521C81.3391 41.1714 76.8368 44.8742 70.932 46.0475C72.2979 57.9634 73.0037 72.0857 65.0881 82.0542C61.2216 86.9242 55.6576 89.8315 49.4851 90.4624C25.5102 91.1267 15.1122 66.0363 11.3582 46.0536C8.64464 46.0993 6.23529 45.9347 3.99325 44.4383C-1.98451 40.4461 -1.0658 30.9621 5.51126 28.1066C6.93193 27.491 8.01799 27.3995 9.48733 27.2076C9.98016 12.7988 16.2499 2.40965 31.1746 0.166654Z" fill="var(--fill-0, black)"/>
</svg>
