<svg preserveAspectRatio="none" width="100%" height="100%" overflow="visible" style="display: block;" viewBox="0 0 62.778 38.6571" fill="none" xmlns="http://www.w3.org/2000/svg">
<path id="Vector" d="M34.3051 6.48698C37.973 1.96013 41.4553 0.240288 47.2489 0.0422672C55.1477 -0.227676 60.6621 4.07446 62.2341 11.9074C62.9795 15.614 62.7425 19.7627 62.7409 23.6124L62.73 38.6393L52.219 38.6363L52.2299 24.3441C52.2315 20.1654 52.8818 13.9882 49.8798 10.801C47.3986 8.1671 41.8062 8.50457 39.414 11.172C36.2997 14.6479 36.7691 18.8708 36.7722 23.1748L36.7862 30.4744L36.7846 38.6385C33.2882 38.6785 29.7232 38.6423 26.2222 38.6371V24.6305C26.2393 18.9407 27.3029 9.20699 19.298 9.03111C9.68713 8.81974 10.601 18.6574 10.6021 25.0611L10.601 38.6404L0 38.6357L0.000932805 0.875021L10.6024 0.875807L10.6046 5.32728C13.5973 2.01918 15.6185 0.742961 20.0403 0.141516C26.1037 -0.552265 30.9615 1.26447 34.3051 6.48698Z" fill="var(--fill-0, #FEFEFE)"/>
</svg>
