<svg preserveAspectRatio="none" width="100%" height="100%" overflow="visible" style="display: block;" viewBox="0 0 71.7756 94.9212" fill="none" xmlns="http://www.w3.org/2000/svg">
<path id="Vector" d="M32.6597 0.132457C41.2591 -0.580749 52.5676 1.56428 59.3603 7.09973C66.915 13.2538 69.5957 20.7641 70.6902 30.0952L53.3914 30.1195C52.0991 20.9856 46.5504 15.9608 37.1749 15.6501C30.048 15.4151 20.3695 18.4948 20.646 27.2126C20.9378 36.4249 30.4614 37.5595 37.6426 38.7266C54.6067 41.2957 71.969 45.5831 71.7739 66.2012C71.5881 85.8387 53.8753 94.9077 36.1948 94.9212C16.44 94.6889 1.49168 82.3726 0 62.4137L16.6662 62.4218C19.2191 74.8623 27.6107 79.5927 40.0981 79.2172C44.3 79.0902 49.4868 76.7318 52.3771 73.4467C55.8577 69.489 55.4902 61.6356 50.5589 58.645C38.4073 52.8124 24.6759 55.7625 13.2068 46.969C8.02862 43.0328 4.63293 37.2084 3.76787 30.7814C2.91908 24.1545 4.57081 16.8793 8.79983 11.6518C14.9893 3.99836 23.2439 1.30762 32.6597 0.132457Z" fill="var(--fill-0, #FEFEFE)"/>
</svg>
