<svg preserveAspectRatio="none" width="100%" height="100%" overflow="visible" style="display: block;" viewBox="0 0 29.098 36.3567" fill="none" xmlns="http://www.w3.org/2000/svg">
<g id="Group">
<g id="Vector">
</g>
<path id="Vector_2" fill-rule="evenodd" clip-rule="evenodd" d="M3.84833 4.37167C6.42667 1.62333 10.165 0 14.7933 0C22.4017 0 27.4467 4.385 29.0433 10.4617C29.1556 10.8893 29.0934 11.3441 28.8704 11.7259C28.6474 12.1077 28.2818 12.3852 27.8542 12.4975C27.4265 12.6098 26.9718 12.5476 26.59 12.3246C26.2082 12.1015 25.9306 11.736 25.8183 11.3083C24.6067 6.70333 20.8917 3.33333 14.7917 3.33333C10.9817 3.33333 8.15833 4.64833 6.28167 6.65C4.38833 8.67 3.33333 11.5217 3.33333 14.7917V18.5417C3.33333 21.8117 4.38833 24.6633 6.28167 26.6817C8.15833 28.6867 10.9817 30 14.7917 30C17.55 30 19.7383 29.36 21.4183 28.325C23.11 27.2833 24.1183 25.9017 24.4017 24.3167C24.7267 22.49 24.3267 21.2367 23.6383 20.3317C23.2608 19.8447 22.8018 19.4269 22.2817 19.0967C22.0567 20.345 21.655 21.5233 21.0483 22.4467C18.8117 25.845 14.535 26.1367 11.715 25.0117C10.1883 24.4033 8.88 22.7383 8.47333 20.9533C8.22643 19.9302 8.30867 18.8553 8.70833 17.8817C9.15 16.8217 9.96833 15.9183 11.1333 15.2317C12.2867 14.55 14 14.2367 15.6983 14.19C16.7217 14.1617 17.8317 14.23 18.9483 14.4117C18.715 13.3283 18.32 12.52 17.875 12.105C17.0683 11.355 15.7317 10.8267 14.3917 10.835C13.0967 10.845 11.9983 11.3433 11.3417 12.3933C11.1074 12.7682 10.7338 13.0346 10.3031 13.134C9.87239 13.2334 9.41984 13.1576 9.045 12.9233C8.67016 12.6891 8.40374 12.3155 8.30434 11.8848C8.20495 11.4541 8.28073 11.0015 8.515 10.6267C9.91 8.39667 12.2083 7.51833 14.37 7.50167C16.4867 7.48667 18.6667 8.28833 20.1467 9.665C21.6433 11.0583 22.2867 13.3433 22.4533 15.4217C23.91 16.0567 25.2867 16.9883 26.295 18.3167C27.5967 20.0333 28.1567 22.2467 27.6833 24.9017C27.2 27.6083 25.4917 29.7317 23.1667 31.1633C20.8867 32.5667 18.0733 33.3333 14.7917 33.3333C10.165 33.3333 6.425 31.71 3.85 28.9617C1.29 26.2317 0 22.5217 0 18.5417V14.7917C0 10.8117 1.29 7.10167 3.85 4.37167H3.84833ZM19.0983 17.8333C18.0112 17.5989 16.9001 17.4948 15.7883 17.5233C14.3033 17.5633 13.2617 17.845 12.8267 18.1017C12.1867 18.48 11.91 18.865 11.7867 19.1633C11.6551 19.4978 11.6329 19.8654 11.7233 20.2133C11.9267 21.1067 12.5983 21.7767 12.95 21.915C14.8267 22.665 17.175 22.2683 18.2633 20.615C18.655 20.0183 18.9667 19.015 19.0967 17.8333H19.0983Z" fill="var(--fill-0, white)" fill-opacity="0.8"/>
</g>
</svg>
