<svg preserveAspectRatio="none" width="100%" height="100%" overflow="visible" style="display: block;" viewBox="0 0 37.7299 54.8243" fill="none" xmlns="http://www.w3.org/2000/svg">
<path id="Vector" d="M0 0.0324996C3.44337 -0.0391084 7.1425 0.0296759 10.6046 0.0315603L10.6124 22.5243C14.0823 17.992 17.1015 16.4527 22.7609 16.2082C31.3958 15.8351 36.6498 21.5716 37.4763 29.9422C37.8272 33.4943 37.7118 36.9769 37.7118 40.5424L37.7024 54.8059L27.1399 54.7993V42.0834C27.1446 41.0034 27.1306 39.8494 27.1508 38.7795C27.2538 33.1894 27.653 25.3382 19.9553 25.1561C17.287 25.0929 15.1209 25.831 13.1778 27.8651C9.8685 31.3265 10.5968 36.764 10.5999 41.2187L10.603 54.8046C7.10663 54.849 3.50731 54.8048 0.00312204 54.8019L0 0.0324996Z" fill="var(--fill-0, #FEFEFE)"/>
</svg>
