<svg preserveAspectRatio="none" width="100%" height="100%" overflow="visible" style="display: block;" viewBox="0 0 65.6289 94.3164" fill="none" xmlns="http://www.w3.org/2000/svg">
<path id="Vector" d="M0 0.0559104C5.98953 -0.0672796 12.4239 0.0510526 18.446 0.0542945L18.4596 38.7495C24.4952 30.9523 29.7469 28.3043 39.5911 27.8836C54.611 27.2417 63.7499 37.1104 65.1876 51.5107C65.798 57.6216 65.5973 63.6128 65.5973 69.7466L65.581 94.2847L47.2082 94.2733V72.3976C47.2163 70.5398 47.1919 68.5544 47.2272 66.7139C47.4062 57.0969 48.1007 43.5903 34.7111 43.277C30.0697 43.1684 26.3018 44.4381 22.9219 47.9374C17.1656 53.8921 18.4325 63.2465 18.4379 70.9102L18.4433 94.2825C12.3615 94.359 6.10075 94.2828 0.00543059 94.2779L0 0.0559104Z" fill="var(--fill-0, #FEFEFE)"/>
</svg>
