<svg preserveAspectRatio="none" width="100%" height="100%" overflow="visible" style="display: block;" viewBox="0 0 22.5 22.5" fill="none" xmlns="http://www.w3.org/2000/svg">
<path id="Vector" d="M11.25 0C5.04 0 0 5.04 0 11.25C0 17.46 5.04 22.5 11.25 22.5C17.46 22.5 22.5 17.46 22.5 11.25C22.5 5.04 17.46 0 11.25 0ZM16.47 7.65C16.3012 9.4275 15.57 13.7475 15.1988 15.7387C15.0413 16.5825 14.7262 16.8638 14.4337 16.8975C13.7812 16.9538 13.2863 16.47 12.6562 16.0538C11.6663 15.4013 11.1038 14.9963 10.1475 14.3663C9.03375 13.635 9.75375 13.23 10.395 12.5775C10.5637 12.4088 13.4437 9.7875 13.5 9.55125C13.5078 9.51547 13.5068 9.47832 13.497 9.44303C13.4872 9.40774 13.4689 9.37538 13.4437 9.34875C13.3762 9.2925 13.2862 9.315 13.2075 9.32625C13.1062 9.34875 11.5313 10.395 8.46 12.465C8.01 12.7687 7.605 12.9262 7.245 12.915C6.84 12.9037 6.075 12.69 5.50125 12.4987C4.7925 12.2737 4.24125 12.15 4.28625 11.7562C4.30875 11.5537 4.59 11.3512 5.11875 11.1375C8.40375 9.70875 10.5863 8.76375 11.6775 8.31375C14.805 7.00875 15.4463 6.78375 15.8738 6.78375C15.9638 6.78375 16.1775 6.80625 16.3125 6.91875C16.425 7.00875 16.4587 7.1325 16.47 7.2225C16.4587 7.29 16.4812 7.4925 16.47 7.65Z" fill="var(--fill-0, white)" fill-opacity="0.8"/>
</svg>
