<svg preserveAspectRatio="none" width="100%" height="100%" overflow="visible" style="display: block;" viewBox="0 0 19.6411 24.5407" fill="none" xmlns="http://www.w3.org/2000/svg">
<g id="Group">
<g id="Vector">
</g>
<path id="Vector_2" fill-rule="evenodd" clip-rule="evenodd" d="M2.59762 2.95088C4.338 1.09575 6.86138 0 9.9855 0C15.1211 0 18.5265 2.95988 19.6042 7.06163C19.68 7.3503 19.638 7.65725 19.4875 7.91496C19.337 8.17267 19.0902 8.36003 18.8016 8.43581C18.5129 8.5116 18.2059 8.4696 17.9482 8.31907C17.6905 8.16854 17.5032 7.9218 17.4274 7.63312C16.6095 4.52475 14.1019 2.25 9.98438 2.25C7.41262 2.25 5.50687 3.13762 4.24012 4.48875C2.96212 5.85225 2.25 7.77712 2.25 9.98438V12.5156C2.25 14.7229 2.96212 16.6478 4.24012 18.0101C5.50687 19.3635 7.41262 20.25 9.98438 20.25C11.8462 20.25 13.3234 19.818 14.4574 19.1194C15.5992 18.4163 16.2799 17.4836 16.4711 16.4138C16.6905 15.1808 16.4205 14.3348 15.9559 13.7239C15.7011 13.3952 15.3912 13.1131 15.0401 12.8903C14.8883 13.7329 14.6171 14.5283 14.2076 15.1515C12.6979 17.4454 9.81113 17.6422 7.90763 16.8829C6.87713 16.4722 5.994 15.3484 5.7195 14.1435C5.55284 13.4529 5.60835 12.7273 5.87813 12.0701C6.17625 11.3546 6.72863 10.7449 7.515 10.2814C8.2935 9.82125 9.45 9.60975 10.5964 9.57825C11.2871 9.55912 12.0364 9.60525 12.7901 9.72788C12.6326 8.99663 12.366 8.451 12.0656 8.17087C11.5211 7.66462 10.6189 7.308 9.71438 7.31363C8.84025 7.32038 8.09888 7.65675 7.65563 8.3655C7.49749 8.61852 7.24532 8.79835 6.95459 8.86544C6.66386 8.93253 6.35839 8.88139 6.10538 8.72325C5.85236 8.56511 5.67252 8.31295 5.60543 8.02222C5.53834 7.73149 5.58949 7.42602 5.74763 7.173C6.68925 5.66775 8.24062 5.07487 9.69975 5.06362C11.1285 5.0535 12.6 5.59462 13.599 6.52387C14.6093 7.46437 15.0435 9.00675 15.156 10.4096C16.1393 10.8383 17.0685 11.4671 17.7491 12.3637C18.6277 13.5225 19.0057 15.0165 18.6862 16.8086C18.36 18.6356 17.2069 20.0689 15.6375 21.0352C14.0985 21.9825 12.1995 22.5 9.98438 22.5C6.86137 22.5 4.33688 21.4043 2.59875 19.5491C0.87075 17.7064 0 15.2021 0 12.5156V9.98438C0 7.29787 0.87075 4.79363 2.59875 2.95088H2.59762ZM12.8914 12.0375C12.1576 11.8793 11.4075 11.809 10.6571 11.8282C9.65475 11.8552 8.95163 12.0454 8.658 12.2186C8.226 12.474 8.03925 12.7339 7.956 12.9353C7.86718 13.161 7.85221 13.4092 7.91325 13.644C8.0505 14.247 8.50388 14.6993 8.74125 14.7926C10.008 15.2989 11.5931 15.0311 12.3278 13.9151C12.5921 13.5124 12.8025 12.8351 12.8903 12.0375H12.8914Z" fill="var(--fill-0, white)"/>
</g>
</svg>
