<svg preserveAspectRatio="none" width="100%" height="100%" overflow="visible" style="display: block;" viewBox="0 0 20 20" fill="none" xmlns="http://www.w3.org/2000/svg">
<g id="dashicons:admin-site-alt3" clip-path="url(#clip0_235_1891)">
<path id="Vector" d="M10 0.950195C12.4002 0.950195 14.7022 1.90338 16.3994 3.60059C18.0966 5.29779 19.0498 7.59979 19.0498 10C19.0498 12.4002 18.0966 14.7022 16.3994 16.3994C14.7022 18.0966 12.4002 19.0498 10 19.0498C7.59979 19.0498 5.29779 18.0966 3.60059 16.3994C1.90338 14.7022 0.950195 12.4002 0.950195 10C0.950196 7.59979 1.90338 5.29779 3.60059 3.60059C5.29779 1.90338 7.59979 0.950195 10 0.950195ZM10.7305 17.7354C11.6514 17.3662 12.4077 16.6744 12.8555 15.7871L12.8564 15.7842H12.8574C13.0486 15.4614 13.2167 15.1256 13.3633 14.7803H10.7305V17.7354ZM6.64551 14.7393C6.75321 14.993 6.87295 15.2414 7.00488 15.4834L7.15332 15.7441L7.1543 15.7471C7.60214 16.6345 8.35905 17.3262 9.28027 17.6953V14.7305L6.64551 14.7393ZM3.77344 14.8096C4.52855 15.8021 5.50569 16.603 6.62695 17.1475C6.09277 16.4353 5.66702 15.6478 5.36523 14.8096H3.77344ZM14.624 14.8096C14.3293 15.6281 13.9161 16.3978 13.3994 17.0967C14.5129 16.5659 15.4878 15.7832 16.2471 14.8096H14.624ZM5.75293 10.7305C5.79646 11.6082 5.92945 12.4792 6.14941 13.3301H9.26953V10.7305H5.75293ZM2.16602 10.7305C2.25013 11.6312 2.48831 12.5107 2.87207 13.3301H4.9375C4.73625 12.4763 4.6147 11.6063 4.57324 10.7305H2.16602ZM15.4297 10.6846C15.3874 11.559 15.2643 12.4276 15.0625 13.2803H17.1377C17.5216 12.4606 17.7607 11.5808 17.8447 10.6797H15.4307L15.4297 10.6846ZM10.7305 13.2803H13.8506C14.0706 12.4291 14.2036 11.5578 14.2471 10.6797H10.7305V13.2803ZM10.7305 9.28027H14.2568C14.2147 8.40209 14.0813 7.53085 13.8604 6.67969H10.7305V9.28027ZM6.14941 6.67969C5.92846 7.53083 5.79506 8.4021 5.75293 9.28027H9.26953V6.67969H6.14941ZM15.0635 6.67969C15.266 7.51667 15.3903 8.37054 15.4365 9.23047L17.834 9.27832C17.7505 8.37817 17.5125 7.4993 17.1279 6.67969H15.0635ZM2.87207 6.66992C2.48831 7.48929 2.25013 8.36878 2.16602 9.26953H4.57324C4.61334 8.39346 4.73513 7.52322 4.9375 6.66992H2.87207ZM13.3701 2.88965C13.9055 3.60269 14.3325 4.39096 14.6348 5.23047H16.249C15.487 4.23372 14.5007 3.43156 13.3701 2.88965ZM9.26953 2.26367C8.3468 2.63518 7.59044 3.33161 7.14453 4.22266L7.14355 4.22559L7.09961 4.2002L7.14258 4.22559C6.95118 4.54877 6.78248 4.88477 6.63574 5.23047H9.26953V2.26367ZM6.62891 2.88965C5.49868 3.43155 4.51281 4.23395 3.75098 5.23047H5.36523C5.66741 4.39115 6.09373 3.60257 6.62891 2.88965ZM10.7305 5.22949L13.3633 5.21973C13.2163 4.87424 13.0486 4.53922 12.8574 4.21582L12.8555 4.21289C12.4077 3.3255 11.6516 2.63278 10.7305 2.26367V5.22949Z" fill="var(--fill-0, #517D00)" stroke="var(--stroke-0, #517D00)" stroke-width="0.1"/>
</g>
<defs>
<clipPath id="clip0_235_1891">
<rect width="20" height="20" fill="white"/>
</clipPath>
</defs>
</svg>
