<svg preserveAspectRatio="none" width="100%" height="100%" overflow="visible" style="display: block;" viewBox="0 0 73.6 106.396" fill="none" xmlns="http://www.w3.org/2000/svg">
<path id="Vector" d="M0 0.0630713C6.717 -0.0758967 13.9329 0.0575914 20.6864 0.0612485L20.7016 43.7125C27.4703 34.9166 33.3599 31.9294 44.3997 31.4549C61.244 30.7308 71.4928 41.8635 73.1052 58.1081C73.7896 65.0017 73.5645 71.7602 73.5645 78.6797L73.5463 106.361L52.942 106.348V81.6702C52.9511 79.5744 52.9237 77.3348 52.9633 75.2585C53.1641 64.4099 53.9429 49.1733 38.927 48.8198C33.7219 48.6973 29.4964 50.1297 25.7059 54.0772C19.2505 60.7946 20.6712 71.347 20.6773 79.9923L20.6834 106.358C13.8629 106.444 6.84173 106.358 0.00609018 106.353L0 0.0630713Z" fill="var(--fill-0, #FEFEFE)"/>
</svg>
