<svg preserveAspectRatio="none" width="100%" height="100%" overflow="visible" style="display: block;" viewBox="0 0 41.0673 46.6205" fill="none" xmlns="http://www.w3.org/2000/svg">
<path id="Vector" d="M15.9812 0.0858743C25.6501 -0.809226 31.4748 5.39209 34.5205 14.0651C36.0457 14.029 37.2621 13.9646 38.6423 14.7467C39.7963 15.3936 40.6228 16.5055 40.9129 17.8042C41.6973 21.215 39.3893 23.1229 36.3623 23.7275C37.0625 29.8676 37.4243 37.1446 33.3665 42.2812C31.3843 44.7906 28.532 46.2887 25.3678 46.6138C13.0774 46.9561 7.74704 34.0274 5.82262 23.7307C4.43155 23.7542 3.19643 23.6694 2.04708 22.8984C-1.01733 20.8412 -0.546365 15.9543 2.82527 14.4829C3.55355 14.1656 4.11031 14.1185 4.86354 14.0196C5.11618 6.59499 8.33029 1.24165 15.9812 0.0858743Z" fill="var(--fill-0, black)"/>
</svg>
