<svg preserveAspectRatio="none" width="100%" height="100%" overflow="visible" style="display: block;" viewBox="0 0 109.198 66.5033" fill="none" xmlns="http://www.w3.org/2000/svg">
<path id="Vector" d="M59.6715 11.1598C66.0516 3.37209 72.109 0.413378 82.1864 0.0727139C95.926 -0.39168 105.518 7.00945 108.252 20.4847C109.549 26.8614 109.137 33.9986 109.134 40.6214L109.115 66.4727L90.8316 66.4675L90.8506 41.88C90.8533 34.6913 91.9845 24.0645 86.7627 18.5815C82.4469 14.0502 72.7193 14.6307 68.5581 19.2196C63.1409 25.1994 63.9574 32.4641 63.9629 39.8685L63.9873 52.4263L63.9846 66.4713C57.9028 66.5402 51.7017 66.4778 45.6118 66.4689V42.3728C45.6416 32.5843 47.4917 15.8391 33.5677 15.5366C16.8502 15.1729 18.4398 32.097 18.4417 43.1136L18.4398 66.4746L0 66.4665L0.00162256 1.50533L18.4422 1.50668L18.446 9.16472C23.6516 3.47367 27.1674 1.27814 34.8589 0.243456C45.4056 -0.950082 53.8556 2.17531 59.6715 11.1598Z" fill="var(--fill-0, #FEFEFE)"/>
</svg>
