<svg preserveAspectRatio="none" width="100%" height="100%" overflow="visible" style="display: block;" viewBox="0 0 67.7832 68.1072" fill="none" xmlns="http://www.w3.org/2000/svg">
<path id="Subtract" d="M30.2609 0.188235C32.0071 -0.103516 36.4031 0.0019243 38.2336 0.118899C46.6465 0.656311 54.94 4.6185 60.3674 11.1345C67.1786 19.3128 68.4617 28.1807 67.5012 38.5085H18.3195C19.7141 54.0604 39.3788 58.6643 47.1349 45.7253H61.1506L65.9054 45.7351C64.6333 49.6999 63.3719 52.3883 60.7707 55.741C55.5206 62.4281 47.8181 66.7639 39.3576 67.7937C29.7388 68.9513 20.0424 66.9554 12.1535 60.9304C-2.54903 49.7015 -3.68672 25.9373 7.51971 11.9207C13.2922 4.7008 21.0848 1.2032 30.2609 0.188235ZM49.0724 27.3806C47.9523 19.1955 41.373 13.6964 33.1027 14.7527C24.5644 16.138 21.1665 19.2717 18.6701 27.3767L35.1095 27.3796L49.0724 27.3806Z" fill="var(--fill-0, #FEFEFE)"/>
</svg>
