<svg preserveAspectRatio="none" width="100%" height="100%" overflow="visible" style="display: block;" viewBox="0 0 55.3035 61.2177" fill="none" xmlns="http://www.w3.org/2000/svg">
<path id="Vector" d="M23.4797 0.0613521C26.9919 -0.215562 30.5151 0.448664 33.6789 1.97803C39.3755 4.6983 44.3182 10.3578 46.4109 16.202C56.4303 17.1866 58.4093 29.217 50.1597 33.9987C50.2129 34.9706 50.2551 35.9443 50.2881 36.9163C50.4605 42.2736 50.0717 47.1548 47.4765 51.9474C44.2614 57.8803 38.8142 61.082 32.0796 61.2177C17.6199 61.0331 10.5459 46.8019 7.43536 34.7733C1.61223 32.9092 -1.22507 28.7355 0.500783 22.5185C1.30227 19.6336 3.39493 18.1476 5.89291 16.7269C7.18959 6.82311 13.5226 0.989829 23.4797 0.0613521Z" fill="var(--fill-0, #FEFEFE)"/>
</svg>
