<svg preserveAspectRatio="none" width="100%" height="100%" overflow="visible" style="display: block;" viewBox="0 0 91.731 103.08" fill="none" xmlns="http://www.w3.org/2000/svg">
<path id="Vector" d="M38.9454 0.103306C44.771 -0.362968 50.6149 0.75547 55.8626 3.33065C65.3114 7.91111 73.5099 17.4408 76.9809 27.2813C93.6 28.9392 96.8825 49.1962 83.199 57.2478C83.2873 58.8844 83.3572 60.5239 83.412 62.1605C83.6979 71.1812 83.053 79.4004 78.7484 87.4703C73.4156 97.4602 64.3805 102.851 53.2099 103.08C29.2258 102.769 17.4923 78.8062 12.3329 58.5522C2.67418 55.4132 -2.03199 48.3855 0.830639 37.9172C2.16005 33.0594 5.63111 30.5574 9.77447 28.1651C11.9253 11.4889 22.4297 1.6667 38.9454 0.103306Z" fill="var(--fill-0, #FEFEFE)"/>
</svg>
