<svg preserveAspectRatio="none" width="100%" height="100%" overflow="visible" style="display: block;" viewBox="0 0 21 17" fill="none" xmlns="http://www.w3.org/2000/svg">
<path id="Vector" d="M2.625 0C1.92881 0 1.26113 0.248758 0.768845 0.691551C0.276562 1.13434 0 1.7349 0 2.3611V10.8611C0 11.4873 0.276562 12.0878 0.768845 12.5306C1.26113 12.9734 1.92881 13.2222 2.625 13.2222H7.35V6.37498C7.35002 6.06955 7.44414 5.7701 7.62191 5.50986C7.79967 5.24963 8.05413 5.03879 8.35705 4.90075C8.65996 4.76271 8.99947 4.70287 9.3379 4.72787C9.67633 4.75287 10.0004 4.86173 10.2742 5.04237L18.1492 12.1257C18.543 12.3854 18.795 12.767 18.8737 13.1797C19.4724 13.0755 20.012 12.7871 20.4 12.364C20.788 11.9409 21.0001 11.4095 21 10.8611V2.3611C21 1.7349 20.7234 1.13434 20.2312 0.691551C19.7389 0.248758 19.0712 0 18.375 0H2.625ZM9.744 5.87443C9.63387 5.77549 9.49361 5.70813 9.34094 5.68085C9.18827 5.65357 9.03004 5.66759 8.88623 5.72115C8.74242 5.77472 8.61948 5.86541 8.53294 5.98178C8.4464 6.09815 8.40014 6.23498 8.4 6.37498V16.2916C8.39999 16.4428 8.45374 16.59 8.55339 16.7117C8.65304 16.8334 8.79337 16.9233 8.95386 16.9681C9.11435 17.013 9.28658 17.0104 9.44537 16.9609C9.60416 16.9114 9.74118 16.8176 9.8364 16.693L12.4267 13.3043L16.8997 14.1515C17.0658 14.1829 17.2386 14.1653 17.3926 14.1012C17.5466 14.0371 17.6734 13.93 17.7542 13.7958C17.8351 13.6617 17.8656 13.5076 17.8412 13.3566C17.8168 13.2056 17.7389 13.0657 17.619 12.9577L9.744 5.87443Z" fill="var(--fill-0, #FF6B00)"/>
</svg>
