<svg preserveAspectRatio="none" width="100%" height="100%" overflow="visible" style="display: block;" viewBox="0 0 33.36 21.0549" fill="none" xmlns="http://www.w3.org/2000/svg">
<path id="Vector" d="M30.1167 1.06769H21.6667V3.41769H30.15L30.1167 1.06769ZM28.3333 17.2344C27.6923 17.6591 26.9353 17.8746 26.1667 17.851C25.6579 17.9041 25.1436 17.8515 24.6561 17.6967C24.1686 17.5418 23.7182 17.2879 23.3333 16.951C22.6232 16.1433 22.2529 15.0922 22.3 14.0177H33.3333C33.412 12.8986 33.3165 11.7741 33.05 10.6844C32.7907 9.648 32.3384 8.66981 31.7167 7.80103C31.0889 6.95988 30.2801 6.27066 29.35 5.78436C28.3134 5.2754 27.1713 5.01842 26.0167 5.03436C24.9306 5.0273 23.854 5.23695 22.85 5.65103C21.9306 6.03812 21.0977 6.60474 20.4 7.3177C19.704 8.04455 19.165 8.90689 18.8167 9.85103C18.4428 10.8703 18.2565 11.9488 18.2667 13.0344C18.2488 14.1354 18.4295 15.2307 18.8 16.2677C19.1158 17.2062 19.6142 18.0728 20.2667 18.8177C20.9432 19.548 21.7746 20.1174 22.7 20.4844C23.7318 20.8775 24.8293 21.0698 25.9333 21.051C27.4824 21.0993 29.0117 20.6938 30.3333 19.8844C31.6692 18.9368 32.6305 17.5509 33.05 15.9677H29.3667C29.1695 16.4913 28.8066 16.936 28.3333 17.2344ZM22.6167 10.3677C22.7464 9.95216 22.9617 9.56841 23.2488 9.24117C23.5358 8.91392 23.8882 8.65044 24.2833 8.46769C24.8069 8.23327 25.3765 8.11936 25.95 8.13436C26.3644 8.09897 26.7815 8.15363 27.1727 8.2946C27.564 8.43556 27.9201 8.65949 28.2167 8.95103C28.7837 9.64379 29.1472 10.4804 29.2667 11.3677H22.35C22.377 11.029 22.4384 10.6939 22.5333 10.3677H22.6167ZM13.8 9.56769C14.6483 9.21447 15.3854 8.63862 15.9333 7.90103C16.4391 7.1186 16.6895 6.1985 16.65 5.26769C16.6815 4.41919 16.516 3.57492 16.1667 2.80103C15.8722 2.13089 15.3995 1.5544 14.8 1.13436C14.1654 0.6958 13.4433 0.400113 12.6833 0.267694C11.7848 0.0786832 10.8681 -0.010745 9.95 0.00102742H0V20.9677H10.1667C11.0944 20.9675 12.0184 20.8499 12.9167 20.6177C13.7673 20.3959 14.5735 20.0294 15.3 19.5344C16.0043 19.0488 16.577 18.3959 16.9667 17.6344C17.4005 16.7843 17.6126 15.8383 17.5833 14.8844C17.6149 13.7023 17.2833 12.5389 16.6333 11.551C15.9343 10.5576 14.8975 9.85256 13.7167 9.56769H13.8ZM4.61667 3.58436H8.93333C9.32997 3.58243 9.72598 3.61589 10.1167 3.68436C10.477 3.73591 10.823 3.86069 11.1333 4.05103C11.4339 4.22105 11.6775 4.4762 11.8333 4.78436C12.0279 5.15333 12.12 5.56772 12.1 5.98436C12.1311 6.34309 12.0762 6.70406 11.94 7.03737C11.8038 7.37067 11.5901 7.66673 11.3167 7.90103C10.7202 8.31108 10.0065 8.51584 9.28333 8.48436H4.61667V3.58436ZM12.6833 15.9844C12.5108 16.3231 12.2521 16.6105 11.9333 16.8177C11.6005 17.0247 11.2338 17.1714 10.85 17.251C10.4235 17.347 9.98709 17.3917 9.55 17.3844H4.55V11.6344H9.55C10.408 11.5968 11.2554 11.8364 11.9667 12.3177C12.288 12.6061 12.537 12.9661 12.6933 13.3686C12.8497 13.771 12.9091 14.2047 12.8667 14.6344C12.9099 15.0925 12.8472 15.5544 12.6833 15.9844Z" fill="var(--fill-0, white)" fill-opacity="0.8"/>
</svg>
