<svg preserveAspectRatio="none" width="100%" height="100%" overflow="visible" style="display: block;" viewBox="0 0 38.9688 39.5894" fill="none" xmlns="http://www.w3.org/2000/svg">
<path id="Subtract" d="M17.3967 0.109287C18.4004 -0.0602922 20.9271 0.00126074 21.9797 0.0692482C26.8161 0.381578 31.584 2.68418 34.7043 6.47159C38.6201 11.2254 39.359 16.3804 38.8068 22.3837L10.5314 22.3847C11.3334 31.4245 22.639 34.1003 27.0978 26.579H35.1555L37.8889 26.5849C37.1575 28.8896 36.4322 30.4524 34.9367 32.4013C31.9185 36.2883 27.4901 38.8085 22.6262 39.4071C17.0964 40.08 11.5218 38.92 6.98651 35.4179C-1.46593 28.8907 -2.11913 15.0772 4.32343 6.9296C7.64203 2.73284 12.1214 0.699271 17.3967 0.109287ZM28.2121 15.9159C27.5682 11.158 23.7851 7.96109 19.0305 8.57511C14.1218 9.38038 12.1688 11.2026 10.7336 15.914L20.1848 15.915L28.2121 15.9159Z" fill="var(--fill-0, #FEFEFE)"/>
</svg>
