<svg preserveAspectRatio="none" width="100%" height="100%" overflow="visible" style="display: block;" viewBox="0 0 67.783 68.7778" fill="none" xmlns="http://www.w3.org/2000/svg">
<path id="Subtract" d="M30.2608 0.189737C32.007 -0.104817 36.4019 0.00228935 38.2325 0.120401C46.6454 0.663022 54.9388 4.66333 60.3663 11.2434C67.1777 19.5023 68.4615 28.4574 67.501 38.887L18.3194 38.888C19.714 54.5931 39.3788 59.2418 47.1348 46.1751L61.1505 46.1761L65.9053 46.1849C64.6331 50.1889 63.372 52.9044 60.7706 56.2903C55.5206 63.0433 47.8179 67.4212 39.3575 68.4612C29.7388 69.6302 20.0423 67.6147 12.1534 61.5306C-2.54906 50.1911 -3.68664 26.1932 7.5196 12.0384C13.2921 4.74738 21.0847 1.2147 30.2608 0.189737ZM49.0723 27.6507C47.9523 19.3846 41.3722 13.8308 33.1016 14.8977C24.5635 16.2968 21.1664 19.4619 18.67 27.6468L35.1094 27.6497L49.0723 27.6507Z" fill="var(--fill-0, #FEFEFE)"/>
</svg>
