<svg preserveAspectRatio="none" width="100%" height="100%" overflow="visible" style="display: block;" viewBox="0 0 1550.8 858.8" fill="none" xmlns="http://www.w3.org/2000/svg">
<g id="Rectangle 8" filter="url(#filter0_f_0_240)">
<path d="M175.4 382.252L177.401 607.212L229.588 175.4V500.444C229.588 514.746 250.114 517.053 253.289 503.108L280.454 383.785C283.326 371.17 301.378 371.405 303.921 384.09L335.108 539.658C337.753 552.85 356.774 552.366 358.745 539.057L382.168 380.897C384.211 367.105 404.17 367.301 405.941 381.131L414.295 446.346C416.183 461.086 437.893 459.922 438.195 445.066L443.4 188.955L473.424 503.378C474.779 517.578 495.358 517.976 497.262 503.839L511.353 399.221C513.259 385.07 533.865 385.489 535.193 399.707L549.602 553.857C550.794 566.615 568.47 568.874 572.833 556.826L616.686 435.714C620.688 424.662 636.546 425.357 639.566 436.716L667.831 543.018C671.266 555.937 690.069 554.408 691.371 541.103L712.926 320.909C714.32 306.664 734.995 306.383 736.775 320.585L763.79 536.039C765.475 549.479 784.66 550.267 787.441 537.01L809.048 434.01C811.876 420.533 831.472 421.656 832.742 435.367L842.143 536.921C843.389 550.373 862.466 551.827 865.736 538.719L917.499 331.199C920.539 319.011 937.892 319.095 940.813 331.313L993.798 552.929C996.803 565.501 1014.83 565.088 1017.26 552.392L1064.28 306.409C1066.93 292.569 1087.13 293.826 1088.04 307.888L1102.6 533.059C1103.48 546.654 1122.74 548.5 1126.19 535.319L1167.21 378.347C1170.42 366.093 1187.96 366.514 1190.57 378.908L1225.64 545.438C1228.37 558.399 1247 558.031 1249.21 544.973L1286.89 322.992C1289.29 308.835 1310.02 310.082 1310.7 324.424L1320.06 519.432C1320.73 533.38 1340.66 535.133 1343.75 521.516L1351.7 486.545C1354.87 472.596 1375.4 474.899 1375.4 489.205V671.4C1375.4 678.027 1370.03 683.4 1363.4 683.4H187.4C180.773 683.4 175.4 678.027 175.4 671.4V382.252Z" fill="url(#paint0_linear_0_240)"/>
</g>
<defs>
<filter id="filter0_f_0_240" x="0" y="0" width="1550.8" height="858.8" filterUnits="userSpaceOnUse" color-interpolation-filters="sRGB">
<feFlood flood-opacity="0" result="BackgroundImageFix"/>
<feBlend mode="normal" in="SourceGraphic" in2="BackgroundImageFix" result="shape"/>
<feGaussianBlur stdDeviation="87.7" result="effect1_foregroundBlur_0_240"/>
</filter>
<linearGradient id="paint0_linear_0_240" x1="1488.75" y1="185.968" x2="-67.1301" y2="795.192" gradientUnits="userSpaceOnUse">
<stop stop-color="white"/>
<stop offset="1" stop-color="#0A0A0A"/>
</linearGradient>
</defs>
</svg>
