<svg preserveAspectRatio="none" width="100%" height="100%" overflow="visible" style="display: block;" viewBox="0 0 20 20" fill="none" xmlns="http://www.w3.org/2000/svg">
<g id="mage:stars-c">
<path id="Vector" d="M12.6983 9.00833L12.2242 10.42C12.0479 10.9564 11.7481 11.4439 11.3491 11.8434C10.9501 12.2429 10.4629 12.5431 9.92667 12.72L8.49917 13.1942C8.45091 13.2098 8.40884 13.2403 8.379 13.2813C8.34916 13.3223 8.33308 13.3718 8.33308 13.4225C8.33308 13.4732 8.34916 13.5226 8.379 13.5637C8.40884 13.6047 8.45091 13.6352 8.49917 13.6508L9.92667 14.125C10.458 14.3018 10.9407 14.6001 11.3365 14.9962C11.7323 15.3923 12.0303 15.8752 12.2067 16.4067L12.68 17.8358C12.6952 17.8845 12.7255 17.9271 12.7666 17.9573C12.8077 17.9875 12.8573 18.0038 12.9083 18.0038C12.9593 18.0038 13.009 17.9875 13.0501 17.9573C13.0912 17.9271 13.1215 17.8845 13.1367 17.8358L13.6283 16.4242C13.8047 15.8928 14.1025 15.4099 14.4981 15.0138C14.8938 14.6178 15.3763 14.3194 15.9075 14.1425L17.3358 13.6683C17.3841 13.6527 17.4262 13.6222 17.456 13.5812C17.4858 13.5401 17.5019 13.4907 17.5019 13.44C17.5019 13.3893 17.4858 13.3398 17.456 13.2988C17.4262 13.2578 17.3841 13.2273 17.3358 13.2117L15.9258 12.72C15.3893 12.5437 14.9018 12.2437 14.5027 11.8441C14.1036 11.4446 13.804 10.9567 13.6283 10.42L13.1542 8.99083C13.1407 8.95564 13.1192 8.92408 13.0914 8.89868C13.0635 8.87328 13.0302 8.85474 12.9939 8.84453C12.9576 8.83433 12.9195 8.83275 12.8825 8.83992C12.8455 8.8471 12.8107 8.86282 12.7808 8.88583C12.7415 8.91765 12.7127 8.95982 12.6983 9.00833ZM5.67333 4.91417L5.32917 5.94C5.20079 6.33012 4.98266 6.68467 4.69233 6.97514C4.40199 7.26562 4.04755 7.48393 3.6575 7.6125L2.61917 7.9575C2.58446 7.9692 2.55429 7.99149 2.53292 8.02125C2.51156 8.051 2.50006 8.0867 2.50006 8.12333C2.50006 8.15996 2.51156 8.19567 2.53292 8.22542C2.55429 8.25517 2.58446 8.27747 2.61917 8.28917L3.6575 8.635C4.04387 8.76335 4.39497 8.98009 4.68286 9.26798C4.97075 9.55586 5.18748 9.90696 5.31583 10.2933L5.66 11.3333C5.6717 11.368 5.694 11.3982 5.72375 11.4196C5.7535 11.4409 5.7892 11.4524 5.82583 11.4524C5.86246 11.4524 5.89817 11.4409 5.92792 11.4196C5.95767 11.3982 5.97997 11.368 5.99167 11.3333L6.35 10.3067C6.47893 9.9206 6.69587 9.56981 6.98367 9.282C7.27148 8.9942 7.62227 8.77726 8.00833 8.64833L9.04583 8.3025C9.08054 8.2908 9.11071 8.2685 9.13208 8.23875C9.15344 8.209 9.16494 8.1733 9.16494 8.13667C9.16494 8.10004 9.15344 8.06433 9.13208 8.03458C9.11071 8.00483 9.08054 7.98253 9.04583 7.97083L8.02083 7.6125C7.63062 7.4844 7.27603 7.26625 6.98577 6.9757C6.6955 6.68514 6.47771 6.33034 6.35 5.94L6.005 4.90083C5.99197 4.86652 5.96849 4.83717 5.93787 4.81694C5.90724 4.79671 5.87104 4.78662 5.83437 4.78809C5.7977 4.78957 5.76242 4.80253 5.73352 4.82516C5.70462 4.84778 5.68356 4.87892 5.67333 4.91417ZM12.2142 2.0625L12.0417 2.57583C11.9779 2.77104 11.8691 2.94849 11.724 3.09384C11.579 3.23919 11.4017 3.34835 11.2067 3.4125L10.6875 3.585C10.6745 3.58923 10.6627 3.59647 10.653 3.60614C10.6433 3.61581 10.6361 3.62763 10.6319 3.64063C10.6277 3.65363 10.6266 3.66745 10.6287 3.68096C10.6308 3.69446 10.6361 3.70727 10.6442 3.71833C10.6546 3.73369 10.6698 3.74513 10.6875 3.75083L11.2067 3.92333C11.3999 3.98751 11.5754 4.09588 11.7193 4.23982C11.8633 4.38377 11.9717 4.55931 12.0358 4.7525L12.2075 5.2725C12.2132 5.29016 12.2243 5.30557 12.2392 5.3165C12.2542 5.32743 12.2723 5.33332 12.2908 5.33332C12.3094 5.33332 12.3274 5.32743 12.3424 5.3165C12.3574 5.30557 12.3685 5.29016 12.3742 5.2725L12.5525 4.75917C12.6167 4.56598 12.725 4.39043 12.869 4.24649C13.0129 4.10254 13.1885 3.99417 13.3817 3.93L13.9008 3.7575C13.9185 3.75185 13.9339 3.74073 13.9448 3.72575C13.9558 3.71077 13.9617 3.69271 13.9617 3.67417C13.9617 3.65562 13.9558 3.63756 13.9448 3.62258C13.9339 3.6076 13.9185 3.59649 13.9008 3.59083L13.3883 3.4125C13.1931 3.34847 13.0157 3.23935 12.8705 3.094C12.7253 2.94864 12.6163 2.77113 12.5525 2.57583L12.38 2.05583C12.3735 2.03868 12.3617 2.024 12.3464 2.01389C12.3311 2.00377 12.313 1.99873 12.2947 1.99946C12.2763 2.0002 12.2587 2.00668 12.2443 2.018C12.2298 2.02931 12.2193 2.04488 12.2142 2.0625Z" stroke="var(--stroke-0, #FFA6F6)" stroke-linecap="round" stroke-linejoin="round"/>
</g>
</svg>
