<svg preserveAspectRatio="none" width="100%" height="100%" overflow="visible" style="display: block;" viewBox="0 0 408 178" fill="none" xmlns="http://www.w3.org/2000/svg">
<g id="Levmich Studio svg 1">
<path id="Vector" d="M279.577 171.827C274.131 171.827 269.192 170.617 264.763 168.198C260.406 165.779 256.921 162.406 254.307 158.081C251.765 153.756 250.494 148.807 250.494 143.235C250.494 137.59 251.765 132.642 254.307 128.389C256.921 124.064 260.442 120.691 264.872 118.272C269.301 115.853 274.203 114.643 279.577 114.643C285.023 114.643 289.925 115.853 294.282 118.272C298.71 120.691 302.196 124.064 304.738 128.389C307.352 132.642 308.659 137.59 308.659 143.235C308.659 148.807 307.352 153.756 304.738 158.081C302.196 162.406 298.71 165.779 294.282 168.198C289.925 170.617 285.023 171.827 279.577 171.827ZM279.577 158.521C282.045 158.521 284.297 157.971 286.33 156.871C288.363 155.698 289.961 153.976 291.123 151.703C292.357 149.43 292.974 146.608 292.974 143.235C292.974 139.862 292.357 137.04 291.123 134.767C289.888 132.494 288.254 130.809 286.221 129.709C284.261 128.536 282.082 127.949 279.686 127.949C277.217 127.949 274.965 128.536 272.933 129.709C270.899 130.809 269.265 132.494 268.031 134.767C266.796 136.967 266.179 139.79 266.179 143.235C266.179 146.608 266.76 149.43 267.922 151.703C269.156 153.976 270.79 155.698 272.824 156.871C274.856 157.971 277.108 158.521 279.577 158.521Z" fill="var(--fill-0, white)"/>
<path id="Vector_2" d="M229.046 170.507V115.963H244.295V170.507H229.046ZM229.699 107.275V92.9794H243.859V107.275H229.699Z" fill="var(--fill-0, white)"/>
<path id="Vector_3" d="M188.247 171.827C183.236 171.827 178.698 170.581 174.631 168.088C170.638 165.595 167.479 162.186 165.155 157.861C162.832 153.462 161.67 148.55 161.67 143.125C161.67 137.627 162.832 132.752 165.155 128.499C167.479 124.174 170.638 120.801 174.631 118.382C178.698 115.889 183.236 114.643 188.247 114.643C192.241 114.643 195.69 115.377 198.594 116.843C201.572 118.308 203.969 120.362 205.783 123.001V91.3298H221.033V170.507H205.783V163.029C204.114 165.375 201.862 167.428 199.03 169.188C196.271 170.947 192.677 171.827 188.247 171.827ZM191.732 158.411C194.564 158.411 197.07 157.751 199.248 156.431C201.426 155.112 203.133 153.316 204.367 151.043C205.602 148.697 206.219 146.094 206.219 143.235C206.219 140.302 205.602 137.7 204.367 135.427C203.133 133.154 201.426 131.358 199.248 130.039C197.07 128.719 194.564 128.059 191.732 128.059C188.973 128.059 186.468 128.719 184.217 130.039C182.038 131.358 180.332 133.154 179.097 135.427C177.863 137.627 177.246 140.192 177.246 143.125C177.246 146.058 177.863 148.697 179.097 151.043C180.332 153.316 182.038 155.112 184.217 156.431C186.468 157.751 188.973 158.411 191.732 158.411Z" fill="var(--fill-0, white)"/>
<path id="Vector_4" d="M123.864 171.827C117.619 171.827 112.718 169.664 109.159 165.339C105.602 160.94 103.822 154.635 103.822 146.424V115.963H118.962V144.995C118.962 149.467 119.798 152.912 121.468 155.332C123.138 157.677 125.644 158.851 128.983 158.851C132.615 158.851 135.41 157.567 137.37 155.002C139.404 152.362 140.42 148.733 140.42 144.115V115.963H155.67V170.507H140.42V162.699C138.823 165.485 136.645 167.722 133.885 169.408C131.199 171.021 127.858 171.827 123.864 171.827Z" fill="var(--fill-0, white)"/>
<path id="Vector_5" d="M89.1756 170.507C85.3997 170.507 82.2045 170.067 79.5904 169.188C77.0489 168.308 75.1245 166.622 73.8174 164.129C72.5104 161.563 71.8568 157.897 71.8568 153.132V128.829H62.5984V115.963H71.8568V101.007H87.1061V115.963H100.395V128.829H87.1061V151.263C87.1061 152.949 87.2876 154.232 87.6507 155.112C88.0138 155.991 88.6674 156.615 89.6113 156.981C90.628 157.275 91.9713 157.421 93.6415 157.421H100.068V170.507H89.1756Z" fill="var(--fill-0, white)"/>
<path id="Vector_6" d="M31.0431 171.827C27.5575 171.827 24.072 171.351 20.5865 170.397C17.1009 169.371 13.8695 167.794 10.8923 165.669C7.98769 163.469 5.55508 160.646 3.59446 157.201C1.63385 153.682 0.435692 149.467 0 144.555H13.9422C14.5957 148.294 15.8301 151.189 17.6455 153.242C19.5335 155.222 21.712 156.615 24.1809 157.421C26.6499 158.227 29.0462 158.631 31.3698 158.631C34.0566 158.631 36.4166 158.191 38.4498 157.311C40.5557 156.431 42.1895 155.222 43.3514 153.682C44.5858 152.142 45.2031 150.419 45.2031 148.514C45.2031 146.388 44.6222 144.481 43.4603 142.795C42.2984 141.109 39.7206 139.9 35.7268 139.166L23.4185 136.857C16.9557 135.611 11.9453 133.044 8.38708 129.159C4.82892 125.2 3.04985 120.545 3.04985 115.193C3.04985 110.354 4.248 106.249 6.64431 102.877C9.04062 99.4312 12.272 96.7919 16.3385 94.9588C20.4049 93.126 24.9071 92.2096 29.8449 92.2096C35.0006 92.2096 39.6117 93.0893 43.6782 94.8488C47.8172 96.6083 51.1576 99.3576 53.6991 103.096C56.3132 106.762 57.8744 111.528 58.3828 117.392H44.2228C43.7144 114.093 42.7341 111.6 41.2818 109.915C39.8296 108.155 38.1231 106.945 36.1625 106.286C34.2018 105.626 32.2412 105.296 30.2806 105.296C28.4652 105.296 26.5046 105.589 24.3988 106.176C22.3655 106.762 20.6227 107.752 19.1705 109.145C17.7907 110.538 17.1009 112.48 17.1009 114.973C17.1009 117.026 17.8271 118.858 19.2794 120.472C20.8043 122.085 23.3822 123.221 27.0129 123.881L38.3409 125.97C44.8037 127.143 49.923 129.453 53.6991 132.898C57.4751 136.271 59.3631 141.329 59.3631 148.074C59.3631 151.886 58.528 155.258 56.8579 158.191C55.2603 161.124 53.0818 163.616 50.3225 165.669C47.6357 167.648 44.6222 169.188 41.2818 170.287C37.9415 171.313 34.5286 171.827 31.0431 171.827Z" fill="var(--fill-0, white)"/>
<path id="Vector_7" d="M353.818 79.1774V0H369.067V32.6607C370.81 29.8015 373.207 27.5288 376.256 25.8426C379.378 24.1565 382.937 23.3133 386.931 23.3133C393.684 23.3133 398.875 25.5127 402.507 29.9115C406.137 34.2369 407.953 40.5051 407.953 48.7161V79.1774H392.813V50.1457C392.813 45.6736 391.941 42.2646 390.199 39.9186C388.456 37.4993 385.66 36.2896 381.811 36.2896C378.108 36.2896 375.058 37.6093 372.662 40.2485C370.266 42.8144 369.067 46.4067 369.067 51.0254V79.1774H353.818Z" fill="var(--fill-0, white)"/>
<path id="Vector_8" d="M320.83 80.497C315.239 80.497 310.301 79.2874 306.017 76.868C301.733 74.3754 298.356 71.0031 295.887 66.7509C293.49 62.4255 292.292 57.4769 292.292 51.9052C292.292 46.3334 293.49 41.4215 295.887 37.1694C298.356 32.844 301.733 29.4716 306.017 27.0523C310.301 24.5596 315.239 23.3133 320.83 23.3133C327.801 23.3133 333.683 25.1828 338.476 28.9217C343.268 32.5873 346.354 37.6826 347.734 44.2074H331.614C330.96 41.8614 329.653 39.9919 327.692 38.599C325.732 37.206 323.408 36.5096 320.721 36.5096C318.325 36.5096 316.146 37.1328 314.186 38.379C312.225 39.6253 310.664 41.3848 309.502 43.6575C308.413 45.9302 307.868 48.6795 307.868 51.9052C307.868 55.0576 308.413 57.8068 309.502 60.1528C310.664 62.4988 312.225 64.295 314.186 65.5413C316.146 66.7876 318.325 67.4107 320.721 67.4107C323.408 67.4107 325.732 66.7509 327.692 65.4313C329.653 64.0383 330.96 62.0956 331.614 59.603H347.734C346.427 65.9078 343.341 70.9664 338.476 74.7786C333.683 78.5909 327.801 80.497 320.83 80.497Z" fill="var(--fill-0, white)"/>
<path id="Vector_9" d="M271.062 79.1773V24.6329H286.311V79.1773H271.062ZM271.715 15.9454V1.64944H285.875V15.9454H271.715Z" fill="var(--fill-0, white)"/>
<path id="Vector_10" d="M173.095 79.1774V24.633H188.345V31.1211C190.087 28.7018 192.338 26.7957 195.098 25.4027C197.93 24.0098 201.161 23.3133 204.792 23.3133C208.858 23.3133 212.344 24.1197 215.249 25.7326C218.226 27.3456 220.586 29.6915 222.329 32.7706C224.361 29.8381 227.012 27.5288 230.28 25.8426C233.548 24.1565 237.178 23.3133 241.172 23.3133C248.361 23.3133 253.807 25.5127 257.511 29.9115C261.286 34.2369 263.175 40.5051 263.175 48.7161V79.1774H248.034V50.1457C248.034 45.6736 247.199 42.2646 245.529 39.9186C243.858 37.4993 241.208 36.2896 237.578 36.2896C234.019 36.2896 231.151 37.6093 228.973 40.2485C226.866 42.8144 225.814 46.4067 225.814 51.0254V79.1774H210.674V50.1457C210.674 45.6736 209.802 42.2646 208.06 39.9186C206.317 37.4993 203.63 36.2896 199.999 36.2896C196.514 36.2896 193.682 37.6093 191.503 40.2485C189.397 42.8144 188.345 46.4067 188.345 51.0254V79.1774H173.095Z" fill="var(--fill-0, white)"/>
<path id="Vector_11" d="M129.879 79.1774L110.164 24.633H126.175L139.246 64.6615L152.208 24.633H168.111L148.396 79.1774H129.879Z" fill="var(--fill-0, white)"/>
<path id="Vector_12" d="M83.0956 80.497C77.5041 80.497 72.5663 79.324 68.282 76.978C63.9977 74.5587 60.6574 71.2596 58.2611 67.0808C55.8648 62.8287 54.6666 57.9534 54.6666 52.455C54.6666 46.81 55.8284 41.7881 58.1522 37.3893C60.5485 32.9906 63.8887 29.5449 68.1731 27.0523C72.4574 24.5596 77.4316 23.3133 83.0956 23.3133C88.4691 23.3133 93.2252 24.4864 97.3643 26.8323C101.503 29.1783 104.735 32.4041 107.058 36.5096C109.383 40.5418 110.544 45.1605 110.544 50.3656C110.544 51.0988 110.544 51.9418 110.544 52.8949C110.544 53.7746 110.472 54.691 110.326 55.6441H65.559V46.4067H95.0769C94.8591 43.181 93.6249 40.615 91.3737 38.7089C89.1953 36.7295 86.4722 35.7398 83.2045 35.7398C80.7355 35.7398 78.4481 36.2896 76.3423 37.3893C74.3091 38.489 72.6752 40.1752 71.4408 42.4479C70.2789 44.6472 69.698 47.4698 69.698 50.9155V54.1045C69.698 56.8904 70.2426 59.3464 71.3319 61.4724C72.4937 63.5252 74.0549 65.138 76.0156 66.3111C78.0487 67.4107 80.3725 67.9606 82.9866 67.9606C85.5281 67.9606 87.6703 67.4107 89.4131 66.3111C91.1559 65.138 92.4997 63.6352 93.4431 61.8023H109.019C108.003 65.3213 106.26 68.5104 103.791 71.3696C101.394 74.1555 98.4175 76.3915 94.8591 78.0777C91.3737 79.6906 87.4525 80.497 83.0956 80.497Z" fill="var(--fill-0, white)"/>
<path id="Vector_13" d="M2.50522 79.1774V2.19936H17.7545V67.1908H51.0849V79.1774H2.50522Z" fill="var(--fill-0, white)"/>
<g id="Vector_14">
<path d="M356.353 169.867C352.867 169.442 349.392 168.041 346.586 165.91C339.705 160.694 334.254 150.609 331.873 138.702L331.488 136.785L330.538 136.81C328.278 136.876 326.778 136.4 325.352 135.176C324.697 134.619 324.197 133.941 323.762 133.03C323.197 131.846 323.127 131.472 323.127 129.685C323.127 128.43 323.157 128.031 323.282 127.565C324.047 124.666 326.478 122.642 329.468 122.414L330.188 122.358V121.802C330.188 120.962 330.343 119.272 330.518 118.138C331.188 113.837 332.899 110.098 335.414 107.436C336.364 106.424 337.009 105.878 338.115 105.134C341.065 103.135 344.746 102.042 348.897 101.921C350.762 101.865 352.092 101.961 353.792 102.265C362.119 103.742 369.265 110.361 373.096 120.137C373.306 120.673 373.571 121.412 373.691 121.771L373.901 122.424H375.781C377.357 122.424 377.742 122.449 378.217 122.581C379.767 123.006 381.177 123.927 381.997 125.071C382.363 125.566 382.868 126.599 383.078 127.251C383.463 128.441 383.503 130.343 383.173 131.659C382.488 134.417 380.042 136.547 377.367 136.729L376.681 136.78L376.857 138.12C377.252 141.106 377.317 142.194 377.317 145.614C377.327 147.77 377.292 149.212 377.222 149.86C376.606 155.563 375.106 159.94 372.606 163.294C371.951 164.175 370.58 165.597 369.7 166.305C367.505 168.076 365.119 169.154 362.079 169.751C361.344 169.888 360.829 169.923 359.093 169.948C357.938 169.959 356.708 169.933 356.353 169.893V169.867ZM361.679 162.652C364.889 162.131 367.655 160.258 369.545 157.349C372.006 153.544 373.111 147.219 372.441 140.742C372.346 139.795 371.981 137.189 371.916 136.972C371.876 136.835 371.085 136.825 356.883 136.825H341.895L341.935 137.174C342.675 143.929 344.841 150.422 347.921 155.148C349.372 157.374 351.262 159.353 353.172 160.633C354.673 161.645 356.683 162.434 358.373 162.687C359.153 162.804 360.899 162.783 361.679 162.657V162.652Z" fill="#020202"/>
<path d="M357.038 174.391C354.047 174.108 351.447 173.42 348.892 172.251C346.156 170.996 343.771 169.311 341.36 166.938C336.599 162.247 332.939 156.114 330.223 148.281C329.483 146.151 328.723 143.504 328.213 141.303C328.173 141.106 328.108 141.075 327.623 140.984C324.477 140.438 321.492 138.029 320.026 134.862C318.996 132.625 318.681 130.191 319.091 127.631C319.576 124.635 321.267 121.786 323.562 120.137C324.237 119.646 325.812 118.781 326.032 118.781C326.202 118.781 326.227 118.705 326.398 117.662C327.133 113.093 328.803 109.101 331.343 105.822C332.214 104.704 333.909 103.049 335.104 102.143C338.87 99.3045 343.801 97.665 349.032 97.5082C356.043 97.3058 362.689 99.9876 368.27 105.296C371.321 108.195 374.391 112.714 376.166 116.883L376.592 117.88L377.207 117.931C382.273 118.381 386.223 121.994 387.353 127.216C387.563 128.177 387.563 131.021 387.353 132.008C386.838 134.432 385.823 136.359 384.183 138.014C383.418 138.788 382.208 139.704 381.472 140.053C381.117 140.225 381.127 140.119 381.297 141.718C381.467 143.358 381.532 147.79 381.417 149.43C380.762 158.644 377.417 165.769 371.681 170.125C368.565 172.494 364.639 174.012 360.719 174.351C359.823 174.432 357.718 174.447 357.048 174.381L357.038 174.391ZM361.839 169.478C365.62 168.744 368.455 167.241 371.001 164.595C374.326 161.149 376.261 156.301 376.977 149.592C377.042 148.954 377.082 147.552 377.072 145.594C377.072 142.401 376.997 141.268 376.596 138.232C376.481 137.417 376.396 136.699 376.396 136.633C376.396 136.542 376.566 136.511 377.107 136.471C379.687 136.299 382.052 134.351 382.843 131.729C383.238 130.424 383.238 128.734 382.843 127.494C382.183 125.445 380.917 124.018 379.017 123.183C377.962 122.717 377.567 122.662 375.526 122.662H373.656L373.446 122.009C372.866 120.238 371.856 117.931 370.895 116.18C367.55 110.093 363.049 105.857 357.603 103.661C352.037 101.415 345.216 101.693 340.01 104.39C337.179 105.857 334.994 107.947 333.339 110.791C332.444 112.324 331.558 114.586 331.118 116.463C330.723 118.138 330.418 120.587 330.418 122.045V122.601L329.698 122.657C326.708 122.884 324.277 124.909 323.512 127.808C323.302 128.597 323.292 130.748 323.502 131.522C323.827 132.747 324.662 134.143 325.512 134.877C326.948 136.132 328.103 136.526 330.328 136.532L331.733 136.542L332.114 138.459C333.969 147.745 337.735 156.063 342.655 161.721C346.351 165.966 350.262 168.39 354.983 169.351C356.483 169.66 357.098 169.71 359.098 169.68C360.574 169.665 361.129 169.624 361.839 169.483V169.478Z" fill="#FFFEFE"/>
<path d="M358.128 162.93C353.597 162.262 349.602 159.003 346.531 153.463C344.056 149 342.15 142.634 341.675 137.215L341.62 136.577H356.863C371.316 136.577 372.116 136.587 372.156 136.724C372.181 136.8 372.271 137.367 372.366 137.979C373.691 146.955 372.416 154.53 368.84 158.872C367.065 161.033 364.619 162.454 361.919 162.895C361.119 163.026 358.933 163.041 358.128 162.925V162.93Z" fill="var(--fill-0, #FFDCAA)"/>
<path d="M356.863 136.537C364.089 136.537 367.902 136.539 369.914 136.558C370.92 136.568 371.477 136.583 371.784 136.603C371.938 136.613 372.032 136.625 372.09 136.639C372.144 136.652 372.181 136.672 372.193 136.711H372.194C372.201 136.733 372.212 136.786 372.225 136.858C372.239 136.932 372.255 137.03 372.274 137.143C372.312 137.371 372.358 137.666 372.406 137.973L372.522 138.811C373.65 147.425 372.345 154.679 368.871 158.898C367.09 161.066 364.635 162.493 361.925 162.935C361.522 163.001 360.773 163.038 360.026 163.044C359.306 163.049 358.583 163.025 358.169 162.971V162.977L358.122 162.97C353.575 162.3 349.57 159.03 346.496 153.482C344.018 149.014 342.111 142.643 341.635 137.219L341.58 136.581L341.576 136.537H356.863ZM341.715 137.211L341.764 137.722C342.309 143.021 344.171 149.125 346.566 153.443C349.623 158.958 353.593 162.201 358.088 162.882V162.878L358.134 162.885C358.533 162.942 359.278 162.968 360.025 162.962C360.772 162.957 361.516 162.92 361.912 162.854L362.164 162.81C364.755 162.327 367.095 160.932 368.809 158.846L368.975 158.64C372.304 154.419 373.55 147.287 372.443 138.822L372.326 137.985C372.278 137.679 372.232 137.384 372.195 137.157C372.176 137.043 372.16 136.946 372.146 136.873C372.133 136.799 372.123 136.752 372.117 136.737L372.117 136.735C372.119 136.741 372.123 136.731 372.07 136.718C372.02 136.706 371.932 136.694 371.779 136.684C371.474 136.664 370.92 136.65 369.914 136.64C367.903 136.62 364.089 136.618 356.863 136.618H341.664L341.715 137.211Z" fill="var(--fill-0, #FFDCAA)"/>
</g>
</g>
</svg>
