<svg preserveAspectRatio="none" width="100%" height="100%" overflow="visible" style="display: block;" viewBox="0 0 244 107" fill="none" xmlns="http://www.w3.org/2000/svg">
<g id="Levmich Studio svg 1">
<path id="Vector" d="M167.198 103.289C163.941 103.289 160.988 102.562 158.339 101.108C155.733 99.6534 153.649 97.626 152.085 95.0261C150.565 92.4262 149.806 89.4514 149.806 86.102C149.806 82.7088 150.565 79.7341 152.085 77.1778C153.649 74.5779 155.755 72.5505 158.404 71.0962C161.053 69.6419 163.984 68.9147 167.198 68.9147C170.455 68.9147 173.386 69.6419 175.992 71.0962C178.641 72.5505 180.725 74.5779 182.245 77.1778C183.809 79.7341 184.59 82.7088 184.59 86.102C184.59 89.4514 183.809 92.4262 182.245 95.0261C180.725 97.626 178.641 99.6534 175.992 101.108C173.386 102.562 170.455 103.289 167.198 103.289ZM167.198 95.2905C168.674 95.2905 170.021 94.96 171.237 94.2989C172.452 93.5936 173.408 92.5584 174.103 91.192C174.841 89.8257 175.21 88.1293 175.21 86.102C175.21 84.0746 174.841 82.3782 174.103 81.0119C173.364 79.6455 172.387 78.6321 171.172 77.9711C169.999 77.2658 168.696 76.9134 167.263 76.9134C165.786 76.9134 164.44 77.2658 163.224 77.9711C162.008 78.6321 161.031 79.6455 160.293 81.0119C159.554 82.334 159.186 84.0309 159.186 86.102C159.186 88.1293 159.533 89.8257 160.228 91.192C160.966 92.5584 161.943 93.5936 163.159 94.2989C164.375 94.96 165.721 95.2905 167.198 95.2905Z" fill="var(--fill-0, white)"/>
<path id="Vector_2" d="M136.978 102.496V69.708H146.098V102.496H136.978ZM137.369 64.4857V55.8921H145.837V64.4857H137.369Z" fill="var(--fill-0, white)"/>
<path id="Vector_3" d="M112.579 103.289C109.583 103.289 106.869 102.54 104.436 101.042C102.048 99.543 100.159 97.4938 98.7692 94.8939C97.3797 92.2497 96.6847 89.2968 96.6847 86.0358C96.6847 82.7306 97.3797 79.8001 98.7692 77.2439C100.159 74.644 102.048 72.6166 104.436 71.1623C106.869 69.6637 109.583 68.9147 112.579 68.9147C114.968 68.9147 117.031 69.3556 118.767 70.2368C120.548 71.118 121.981 72.3522 123.067 73.9387V54.9005H132.186V102.496H123.067V98.0008C122.068 99.4108 120.721 100.645 119.028 101.703C117.378 102.76 115.228 103.289 112.579 103.289ZM114.663 95.2244C116.357 95.2244 117.855 94.8278 119.158 94.0345C120.461 93.2413 121.482 92.1617 122.22 90.7954C122.958 89.3853 123.327 87.8207 123.327 86.1019C123.327 84.339 122.958 82.7749 122.22 81.4085C121.482 80.0422 120.461 78.9626 119.158 78.1694C117.855 77.3761 116.357 76.9795 114.663 76.9795C113.013 76.9795 111.515 77.3761 110.169 78.1694C108.866 78.9626 107.846 80.0422 107.107 81.4085C106.369 82.7306 106 84.2729 106 86.0358C106 87.7988 106.369 89.3853 107.107 90.7954C107.846 92.1617 108.866 93.2413 110.169 94.0345C111.515 94.8278 113.013 95.2244 114.663 95.2244Z" fill="var(--fill-0, white)"/>
<path id="Vector_4" d="M74.0755 103.289C70.341 103.289 67.4097 101.989 65.2816 99.389C63.154 96.7448 62.0897 92.955 62.0897 88.019V69.708H71.1442V87.1596C71.1442 89.8481 71.6438 91.9192 72.6424 93.3735C73.6416 94.7835 75.1399 95.4888 77.1371 95.4888C79.3088 95.4888 80.9804 94.7174 82.1529 93.1752C83.3691 91.5886 83.9768 89.4072 83.9768 86.6308V69.708H93.0965V102.496H83.9768V97.8025C83.0218 99.477 81.719 100.821 80.0684 101.835C78.462 102.805 76.4642 103.289 74.0755 103.289Z" fill="var(--fill-0, white)"/>
<path id="Vector_5" d="M53.3305 102.496C51.0723 102.496 49.1615 102.231 47.5982 101.703C46.0782 101.174 44.9274 100.16 44.1457 98.6618C43.364 97.1196 42.9732 94.9157 42.9732 92.0514V77.4422H37.4363V69.708H42.9732V60.7177H52.0928V69.708H60.04V77.4422H52.0928V90.9276C52.0928 91.941 52.2014 92.7124 52.4185 93.2413C52.6357 93.7701 53.0266 94.1449 53.5911 94.365C54.1991 94.5415 55.0025 94.6294 56.0013 94.6294H59.8446V102.496H53.3305Z" fill="var(--fill-0, white)"/>
<path id="Vector_6" d="M18.565 103.289C16.4805 103.289 14.396 103.003 12.3115 102.43C10.227 101.813 8.29451 100.865 6.51403 99.5873C4.77695 98.2652 3.32215 96.5683 2.14963 94.4972C0.977104 92.3819 0.260561 89.8481 0 86.8952H8.33796C8.7288 89.1428 9.46703 90.8833 10.5527 92.1175C11.6818 93.3074 12.9846 94.1449 14.4611 94.6295C15.9377 95.114 17.3708 95.3566 18.7604 95.3566C20.3672 95.3566 21.7785 95.0922 22.9945 94.5634C24.2539 94.0345 25.231 93.3074 25.9258 92.3819C26.6641 91.4564 27.0332 90.4206 27.0332 89.275C27.0332 87.9971 26.6858 86.8509 25.991 85.8375C25.2961 84.8241 23.7545 84.097 21.366 83.6561L14.0052 82.2679C10.1402 81.5189 7.14374 79.9761 5.0158 77.6405C2.88788 75.2608 1.82393 72.4625 1.82393 69.2452C1.82393 66.3366 2.54047 63.8689 3.97356 61.8415C5.40664 59.7704 7.33916 58.1839 9.77104 57.082C12.2029 55.9802 14.8954 55.4294 17.8484 55.4294C20.9317 55.4294 23.6894 55.9582 26.1213 57.0159C28.5966 58.0736 30.5942 59.7262 32.1142 61.9737C33.6775 64.177 34.6112 67.0419 34.9152 70.5673H26.447C26.1429 68.5842 25.5567 67.0856 24.6882 66.0722C23.8196 65.0145 22.7991 64.2874 21.6266 63.8908C20.454 63.4941 19.2815 63.2958 18.109 63.2958C17.0233 63.2958 15.8508 63.4723 14.5914 63.8247C13.3755 64.177 12.3332 64.772 11.4647 65.6095C10.6396 66.447 10.227 67.6145 10.227 69.113C10.227 70.3472 10.6613 71.4486 11.5298 72.4183C12.4418 73.388 13.9835 74.0709 16.1548 74.4675L22.9294 75.7235C26.7943 76.4288 29.8559 77.817 32.1142 79.8881C34.3724 81.9155 35.5014 84.9563 35.5014 89.0106C35.5014 91.3024 35.002 93.3292 34.0032 95.0922C33.0478 96.8552 31.745 98.3532 30.0948 99.5873C28.488 100.777 26.6858 101.703 24.6882 102.364C22.6905 102.98 20.6495 103.289 18.565 103.289Z" fill="var(--fill-0, white)"/>
<path id="Vector_7" d="M211.597 47.5954V0H220.717V19.6331C221.759 17.9144 223.192 16.5482 225.016 15.5346C226.883 14.521 229.011 14.0142 231.4 14.0142C235.438 14.0142 238.543 15.3363 240.715 17.9805C242.886 20.5806 243.972 24.3485 243.972 29.2844V47.5954H234.917V30.1437C234.917 27.4555 234.396 25.4062 233.354 23.996C232.312 22.5417 230.64 21.8146 228.338 21.8146C226.123 21.8146 224.3 22.6078 222.866 24.1943C221.433 25.7367 220.717 27.8962 220.717 30.6726V47.5954H211.597Z" fill="var(--fill-0, white)"/>
<path id="Vector_8" d="M191.869 48.3887C188.525 48.3887 185.572 47.6615 183.01 46.2072C180.448 44.7088 178.429 42.6816 176.952 40.1256C175.519 37.5255 174.802 34.5507 174.802 31.2014C174.802 27.8521 175.519 24.8995 176.952 22.3434C178.429 19.7433 180.448 17.7161 183.01 16.2618C185.572 14.7634 188.525 14.0142 191.869 14.0142C196.038 14.0142 199.556 15.138 202.422 17.3855C205.288 19.589 207.133 22.6519 207.959 26.5741H198.318C197.927 25.1639 197.145 24.0401 195.973 23.2028C194.8 22.3654 193.411 21.9468 191.804 21.9468C190.371 21.9468 189.068 22.3214 187.895 23.0705C186.723 23.8197 185.789 24.8774 185.094 26.2436C184.443 27.6098 184.117 29.2624 184.117 31.2014C184.117 33.0964 184.443 34.7491 185.094 36.1593C185.789 37.5695 186.723 38.6492 187.895 39.3984C189.068 40.1476 190.371 40.5222 191.804 40.5222C193.411 40.5222 194.8 40.1256 195.973 39.3323C197.145 38.495 197.927 37.3271 198.318 35.8288H207.959C207.177 39.6187 205.332 42.6596 202.422 44.9512C199.556 47.2429 196.038 48.3887 191.869 48.3887Z" fill="var(--fill-0, white)"/>
<path id="Vector_9" d="M162.105 47.5953V14.8074H171.225V47.5953H162.105ZM162.496 9.58513V0.991515H170.965V9.58513H162.496Z" fill="var(--fill-0, white)"/>
<path id="Vector_10" d="M103.518 47.5954V14.8075H112.637V18.7076C113.68 17.2533 115.026 16.1075 116.676 15.2702C118.37 14.4328 120.302 14.0142 122.474 14.0142C124.905 14.0142 126.99 14.4989 128.727 15.4685C130.507 16.4381 131.919 17.8483 132.961 19.6992C134.177 17.9364 135.762 16.5482 137.716 15.5346C139.671 14.521 141.842 14.0142 144.23 14.0142C148.53 14.0142 151.787 15.3363 154.002 17.9805C156.259 20.5806 157.389 24.3485 157.389 29.2844V47.5954H148.334V30.1437C148.334 27.4555 147.835 25.4062 146.836 23.996C145.837 22.5417 144.252 21.8146 142.081 21.8146C139.953 21.8146 138.238 22.6078 136.935 24.1943C135.675 25.7367 135.046 27.8962 135.046 30.6726V47.5954H125.991V30.1437C125.991 27.4555 125.47 25.4062 124.428 23.996C123.386 22.5417 121.779 21.8146 119.607 21.8146C117.523 21.8146 115.829 22.6078 114.527 24.1943C113.267 25.7367 112.637 27.8962 112.637 30.6726V47.5954H103.518Z" fill="var(--fill-0, white)"/>
<path id="Vector_11" d="M77.6726 47.5954L65.8822 14.8075H75.4578L83.2747 38.8696L91.0264 14.8075H100.537L88.7464 47.5954H77.6726Z" fill="var(--fill-0, white)"/>
<path id="Vector_12" d="M49.6944 48.3887C46.3505 48.3887 43.3975 47.6835 40.8353 46.2733C38.2731 44.819 36.2755 42.8359 34.8424 40.3239C33.4093 37.7678 32.6928 34.8372 32.6928 31.5319C32.6928 28.1386 33.3876 25.1198 34.7773 22.4756C36.2104 19.8314 38.208 17.7602 40.7702 16.2618C43.3324 14.7634 46.3071 14.0142 49.6944 14.0142C52.908 14.0142 55.7523 14.7193 58.2277 16.1295C60.703 17.5398 62.6357 19.4789 64.0252 21.9468C65.4152 24.3706 66.1096 27.147 66.1096 30.276C66.1096 30.7167 66.1096 31.2234 66.1096 31.7964C66.1096 32.3252 66.0666 32.8761 65.9794 33.449H39.2068V27.8962H56.8597C56.7294 25.9571 55.9914 24.4147 54.6451 23.2689C53.3423 22.079 51.7138 21.484 49.7595 21.484C48.283 21.484 46.9151 21.8146 45.6557 22.4756C44.4397 23.1366 43.4626 24.1502 42.7244 25.5164C42.0296 26.8385 41.6822 28.5352 41.6822 30.6065V32.5235C41.6822 34.1982 42.0079 35.6745 42.6593 36.9525C43.354 38.1865 44.2878 39.156 45.4603 39.8611C46.6762 40.5222 48.0659 40.8527 49.6293 40.8527C51.1492 40.8527 52.4303 40.5222 53.4725 39.8611C54.5148 39.156 55.3184 38.2526 55.8826 37.1509H65.1977C64.5899 39.2662 63.5476 41.1832 62.0709 42.902C60.6379 44.5766 58.8575 45.9208 56.7294 46.9343C54.6451 47.9039 52.3 48.3887 49.6944 48.3887Z" fill="var(--fill-0, white)"/>
<path id="Vector_13" d="M1.49822 47.5954V1.32209H10.6179V40.39H30.5508V47.5954H1.49822Z" fill="var(--fill-0, white)"/>
<g id="Vector_14">
<path d="M213.113 102.111C211.028 101.856 208.95 101.013 207.272 99.7327C203.157 96.5967 199.897 90.5345 198.473 83.3773L198.243 82.2245L197.675 82.2397C196.323 82.2792 195.426 81.9933 194.573 81.2572C194.182 80.9226 193.883 80.515 193.622 79.9675C193.284 79.2557 193.243 79.0306 193.243 77.9569C193.243 77.2026 193.261 76.9623 193.335 76.6824C193.793 74.9395 195.246 73.7228 197.035 73.5859L197.465 73.5525V73.2179C197.465 72.713 197.558 71.697 197.663 71.0157C198.064 68.4302 199.086 66.1824 200.591 64.5824C201.159 63.974 201.545 63.6455 202.206 63.1984C203.97 61.9969 206.171 61.3399 208.654 61.2669C209.769 61.2334 210.565 61.2912 211.582 61.4737C216.561 62.3619 220.835 66.3405 223.126 72.2172C223.252 72.5396 223.41 72.9837 223.482 73.1996L223.607 73.592H224.732C225.674 73.592 225.904 73.6072 226.188 73.6863C227.116 73.9418 227.959 74.4954 228.449 75.1828C228.668 75.4809 228.97 76.1015 229.095 76.4938C229.326 77.2086 229.35 78.3523 229.152 79.1432C228.743 80.8009 227.28 82.0815 225.68 82.191L225.27 82.2214L225.375 83.0275C225.611 84.8221 225.65 85.4761 225.65 87.5323C225.656 88.8281 225.635 89.695 225.593 90.0843C225.225 93.5123 224.328 96.1435 222.833 98.1601C222.441 98.6894 221.622 99.5441 221.095 99.97C219.782 101.035 218.356 101.682 216.537 102.041C216.098 102.124 215.79 102.145 214.752 102.16C214.061 102.166 213.325 102.151 213.113 102.127V102.111ZM216.298 97.7738C218.218 97.4605 219.872 96.3351 221.003 94.5861C222.474 92.2987 223.135 88.4965 222.734 84.6031C222.677 84.0343 222.459 82.4678 222.42 82.337C222.396 82.2549 221.924 82.2488 213.43 82.2488H204.467L204.491 82.4587C204.933 86.5194 206.228 90.4219 208.071 93.2629C208.938 94.6013 210.068 95.7906 211.211 96.5602C212.108 97.1685 213.31 97.643 214.321 97.7951C214.788 97.8651 215.832 97.8529 216.298 97.7769V97.7738Z" fill="#020202"/>
<path d="M213.523 104.831C211.734 104.66 210.179 104.247 208.651 103.544C207.015 102.79 205.588 101.777 204.147 100.35C201.3 97.5304 199.11 93.8438 197.486 89.1352C197.044 87.8547 196.589 86.2638 196.284 84.9407C196.26 84.822 196.221 84.8038 195.931 84.749C194.05 84.4205 192.265 82.9727 191.388 81.0685C190.772 79.7241 190.584 78.261 190.829 76.7219C191.119 74.9212 192.13 73.2087 193.503 72.2171C193.907 71.922 194.849 71.4019 194.98 71.4019C195.082 71.4019 195.097 71.3563 195.199 70.7297C195.638 67.983 196.637 65.5831 198.156 63.612C198.677 62.9398 199.691 61.9452 200.405 61.4007C202.657 59.6943 205.606 58.7087 208.735 58.6145C212.928 58.4928 216.902 60.1049 220.24 63.2957C222.064 65.0386 223.901 67.7549 224.962 70.2613L225.216 70.8605L225.584 70.8909C228.614 71.1616 230.977 73.3334 231.653 76.4725C231.778 77.0504 231.778 78.7599 231.653 79.353C231.344 80.81 230.737 81.9689 229.756 82.9635C229.299 83.4289 228.575 83.9795 228.135 84.1894C227.923 84.2928 227.929 84.2289 228.031 85.1901C228.132 86.1756 228.171 88.8402 228.103 89.8257C227.711 95.3647 225.71 99.6475 222.28 102.266C220.416 103.69 218.069 104.602 215.724 104.806C215.189 104.855 213.929 104.864 213.529 104.825L213.523 104.831ZM216.394 101.877C218.655 101.436 220.351 100.533 221.873 98.9418C223.862 96.8704 225.019 93.9564 225.447 89.923C225.486 89.5398 225.51 88.6972 225.504 87.5201C225.504 85.6007 225.459 84.9194 225.219 83.0943C225.151 82.6046 225.1 82.1727 225.1 82.1332C225.1 82.0784 225.202 82.0601 225.525 82.0358C227.068 81.9324 228.482 80.7613 228.955 79.1857C229.191 78.4009 229.191 77.385 228.955 76.6398C228.56 75.4079 227.803 74.5501 226.667 74.0482C226.036 73.7684 225.8 73.7349 224.579 73.7349H223.461L223.335 73.3425C222.988 72.2779 222.384 70.8909 221.81 69.8385C219.809 66.1792 217.118 63.6333 213.861 62.3132C210.532 60.9627 206.453 61.13 203.339 62.7512C201.647 63.6333 200.34 64.8896 199.35 66.599C198.814 67.5207 198.285 68.8803 198.022 70.0088C197.785 71.0156 197.603 72.4878 197.603 73.3638V73.6984L197.172 73.7319C195.384 73.8688 193.93 75.0854 193.473 76.8284C193.347 77.3029 193.341 78.5956 193.467 79.061C193.661 79.7971 194.161 80.6366 194.669 81.0777C195.527 81.832 196.218 82.0693 197.549 82.0723L198.39 82.0784L198.617 83.2312C199.726 88.8128 201.978 93.8134 204.921 97.2141C207.132 99.7661 209.47 101.223 212.294 101.801C213.191 101.987 213.559 102.017 214.755 101.999C215.637 101.99 215.969 101.965 216.394 101.88V101.877Z" fill="#FFFEFE"/>
<path d="M214.175 97.9411C211.465 97.5396 209.075 95.5807 207.239 92.25C205.759 89.5672 204.619 85.7407 204.335 82.483L204.302 82.0997H213.418C222.061 82.0997 222.54 82.1058 222.564 82.1879C222.579 82.2336 222.632 82.5742 222.689 82.9423C223.482 88.3383 222.719 92.8918 220.581 95.5016C219.519 96.8004 218.057 97.6552 216.442 97.9198C215.963 97.9989 214.656 98.008 214.175 97.9381V97.9411Z" fill="var(--fill-0, #FFDCAA)"/>
<path d="M213.418 82.0754C217.74 82.0754 220.02 82.0767 221.223 82.0884C221.825 82.0943 222.158 82.103 222.342 82.1152C222.433 82.1212 222.49 82.1283 222.524 82.1369C222.556 82.1449 222.579 82.1566 222.586 82.1802H222.587C222.591 82.1937 222.597 82.2254 222.605 82.2687C222.613 82.3131 222.623 82.3717 222.635 82.4401C222.657 82.5771 222.685 82.7546 222.713 82.9386L222.783 83.4424C223.457 88.6207 222.677 92.9813 220.599 95.5172C219.534 96.8205 218.066 97.6785 216.445 97.9441C216.204 97.9839 215.756 98.006 215.31 98.0094C214.879 98.0127 214.447 97.998 214.199 97.9655V97.9693L214.171 97.9652C211.452 97.5622 209.057 95.5966 207.218 92.2619C205.736 89.576 204.596 85.7462 204.311 82.4853L204.278 82.1018L204.276 82.0754H213.418ZM204.359 82.4808L204.388 82.7877C204.714 85.9732 205.828 89.6423 207.26 92.2382C209.088 95.5534 211.462 97.5031 214.151 97.9123V97.9099L214.178 97.9138C214.417 97.9485 214.862 97.9638 215.309 97.9604C215.756 97.957 216.201 97.9349 216.438 97.8957L216.588 97.8692C218.138 97.5783 219.537 96.7399 220.562 95.486L220.661 95.3625C222.652 92.8249 223.398 88.5378 222.735 83.4489L222.665 82.946C222.637 82.762 222.609 82.5849 222.587 82.4482C222.576 82.3798 222.566 82.3215 222.558 82.2777C222.55 82.2329 222.544 82.2051 222.541 82.1957L222.54 82.1948C222.542 82.1985 222.544 82.1923 222.513 82.1844C222.483 82.1769 222.43 82.1699 222.338 82.1639C222.156 82.1518 221.824 82.1433 221.223 82.1375C220.02 82.1257 217.74 82.1241 213.418 82.1241H204.329L204.359 82.4808Z" fill="var(--fill-0, #FFDCAA)"/>
</g>
</g>
</svg>
