<svg preserveAspectRatio="none" width="100%" height="100%" overflow="visible" style="display: block;" viewBox="0 0 32.0078 39.9923" fill="none" xmlns="http://www.w3.org/2000/svg">
<g id="Group">
<g id="Vector">
</g>
<path id="Vector_2" fill-rule="evenodd" clip-rule="evenodd" d="M4.23317 4.80883C7.06933 1.78567 11.1815 0 16.2727 0C24.6418 0 30.1913 4.8235 31.9477 11.5078C32.0712 11.9783 32.0027 12.4785 31.7574 12.8985C31.5121 13.3184 31.11 13.6237 30.6396 13.7473C30.1692 13.8708 29.6689 13.8023 29.249 13.557C28.829 13.3117 28.5237 12.9096 28.4002 12.4392C27.0673 7.37367 22.9808 3.66667 16.2708 3.66667C12.0798 3.66667 8.97417 5.11317 6.90983 7.315C4.82717 9.537 3.66667 12.6738 3.66667 16.2708V20.3958C3.66667 23.9928 4.82717 27.1297 6.90983 29.3498C8.97417 31.5553 12.0798 33 16.2708 33C19.305 33 21.7122 32.296 23.5602 31.1575C25.421 30.0117 26.5302 28.4918 26.8418 26.7483C27.1993 24.739 26.7593 23.3603 26.0022 22.3648C25.5869 21.8292 25.082 21.3696 24.5098 21.0063C24.2623 22.3795 23.8205 23.6757 23.1532 24.6913C20.6928 28.4295 15.9885 28.7503 12.8865 27.5128C11.2072 26.8437 9.768 25.0122 9.32067 23.0487C9.04907 21.9233 9.13953 20.7408 9.57917 19.6698C10.065 18.5038 10.9652 17.5102 12.2467 16.7548C13.5153 16.005 15.4 15.6603 17.2682 15.609C18.3938 15.5778 19.6148 15.653 20.8432 15.8528C20.5865 14.6612 20.152 13.772 19.6625 13.3155C18.7752 12.4905 17.3048 11.9093 15.8308 11.9185C14.4063 11.9295 13.1982 12.4777 12.4758 13.6327C12.2181 14.045 11.8072 14.3381 11.3334 14.4474C10.8596 14.5567 10.3618 14.4734 9.9495 14.2157C9.53718 13.958 9.24411 13.547 9.13478 13.0732C9.02545 12.5995 9.1088 12.1017 9.3665 11.6893C10.901 9.23633 13.4292 8.27017 15.807 8.25183C18.1353 8.23533 20.5333 9.11717 22.1613 10.6315C23.8077 12.1642 24.5153 14.6777 24.6987 16.9638C26.301 17.6623 27.8153 18.6872 28.9245 20.1483C30.3563 22.0367 30.9723 24.4713 30.4517 27.3918C29.92 30.3692 28.0408 32.7048 25.4833 34.2797C22.9753 35.8233 19.8807 36.6667 16.2708 36.6667C11.1815 36.6667 7.0675 34.881 4.235 31.8578C1.419 28.8548 0 24.7738 0 20.3958V16.2708C0 11.8928 1.419 7.81183 4.235 4.80883H4.23317ZM21.0082 19.6167C19.8124 19.3588 18.5901 19.2443 17.3672 19.2757C15.7337 19.3197 14.5878 19.6295 14.1093 19.9118C13.4053 20.328 13.101 20.7515 12.9653 21.0797C12.8206 21.4476 12.7962 21.852 12.8957 22.2347C13.1193 23.2173 13.8582 23.9543 14.245 24.1065C16.3093 24.9315 18.8925 24.4952 20.0897 22.6765C20.5205 22.0202 20.8633 20.9165 21.0063 19.6167H21.0082Z" fill="var(--fill-0, white)" fill-opacity="0.8"/>
</g>
</svg>
