<svg preserveAspectRatio="none" width="100%" height="100%" overflow="visible" style="display: block;" viewBox="0 0 36.6667 36.6667" fill="none" xmlns="http://www.w3.org/2000/svg">
<path id="Vector" d="M18.3333 0C8.21333 0 0 8.21333 0 18.3333C0 28.4533 8.21333 36.6667 18.3333 36.6667C28.4533 36.6667 36.6667 28.4533 36.6667 18.3333C36.6667 8.21333 28.4533 0 18.3333 0ZM26.84 12.4667C26.565 15.3633 25.3733 22.4033 24.7683 25.6483C24.5117 27.0233 23.9983 27.4817 23.5217 27.5367C22.4583 27.6283 21.6517 26.84 20.625 26.1617C19.0117 25.0983 18.095 24.4383 16.5367 23.4117C14.7217 22.22 15.895 21.56 16.94 20.4967C17.215 20.2217 21.9083 15.95 22 15.565C22.0127 15.5067 22.011 15.4461 21.9951 15.3886C21.9791 15.3311 21.9493 15.2784 21.9083 15.235C21.7983 15.1433 21.6517 15.18 21.5233 15.1983C21.3583 15.235 18.7917 16.94 13.7867 20.3133C13.0533 20.8083 12.3933 21.065 11.8067 21.0467C11.1467 21.0283 9.9 20.68 8.965 20.3683C7.81 20.0017 6.91167 19.8 6.985 19.1583C7.02167 18.8283 7.48 18.4983 8.34167 18.15C13.695 15.8217 17.2517 14.2817 19.03 13.5483C24.1267 11.4217 25.1717 11.055 25.8683 11.055C26.015 11.055 26.3633 11.0917 26.5833 11.275C26.7667 11.4217 26.8217 11.6233 26.84 11.77C26.8217 11.88 26.8583 12.21 26.84 12.4667Z" fill="var(--fill-0, white)" fill-opacity="0.8"/>
</svg>
